# Blender 3.5.0
# www.blender.org
mtllib house17.mtl
o 立方体.018
v 129.651749 -0.514438 -45.400730
v 129.651749 0.885563 -45.400730
v 121.651749 -0.514438 -45.400730
v 121.651749 0.885563 -45.400730
v 129.651749 -0.514438 -48.400730
v 129.651749 0.885563 -48.400730
v 121.651749 -0.514438 -48.400730
v 121.651749 0.885563 -48.400730
vn -0.0000 -0.0000 1.0000
vn -1.0000 -0.0000 -0.0000
vn -0.0000 -0.0000 -1.0000
vn 1.0000 -0.0000 -0.0000
vn -0.0000 -1.0000 -0.0000
vn -0.0000 1.0000 -0.0000
vt 1.000000 0.000000
vt -1.083639 0.000000
vt -1.083640 2.083640
vt 1.000000 1.041820
vt -1.083640 1.041820
vt -1.083640 3.125459
vt -1.083640 0.000000
vt -1.083639 1.041820
vt -0.041820 0.000000
vt -0.041820 1.041820
vt -1.083640 1.041820
vt -1.083640 2.083640
vt -0.041820 0.000000
vt -2.125459 1.041820
vt -0.041820 2.083640
vt -2.125459 2.083640
vt -0.041820 1.041820
vt -2.125459 3.125459
vt -1.083640 1.041820
vt -2.125459 0.000000
vt -0.041820 1.041820
vt -2.125459 2.083640
vt -2.125459 1.041820
vt -1.083640 2.083640
s 0
usemtl マテリアル.019
f 2/4/1 3/9/1 1/1/1
f 4/11/2 7/20/2 3/7/2
f 8/24/3 5/14/3 7/19/3
f 6/17/4 1/2/4 5/13/4
f 7/21/5 1/3/5 3/8/5
f 4/12/6 6/18/6 8/22/6
f 2/4/1 4/10/1 3/9/1
f 4/11/2 8/23/2 7/20/2
f 8/24/3 6/16/3 5/14/3
f 6/17/4 2/5/4 1/2/4
f 7/21/5 5/15/5 1/3/5
f 4/12/6 2/6/6 6/18/6
