# Blender 3.5.0
# www.blender.org
mtllib house30.mtl
o 立方体.036
v 71.156540 3.900000 -135.071136
v 71.156540 8.700001 -135.071136
v 61.756542 3.900000 -135.071136
v 61.756542 8.700001 -135.071136
v 71.156540 3.900000 -141.071136
v 71.156540 8.700001 -141.071136
v 61.756542 3.900000 -141.071136
v 61.756542 8.700001 -141.071136
vn -0.0000 -0.0000 1.0000
vn -1.0000 -0.0000 -0.0000
vn -0.0000 -0.0000 -1.0000
vn 1.0000 -0.0000 -0.0000
vn -0.0000 -1.0000 -0.0000
vn -0.0000 1.0000 -0.0000
vt 0.645647 0.600431
vt -0.021019 0.600431
vt -0.021019 1.267098
vt 0.645647 0.933764
vt -0.021019 0.933764
vt -0.021019 1.600431
vt -0.021019 0.600431
vt -0.021019 0.933764
vt 0.312314 0.600431
vt 0.312314 0.933764
vt -0.021019 0.933764
vt -0.021019 1.267098
vt 0.312314 0.600431
vt -0.354353 0.933764
vt 0.312314 1.267098
vt -0.354353 1.267098
vt 0.312314 0.933764
vt -0.354353 1.600431
vt -0.021019 0.933764
vt -0.354353 0.600431
vt 0.312314 0.933764
vt -0.354353 1.267098
vt -0.354353 0.933764
vt -0.021019 1.267098
s 0
usemtl マテリアル.067
f 2/4/1 3/9/1 1/1/1
f 4/11/2 7/20/2 3/7/2
f 8/24/3 5/14/3 7/19/3
f 6/17/4 1/2/4 5/13/4
f 7/21/5 1/3/5 3/8/5
f 4/12/6 6/18/6 8/22/6
f 2/4/1 4/10/1 3/9/1
f 4/11/2 8/23/2 7/20/2
f 8/24/3 6/16/3 5/14/3
f 6/17/4 2/5/4 1/2/4
f 7/21/5 5/15/5 1/3/5
f 4/12/6 2/6/6 6/18/6
