# Blender 3.5.0
# www.blender.org
mtllib house47.mtl
o 立方体.065
v -114.286926 4.645586 -46.044971
v -113.539795 4.745584 -46.186493
v -113.539795 10.545585 -46.186493
v -113.539795 4.745585 -51.322407
v -114.286926 10.645586 -46.044971
v -113.539795 4.745584 -51.186501
v -113.539795 10.545585 -51.186501
v -113.539795 10.545586 -51.322407
v -114.286926 4.645586 -56.444977
v -113.539795 4.745585 -56.322414
v -114.286926 10.645586 -56.444977
v -113.539795 10.545586 -56.322414
v -106.286926 4.645586 -46.044971
v -106.286926 10.645586 -46.044971
v -106.286926 4.645586 -56.444977
v -106.286926 10.645586 -56.444977
v -106.286926 4.745585 -51.322407
v -106.286926 7.690259 -51.322407
v -106.286926 5.287256 -56.322414
v -106.286926 4.745585 -56.322414
v -106.286926 10.545586 -56.322414
v -106.286926 4.745585 -55.855457
v -106.286926 10.545586 -56.271645
v -106.286926 10.003916 -51.322407
v -106.286926 10.545586 -51.789368
v -106.286926 10.545586 -51.322407
v -106.286926 4.745584 -51.186501
v -106.286926 4.745584 -50.719543
v -106.286926 4.745584 -46.218304
v -106.286926 5.287255 -51.186501
v -106.286926 7.611850 -51.186501
v -106.286926 4.745584 -46.186493
v -106.286926 10.003915 -46.186493
v -106.286926 10.545585 -46.186493
v -106.286926 10.545585 -46.653450
v -106.286926 10.545585 -51.186501
vn -1.0000 -0.0000 -0.0000
vn -0.0000 -0.0000 -1.0000
vn 1.0000 -0.0000 -0.0000
vn -0.0000 -0.0000 1.0000
vn -0.0000 -1.0000 -0.0000
vn -0.0000 1.0000 -0.0000
vt 1.000000 0.000000
vt 0.333333 0.000000
vt 0.333333 0.666667
vt 0.375000 0.000000
vt 0.375000 1.000000
vt 0.125000 0.750000
vt 0.625000 0.000000
vt 0.625000 1.000000
vt 0.875000 0.750000
vt 0.375000 0.000000
vt 0.125000 0.750000
vt 0.375000 1.000000
vt 1.000000 0.333333
vt 0.333333 0.333333
vt 0.333333 1.000000
vt 0.375000 0.250000
vt 0.125000 0.500000
vt 0.625000 0.250000
vt 0.875000 0.500000
vt 0.625000 0.000000
vt 0.625000 1.000000
vt 0.875000 0.750000
vt 0.333333 0.000000
vt 0.333333 0.333333
vt 0.666667 0.000000
vt 0.375000 0.250000
vt 0.125000 0.500000
vt 0.666667 0.333333
vt 0.333333 0.333333
vt 0.333333 0.666667
vt 0.625000 0.250000
vt 0.875000 0.500000
vt 0.666667 0.000000
vt 0.666667 0.666667
vt 0.000000 0.333333
vt 0.666667 0.333333
vt 0.000000 1.000000
vt 0.000000 0.666667
vt 0.000000 0.000000
vt 0.666667 0.333333
vt 0.333333 0.333333
vt 0.000000 0.666667
vt 0.000000 0.333333
vt 0.333333 0.666667
vt 0.375000 0.773348
vt 0.351652 0.750000
vt 0.169149 0.338889
vt 0.169149 0.502482
vt 0.501926 0.773348
vt 0.329405 0.368982
vt 0.398348 0.476652
vt 0.329405 0.338889
vt 0.375000 0.476652
vt 0.351652 0.500000
vt 0.625000 0.476652
vt 0.329405 0.661111
vt 0.648348 0.500000
vt 0.314438 0.338889
vt 0.351652 0.523348
vt 0.327778 0.661111
vt 0.648348 0.502539
vt 0.169148 0.631018
vt 0.601652 0.773348
vt 0.184115 0.661111
vt 0.648348 0.726652
vt 0.648348 0.750000
vt 0.169148 0.661111
vt 0.625000 0.773348
vt 0.164792 0.338889
vt 0.375000 0.476652
vt 0.351652 0.500000
vt 0.149826 0.338889
vt 0.351652 0.523348
vt 0.005556 0.338889
vt 0.351652 0.748409
vt 0.164792 0.368982
vt 0.398348 0.476652
vt 0.164792 0.498126
vt 0.498546 0.476652
vt 0.375000 0.773348
vt 0.004536 0.338889
vt 0.351652 0.750000
vt 0.004536 0.631018
vt 0.601652 0.773348
vt 0.648348 0.750000
vt 0.004536 0.661111
vt 0.625000 0.773348
vt 0.019502 0.661111
vt 0.648348 0.726652
vt 0.648348 0.500000
vt 0.625000 0.476652
vt 0.164792 0.661111
s 0
usemtl マテリアル.078
f 5/13/1 9/25/1 1/1/1
f 11/29/2 15/39/2 9/23/2
f 22/58/3 17/47/3 27/69/3
f 14/36/4 1/2/4 13/33/4
f 15/40/5 1/3/5 9/24/5
f 11/30/6 14/37/6 16/42/6
f 5/13/1 11/28/1 9/25/1
f 11/29/2 16/43/2 15/39/2
f 14/38/3 13/35/3 34/86/3
f 14/36/4 5/14/4 1/2/4
f 15/40/5 13/34/5 1/3/5
f 11/30/6 5/15/6 14/37/6
f 28/72/3 29/74/3 13/35/3
f 16/44/3 23/60/3 21/56/3
f 16/44/3 21/56/3 19/50/3
f 28/72/3 13/35/3 15/41/3
f 27/69/3 28/72/3 15/41/3
f 15/41/3 16/44/3 19/50/3
f 15/41/3 19/50/3 20/52/3
f 18/48/3 31/78/3 30/76/3
f 17/47/3 18/48/3 30/76/3
f 27/69/3 15/41/3 20/52/3
f 27/69/3 20/52/3 22/58/3
f 17/47/3 30/76/3 27/69/3
f 36/92/3 31/78/3 18/48/3
f 36/92/3 18/48/3 24/62/3
f 36/92/3 24/62/3 26/67/3
f 25/64/3 23/60/3 16/44/3
f 35/88/3 36/92/3 26/67/3
f 26/67/3 25/64/3 16/44/3
f 13/35/3 29/74/3 32/81/3
f 13/35/3 32/81/3 33/83/3
f 26/67/3 16/44/3 14/38/3
f 34/86/6 35/88/6 26/67/6
f 13/35/3 33/83/3 34/86/3
f 34/86/3 26/67/3 14/38/3
usemtl 
f 8/20/3 4/10/3 10/26/3
f 10/26/4 19/51/4 12/31/4
f 4/12/2 18/49/2 17/45/2
f 22/59/6 10/27/6 4/11/6
f 12/32/5 23/61/5 25/65/5
f 8/20/3 10/26/3 12/31/3
f 12/31/4 19/51/4 21/55/4
f 8/21/2 24/63/2 4/12/2
f 4/11/6 17/46/6 22/59/6
f 8/22/5 25/65/5 26/66/5
f 3/7/3 2/4/3 6/16/3
f 6/16/4 30/77/4 7/18/4
f 2/5/2 33/84/2 32/80/2
f 28/73/6 6/17/6 2/6/6
f 7/19/5 36/90/5 35/89/5
f 3/7/3 6/16/3 7/18/3
f 7/18/4 31/79/4 36/91/4
f 3/8/2 33/84/2 2/5/2
f 2/6/6 29/75/6 28/73/6
f 3/9/5 35/89/5 34/85/5
f 10/26/4 20/53/4 19/51/4
f 4/12/2 24/63/2 18/49/2
f 22/59/6 20/54/6 10/27/6
f 12/32/5 21/57/5 23/61/5
f 8/21/2 26/68/2 24/63/2
f 8/22/5 12/32/5 25/65/5
f 6/16/4 27/70/4 30/77/4
f 28/73/6 27/71/6 6/17/6
f 7/18/4 30/77/4 31/79/4
f 3/8/2 34/87/2 33/84/2
f 2/6/6 32/82/6 29/75/6
f 3/9/5 7/19/5 35/89/5
