# Blender 3.5.0
# www.blender.org
mtllib house36.mtl
o 立方体.047
v 160.230560 -0.564058 248.178436
v 160.230560 0.835942 248.178436
v 160.230560 -0.564058 234.178436
v 160.230560 0.835942 234.178436
v 163.230560 -0.564058 248.178436
v 163.230560 0.835942 248.178436
v 163.230560 -0.564058 234.178436
v 163.230560 0.835942 234.178436
vn -1.0000 -0.0000 -0.0000
vn -0.0000 -0.0000 -1.0000
vn 1.0000 -0.0000 -0.0000
vn -0.0000 -0.0000 1.0000
vn -0.0000 -1.0000 -0.0000
vn -0.0000 1.0000 -0.0000
vt 1.000000 0.000000
vt 0.548077 0.000000
vt 0.548077 1.796762
vt 1.000000 0.898381
vt 0.548077 0.898381
vt 0.548077 2.695143
vt 0.548077 0.000000
vt 0.548077 0.898381
vt 0.774038 0.000000
vt 0.774038 0.898381
vt 0.548077 0.898381
vt 0.548077 1.796762
vt 0.774038 0.000000
vt 0.322115 0.898381
vt 0.774038 1.796763
vt 0.322115 1.796762
vt 0.774038 0.898381
vt 0.322115 2.695143
vt 0.548077 0.898381
vt 0.322115 0.000000
vt 0.774038 0.898381
vt 0.322115 1.796762
vt 0.322115 0.898381
vt 0.548077 1.796763
s 0
usemtl マテリアル.017
f 2/4/1 3/9/1 1/1/1
f 4/11/2 7/20/2 3/7/2
f 8/24/3 5/14/3 7/19/3
f 6/17/4 1/2/4 5/13/4
f 7/21/5 1/3/5 3/8/5
f 4/12/6 6/18/6 8/22/6
f 2/4/1 4/10/1 3/9/1
f 4/11/2 8/23/2 7/20/2
f 8/24/3 6/16/3 5/14/3
f 6/17/4 2/5/4 1/2/4
f 7/21/5 5/15/5 1/3/5
f 4/12/6 2/6/6 6/18/6
