# Blender 3.5.0
# www.blender.org
mtllib gold.mtl
o Cube
v 0.239803 0.362958 -1.000000
v 0.416630 -0.035110 -1.000000
v 0.239803 0.362958 1.000000
v 0.416630 -0.035110 1.000000
v -0.239803 0.362958 -1.000000
v -0.416630 -0.035110 -1.000000
v -0.239803 0.362958 1.000000
v -0.416630 -0.035110 1.000000
vn -0.0000 1.0000 -0.0000
vn -0.0000 -0.0000 1.0000
vn -0.9139 0.4060 -0.0000
vn -0.0000 -1.0000 -0.0000
vn 0.9139 0.4060 -0.0000
vn -0.0000 -0.0000 -1.0000
vt 0.321815 0.003935
vt 0.678043 0.748021
vt 0.847966 0.069723
vt 0.313944 0.003935
vt 0.840096 0.748021
vt 0.996065 0.003935
vt 0.321815 0.748021
vt 0.847966 0.566036
vt 0.678043 0.003935
vt 0.996065 0.631823
vt 0.313944 0.748021
vt 0.840096 0.003935
vt 0.500249 0.003935
vt 0.508120 0.003935
vt 0.847966 0.248157
vt 0.670172 0.003935
vt 0.003935 0.003935
vt 0.996065 0.313944
vt 0.500249 0.748021
vt 0.847966 0.387602
vt 0.508120 0.748021
vt 0.996065 0.321815
vt 0.670172 0.748021
vt 0.003935 0.748021
s 0
usemtl Material
f 1/1/1 5/13/1 7/19/1 3/7/1
f 4/10/2 3/8/2 7/20/2 8/22/2
f 8/23/3 7/21/3 5/14/3 6/16/3
f 6/17/4 2/4/4 4/11/4 8/24/4
f 2/5/5 1/2/5 3/9/5 4/12/5
f 6/18/6 5/15/6 1/3/6 2/6/6
