# Blender 3.5.0
# www.blender.org
mtllib house26.mtl
o 立方体.028
v 41.126038 11.521179 -131.951996
v 41.126038 14.521179 -131.951996
v 52.831600 15.864489 -191.951996
v 52.831600 18.864489 -191.951996
v 73.126038 24.234779 -131.951996
v 73.126038 27.234779 -131.951996
v 73.126038 24.234779 -191.951996
v 73.126038 27.234779 -191.951996
v 52.734314 15.864489 -157.517548
v 41.126038 13.021179 -131.951996
v 52.734314 18.864489 -157.517548
v 52.831600 17.364489 -191.951996
v 57.126038 17.338980 -191.951996
v 57.126038 20.338980 -191.951996
v 73.126038 25.734779 -191.951996
v 73.126038 24.234779 -161.951996
v 73.126038 27.234779 -161.951996
v 73.126038 25.734779 -131.951996
v 57.126038 17.338980 -131.951996
v 57.126038 20.338980 -131.951996
v 57.126038 20.338980 -161.951996
v 57.126038 17.338980 -161.951996
v 57.126038 18.838980 -131.951996
v 73.126038 25.734779 -161.951996
v 57.126038 18.838980 -191.951996
v 52.734314 17.364489 -157.517548
v 41.126038 11.521179 -157.493988
v 41.126038 13.771179 -131.951996
v 52.831600 18.864489 -176.951996
v 52.831600 16.614489 -191.951996
v 56.179054 17.014105 -191.951996
v 65.126038 23.552658 -191.951996
v 73.126038 24.984779 -191.951996
v 73.126038 24.234779 -176.951996
v 73.126038 27.234779 -146.951996
v 73.126038 24.984779 -131.951996
v 65.126038 20.552658 -131.951996
v 49.126038 17.196537 -131.951996
v 52.831600 15.864489 -176.951996
v 41.126038 12.271179 -131.951996
v 41.126038 14.521179 -157.493988
v 52.831600 18.114489 -191.951996
v 65.126038 20.552658 -191.951996
v 56.179054 20.014105 -191.951996
v 73.126038 26.484779 -191.951996
v 73.126038 24.234779 -146.951996
v 73.126038 27.234779 -176.951996
v 73.126038 26.484779 -131.951996
v 49.126038 14.196537 -131.951996
v 65.126038 23.552658 -131.951996
v 57.126038 20.338980 -146.951996
v 57.126038 20.338980 -176.951996
v 65.126038 23.552658 -161.951996
v 56.179054 20.014105 -161.951996
v 57.126038 17.338980 -146.951996
v 57.126038 17.338980 -176.951996
v 56.179054 17.014105 -161.951996
v 65.126038 20.552658 -161.951996
v 49.126038 15.696537 -131.951996
v 65.126038 22.052658 -131.951996
v 57.126038 18.088980 -131.951996
v 57.126038 19.588980 -131.951996
v 73.126038 25.734779 -146.951996
v 73.126038 25.734779 -176.951996
v 73.126038 24.984779 -161.951996
v 73.126038 26.484779 -161.951996
v 65.126038 22.052658 -191.951996
v 56.179054 18.514105 -191.951996
v 57.126038 18.088980 -191.951996
v 57.126038 19.588980 -191.951996
v 52.831600 17.364489 -176.951996
v 41.126038 13.021179 -157.493988
v 52.734314 16.614489 -157.517548
v 52.734314 18.114489 -157.517548
v 41.126038 13.771179 -157.493988
v 41.126038 12.271179 -157.493988
v 52.831600 16.614489 -176.951996
v 56.179054 19.264105 -191.951996
v 56.179054 17.764105 -191.951996
v 65.126038 21.302658 -191.951996
v 73.126038 26.484779 -176.951996
v 73.126038 24.984779 -176.951996
v 73.126038 24.984779 -146.951996
v 65.126038 22.802658 -131.951996
v 65.126038 21.302658 -131.951996
v 49.126038 14.946537 -131.951996
v 65.126038 20.552658 -176.951996
v 56.179054 17.014105 -176.951996
v 56.133408 16.981531 -146.951996
v 56.179054 20.014105 -176.951996
v 65.126038 23.552658 -176.951996
v 65.126038 23.552658 -146.951996
v 56.133408 19.981531 -146.951996
v 65.126038 20.552658 -146.951996
v 49.126038 16.446537 -131.951996
v 73.126038 26.484779 -146.951996
v 65.126038 22.802658 -191.951996
v 52.831600 18.114489 -176.951996
vn -1.0000 -0.0000 -0.0000
vn -0.0000 -0.0000 -1.0000
vn 1.0000 -0.0000 -0.0000
vn -0.0000 -0.0000 1.0000
vn 0.4181 -0.9084 -0.0000
vn -0.3488 0.9371 0.0111
vn -0.3728 0.9279 -0.0000
vn -0.3248 0.9458 -0.0000
vn 0.3656 -0.9308 -0.0020
vn 0.3245 -0.9459 -0.0000
vn -0.0020 -0.0000 -1.0000
vn -1.0000 -0.0000 -0.0050
vn 0.3728 -0.9279 -0.0000
vn 0.3184 -0.9480 0.0016
vn 0.3248 -0.9458 -0.0000
vn 0.3172 -0.9484 -0.0000
vn 0.3504 -0.9365 -0.0137
vn 0.3388 -0.9409 -0.0010
vn -0.3245 0.9459 -0.0000
vn -0.4181 0.9084 -0.0000
vn -0.3388 0.9409 -0.0000
vn -0.3153 0.9490 0.0011
vn -0.3172 0.9484 -0.0000
vn -0.3184 0.9480 -0.0016
vn 0.3388 -0.9409 -0.0000
vn 0.3488 -0.9371 -0.0111
vn 0.3153 -0.9490 -0.0011
vn -0.3656 0.9308 0.0020
vn -0.3388 0.9409 0.0010
vn -0.3504 0.9365 0.0137
vt -7.560525 0.000013
vt -2.823445 2.698283
vt -7.557617 0.000022
vt -1.779003 2.205341
vt -7.561543 0.501794
vt -0.670388 1.942376
vt -3.011096 0.750066
vt -12.107811 0.751624
vt -1.703961 1.449150
vt -12.108829 1.253404
vt -7.560523 2.191418
vt -2.823445 0.492942
vt -7.558852 2.694303
vt -1.779003 0.000000
vt -7.560525 2.697106
vt -0.745431 0.493226
vt -3.012768 2.191366
vt -12.108288 2.697075
vt -1.779004 0.000000
vt -3.011096 2.694251
vt -9.497830 0.751433
vt 0.521296 0.491292
vt -5.621058 0.749913
vt -2.301225 2.451812
vt -7.561033 0.250904
vt -0.584041 0.000000
vt -9.498850 1.253213
vt -1.187174 1.695763
vt -12.108319 1.002514
vt -0.584041 1.684510
vt -3.011616 1.005316
vt -12.108613 1.509265
vt -1.617614 1.191283
vt -3.011933 2.442808
vt -1.262218 0.246613
vt -5.286646 2.191392
vt -9.834406 2.697090
vt -5.284974 2.694277
vt -2.301225 0.246471
vt -7.559688 2.442861
vt -3.011096 1.684178
vt -7.559371 1.005369
vt -7.560851 1.509297
vt -1.966655 1.191236
vt -9.834732 1.509281
vt -5.285493 1.005342
vt -2.488876 1.437707
vt -5.285811 2.442834
vt -1.100827 1.437896
vt -0.031373 0.245646
vt -9.498339 1.002323
vt 0.521296 1.247226
vt -9.496507 0.000000
vt -5.621639 0.000000
vt -7.561288 0.376349
vt -2.040114 2.328576
vt -10.971889 1.253412
vt -12.108065 0.877069
vt -0.928781 1.819070
vt -0.603175 1.741328
vt -3.011501 0.949075
vt -12.108371 2.063994
vt -1.617614 0.634150
vt -1.003824 0.369920
vt -3.012351 2.317087
vt -4.149707 2.191379
vt -8.697466 2.697098
vt -6.421913 2.694290
vt -7.560105 2.317139
vt -2.562335 0.369707
vt -2.998815 1.127046
vt -7.560079 1.559131
vt -7.561116 0.966483
vt -1.954136 1.736662
vt -10.970870 0.751632
vt -4.148036 0.750079
vt -7.560779 0.125458
vt -2.562335 2.575047
vt -0.584040 0.755934
vt -9.497524 0.501781
vt -1.445568 1.572457
vt -12.108574 1.127959
vt -0.584041 1.127376
vt -3.012323 1.559079
vt -1.636748 1.248102
vt -12.108660 1.452890
vt -3.011515 2.568529
vt -1.520611 0.123307
vt -6.423585 2.191405
vt -4.148036 2.694264
vt -10.971348 2.697083
vt -2.040114 0.123235
vt -7.559270 2.568582
vt -2.998579 2.229604
vt -7.558624 0.463547
vt -1.954373 0.634104
vt -7.560608 2.064026
vt -8.697791 1.509289
vt -10.971672 1.509273
vt -9.834490 2.064010
vt -9.834780 1.452906
vt -6.422432 1.005355
vt -4.148555 1.005329
vt -5.285379 0.949102
vt -5.286201 1.559105
vt -2.476357 1.983133
vt -2.476593 0.880575
vt -2.749987 1.560942
vt -2.227765 1.314471
vt -6.422749 2.442847
vt -4.148871 2.442821
vt -5.286229 2.317113
vt -5.285392 2.568556
vt -1.100827 0.880763
vt -1.119962 1.494715
vt -0.842434 1.561203
vt -1.359221 1.314590
vt -10.971378 1.002522
vt -0.031372 1.001580
vt -9.497014 0.250890
vt 0.244962 0.368469
vt -9.498086 0.876878
vt -0.307707 0.122823
vt -9.498593 1.127768
vt -0.307706 0.878757
vt -9.497271 0.376335
vt 0.244962 1.124403
vt -9.496760 0.125445
vt -10.971124 0.877077
vt -1.378355 1.371408
vt -0.861569 1.618021
vt -0.842434 1.004069
vt -4.148454 2.568542
vt -4.149290 2.317100
vt -6.423167 2.317126
vt -2.215484 0.757339
vt -2.737704 1.003810
vt -2.737467 2.106369
vt -4.149261 1.559092
vt -4.148440 0.949088
vt -6.422321 0.943568
vt -10.971720 1.452898
vt -10.971430 2.064002
vt -8.697549 2.064018
vt -8.697834 1.447367
vt -6.423139 1.559118
vt -2.215247 1.859898
vt -6.422332 2.568569
vt -1.359221 0.757456
vt -10.971633 1.127967
s 0
usemtl マテリアル.063
f 29/57/1 42/82/1 98/150/1
f 32/63/2 45/88/2 97/149/2
f 35/68/3 48/93/3 96/148/3
f 95/147/4 2/4/4 28/56/4
f 46/89/5 37/72/5 94/146/5
f 41/80/6 38/73/6 93/145/6
f 51/98/7 50/97/7 92/144/7
f 52/99/7 53/100/7 91/143/7
f 29/57/8 54/101/8 90/142/8
f 89/141/9 19/42/9 49/95/9
f 56/103/10 57/104/10 88/140/10
f 34/66/5 58/105/5 87/139/5
f 86/138/4 10/24/4 40/78/4
f 85/137/4 23/47/4 61/108/4
f 84/136/4 20/44/4 62/109/4
f 63/110/3 36/69/3 83/135/3
f 64/111/3 65/112/3 82/134/3
f 47/90/3 66/113/3 81/133/3
f 67/114/2 33/64/2 80/132/2
f 68/115/2 69/116/2 79/131/2
f 44/85/2 70/117/2 78/130/2
f 71/118/1 30/58/1 77/129/1
f 72/119/11 73/121/11 76/127/11
f 41/79/11 74/123/11 75/125/11
f 75/125/11 26/50/11 72/119/11
f 28/55/1 72/120/1 10/25/1
f 2/5/1 75/126/1 28/55/1
f 76/127/11 9/22/11 27/52/11
f 40/77/1 27/53/1 1/1/1
f 10/25/1 76/128/1 40/77/1
f 77/129/1 3/8/1 39/75/1
f 73/122/12 39/75/12 9/21/12
f 26/51/12 77/129/12 73/122/12
f 78/130/2 25/49/2 68/115/2
f 42/81/2 68/115/2 12/28/2
f 4/9/2 78/130/2 42/81/2
f 79/131/2 13/30/2 31/60/2
f 30/59/2 31/60/2 3/6/2
f 12/28/2 79/131/2 30/59/2
f 80/132/2 7/16/2 43/83/2
f 69/116/2 43/83/2 13/30/2
f 25/49/2 80/132/2 69/116/2
f 81/133/3 24/48/3 64/111/3
f 45/87/3 64/111/3 15/34/3
f 8/20/3 81/133/3 45/87/3
f 82/134/3 16/36/3 34/66/3
f 33/65/3 34/66/3 7/17/3
f 15/34/3 82/134/3 33/65/3
f 83/135/3 5/11/3 46/89/3
f 65/112/3 46/89/3 16/36/3
f 24/48/3 83/135/3 65/112/3
f 60/107/4 62/109/4 23/47/4
f 18/39/4 84/136/4 60/107/4
f 48/92/4 50/96/4 84/136/4
f 37/71/4 61/108/4 19/41/4
f 5/12/4 85/137/4 37/71/4
f 36/70/4 60/107/4 85/137/4
f 49/94/4 40/78/4 1/2/4
f 19/41/4 86/138/4 49/94/4
f 61/108/4 59/106/4 86/138/4
f 87/139/13 22/46/13 56/103/13
f 43/84/13 56/103/13 13/31/13
f 7/17/5 87/139/5 43/84/5
f 39/76/14 57/104/14 9/23/14
f 31/61/15 39/76/15 3/7/15
f 13/31/10 88/140/10 31/61/10
f 27/54/16 49/95/16 1/3/16
f 9/23/17 89/141/17 27/54/17
f 57/104/18 55/102/18 89/141/18
f 90/142/19 21/45/19 52/99/19
f 44/86/19 52/99/19 14/32/19
f 4/10/8 90/142/8 44/86/8
f 91/143/20 17/37/20 47/91/20
f 32/62/20 47/91/20 8/18/20
f 14/32/7 91/143/7 32/62/7
f 92/144/20 6/15/20 35/67/20
f 53/100/20 35/67/20 17/37/20
f 21/45/7 92/144/7 53/100/7
f 93/145/21 20/43/21 51/98/21
f 54/101/19 51/98/19 21/45/19
f 11/27/22 93/145/22 54/101/22
f 94/146/13 19/42/13 55/102/13
f 58/105/13 55/102/13 22/46/13
f 16/36/5 94/146/5 58/105/5
f 59/106/4 28/56/4 10/24/4
f 23/47/4 95/147/4 59/106/4
f 62/109/4 38/74/4 95/147/4
f 96/148/3 18/40/3 63/110/3
f 66/113/3 63/110/3 24/48/3
f 17/38/3 96/148/3 66/113/3
f 97/149/2 15/35/2 67/114/2
f 70/117/2 67/114/2 25/49/2
f 14/33/2 97/149/2 70/117/2
f 98/150/1 12/29/1 71/118/1
f 74/124/12 71/118/12 26/51/12
f 11/27/12 98/150/12 74/124/12
f 29/57/1 4/10/1 42/82/1
f 32/63/2 8/19/2 45/88/2
f 35/68/3 6/13/3 48/93/3
f 95/147/4 38/74/4 2/4/4
f 46/89/5 5/11/5 37/72/5
f 41/80/23 2/5/23 38/73/23
f 51/98/7 20/43/7 50/97/7
f 52/99/7 21/45/7 53/100/7
f 29/57/24 11/27/24 54/101/24
f 89/141/25 55/102/25 19/42/25
f 56/103/10 22/46/10 57/104/10
f 34/66/5 16/36/5 58/105/5
f 86/138/4 59/106/4 10/24/4
f 85/137/4 60/107/4 23/47/4
f 84/136/4 50/96/4 20/44/4
f 63/110/3 18/40/3 36/69/3
f 64/111/3 24/48/3 65/112/3
f 47/90/3 17/38/3 66/113/3
f 67/114/2 15/35/2 33/64/2
f 68/115/2 25/49/2 69/116/2
f 44/85/2 14/33/2 70/117/2
f 71/118/1 12/29/1 30/58/1
f 72/119/11 26/50/11 73/121/11
f 41/79/11 11/26/11 74/123/11
f 75/125/11 74/123/11 26/50/11
f 28/55/1 75/126/1 72/120/1
f 2/5/1 41/80/1 75/126/1
f 76/127/11 73/121/11 9/22/11
f 40/77/1 76/128/1 27/53/1
f 10/25/1 72/120/1 76/128/1
f 77/129/1 30/58/1 3/8/1
f 73/122/12 77/129/12 39/75/12
f 26/51/12 71/118/12 77/129/12
f 78/130/2 70/117/2 25/49/2
f 42/81/2 78/130/2 68/115/2
f 4/9/2 44/85/2 78/130/2
f 79/131/2 69/116/2 13/30/2
f 30/59/2 79/131/2 31/60/2
f 12/28/2 68/115/2 79/131/2
f 80/132/2 33/64/2 7/16/2
f 69/116/2 80/132/2 43/83/2
f 25/49/2 67/114/2 80/132/2
f 81/133/3 66/113/3 24/48/3
f 45/87/3 81/133/3 64/111/3
f 8/20/3 47/90/3 81/133/3
f 82/134/3 65/112/3 16/36/3
f 33/65/3 82/134/3 34/66/3
f 15/34/3 64/111/3 82/134/3
f 83/135/3 36/69/3 5/11/3
f 65/112/3 83/135/3 46/89/3
f 24/48/3 63/110/3 83/135/3
f 60/107/4 84/136/4 62/109/4
f 18/39/4 48/92/4 84/136/4
f 48/92/4 6/14/4 50/96/4
f 37/71/4 85/137/4 61/108/4
f 5/12/4 36/70/4 85/137/4
f 36/70/4 18/39/4 60/107/4
f 49/94/4 86/138/4 40/78/4
f 19/41/4 61/108/4 86/138/4
f 61/108/4 23/47/4 59/106/4
f 87/139/13 58/105/13 22/46/13
f 43/84/13 87/139/13 56/103/13
f 7/17/5 34/66/5 87/139/5
f 39/76/15 88/140/15 57/104/15
f 31/61/15 88/140/15 39/76/15
f 13/31/10 56/103/10 88/140/10
f 27/54/26 89/141/26 49/95/26
f 9/23/27 57/104/27 89/141/27
f 57/104/10 22/46/10 55/102/10
f 90/142/19 54/101/19 21/45/19
f 44/86/19 90/142/19 52/99/19
f 4/10/8 29/57/8 90/142/8
f 91/143/20 53/100/20 17/37/20
f 32/62/20 91/143/20 47/91/20
f 14/32/7 52/99/7 91/143/7
f 92/144/20 50/97/20 6/15/20
f 53/100/20 92/144/20 35/67/20
f 21/45/7 51/98/7 92/144/7
f 93/145/28 38/73/28 20/43/28
f 54/101/29 93/145/29 51/98/29
f 11/27/30 41/80/30 93/145/30
f 94/146/13 37/72/13 19/42/13
f 58/105/13 94/146/13 55/102/13
f 16/36/5 46/89/5 94/146/5
f 59/106/4 95/147/4 28/56/4
f 23/47/4 62/109/4 95/147/4
f 62/109/4 20/44/4 38/74/4
f 96/148/3 48/93/3 18/40/3
f 66/113/3 96/148/3 63/110/3
f 17/38/3 35/68/3 96/148/3
f 97/149/2 45/88/2 15/35/2
f 70/117/2 97/149/2 67/114/2
f 14/33/2 32/63/2 97/149/2
f 98/150/1 42/82/1 12/29/1
f 74/124/12 98/150/12 71/118/12
f 11/27/12 29/57/12 98/150/12
