# Blender 3.5.0
# www.blender.org
mtllib house42.mtl
o 立方体.056
v -61.383888 5.230171 -88.706802
v -61.383888 11.430170 -88.706802
v -70.783897 5.230171 -88.706802
v -70.783897 11.430170 -88.706802
v -61.383888 5.230171 -96.706802
v -61.383888 11.430170 -96.706802
v -70.783897 5.230171 -96.706802
v -70.783897 11.430170 -96.706802
vn -0.0000 -0.0000 1.0000
vn -1.0000 -0.0000 -0.0000
vn -0.0000 -0.0000 -1.0000
vn 1.0000 -0.0000 -0.0000
vn -0.0000 -1.0000 -0.0000
vn -0.0000 1.0000 -0.0000
vt 1.731693 0.235630
vt 1.065026 0.235630
vt 1.065026 0.902296
vt 1.731693 0.568963
vt 1.065026 0.568963
vt 1.065026 1.235630
vt 1.065026 0.235630
vt 1.065026 0.568963
vt 1.398359 0.235630
vt 1.398359 0.568963
vt 1.065026 0.568963
vt 1.065026 0.902296
vt 1.398359 0.235630
vt 0.731693 0.568963
vt 1.398359 0.902296
vt 0.731693 0.902296
vt 1.398359 0.568963
vt 0.731693 1.235630
vt 1.065026 0.568963
vt 0.731693 0.235630
vt 1.398359 0.568963
vt 0.731693 0.902296
vt 0.731693 0.568963
vt 1.065026 0.902296
s 0
usemtl マテリアル.046
f 2/4/1 3/9/1 1/1/1
f 4/11/2 7/20/2 3/7/2
f 8/24/3 5/14/3 7/19/3
f 6/17/4 1/2/4 5/13/4
f 7/21/5 1/3/5 3/8/5
f 4/12/6 6/18/6 8/22/6
f 2/4/1 4/10/1 3/9/1
f 4/11/2 8/23/2 7/20/2
f 8/24/3 6/16/3 5/14/3
f 6/17/4 2/5/4 1/2/4
f 7/21/5 5/15/5 1/3/5
f 4/12/6 2/6/6 6/18/6
