# Blender 4.1.1
# www.blender.org
mtllib ResultEarth2.mtl
o 球.001
v 0.802826 -0.575755 -0.111661
v 0.825451 -0.731027 -0.163897
v 0.770088 -0.873451 -0.158927
v 0.614001 -0.975356 -0.104018
v 0.542253 -1.032624 0.007013
v 0.896617 -0.591602 -0.010788
v 0.853049 -0.744642 -0.016758
v 0.824767 -0.911315 -0.040481
v 0.656670 -1.006434 -0.011237
v 0.475499 -1.066789 0.028121
v 0.736829 -0.551329 0.212455
v 0.892128 -0.647333 0.139346
v 0.934637 -0.784544 0.114516
v 0.843112 -0.933457 0.093948
v 0.677070 -1.026518 0.092843
v 0.488703 -1.080306 0.100205
v 0.724381 -0.561000 0.397803
v 0.902006 -0.679094 0.308081
v 0.981642 -0.826633 0.262395
v 0.848366 -0.953749 0.229454
v 0.675276 -1.039756 0.200931
v 0.487468 -1.089424 0.174657
v 0.765470 -0.539167 0.559069
v 0.928580 -0.674854 0.475650
v 0.964866 -0.847189 0.417809
v 0.820765 -0.964837 0.364475
v 0.652788 -1.048080 0.307169
v 0.471978 -1.095158 0.247835
v 0.778054 -0.549947 0.700520
v 0.922447 -0.687038 0.627940
v 0.903046 -0.852093 0.567089
v 0.766904 -0.968770 0.492140
v 0.610470 -1.051171 0.407475
v 0.442828 -1.097287 0.316927
v 0.900384 -0.701209 0.778573
v 0.815330 -0.849766 0.703068
v 0.689873 -0.965891 0.607347
v 0.549947 -1.048909 0.497993
v 0.401140 -1.095729 0.379277
v 0.794950 -0.692465 0.909660
v 0.701197 -0.838600 0.818753
v 0.592633 -0.956311 0.705670
v 0.473547 -1.041381 0.575244
v 0.348514 -1.090544 0.432489
v 0.665377 -0.307476 1.007569
v 0.662946 -0.455025 0.968494
v 0.634746 -0.650144 0.980123
v 0.566547 -0.813575 0.903425
v 0.478766 -0.936888 0.780788
v 0.384226 -1.028397 0.636031
v 0.286973 -1.081931 0.474518
v 0.560634 -0.268185 1.113137
v 0.518638 -0.441025 1.082065
v 0.471203 -0.612211 1.033348
v 0.413664 -0.753893 0.931356
v 0.350953 -0.863296 0.798107
v 0.286439 -0.984862 0.665597
v 0.218883 -1.070222 0.503749
v 0.395867 -0.244458 1.212434
v 0.353081 -0.429028 1.179169
v 0.308229 -0.609054 1.119147
v 0.262953 -0.762560 1.006117
v 0.219715 -0.884766 0.860286
v 0.181471 -0.976068 0.693772
v 0.146860 -1.055866 0.519059
v 0.206792 -0.206449 1.243102
v 0.166232 -0.393396 1.200265
v 0.131536 -0.569337 1.121079
v 0.104036 -0.727510 1.008586
v 0.084790 -0.861836 0.867110
v 0.074537 -0.967153 0.702087
v 0.019845 -0.159637 1.207197
v -0.017122 -0.347485 1.165051
v -0.041180 -0.526089 1.087908
v -0.051404 -0.688588 0.978733
v -0.047401 -0.828735 0.841722
v -0.029325 -0.941146 0.682140
v 0.176363 -0.541849 -0.330998
v 0.274882 -0.581615 -0.336486
v 0.369435 -0.634222 -0.343051
v 0.481266 -0.511790 -0.304368
v 0.473043 -0.693967 -0.339358
v 0.541085 -0.587999 -0.212540
v 0.584048 -0.757059 -0.312013
v 0.657711 -0.594126 -0.153619
v 0.789485 -0.698917 -0.308490
v 0.687977 -0.819578 -0.252677
v 0.802826 -0.575755 -0.111661
v 0.825451 -0.731027 -0.163897
v 0.770088 -0.873451 -0.158927
v 0.614001 -0.975356 -0.104018
v 0.475499 -1.066789 0.028121
vn 0.9670 0.1958 -0.1633
vn 0.8932 -0.0888 -0.4407
vn 0.3746 -0.8135 -0.4448
vn -0.0286 -0.4844 -0.8744
vn 0.8421 0.3371 -0.4209
vn 0.9771 -0.1435 -0.1570
vn 0.4740 -0.8427 -0.2555
vn 0.2638 -0.9381 -0.2242
vn 0.8535 -0.5095 -0.1094
vn 0.4870 -0.8678 -0.0982
vn 0.2687 -0.9566 -0.1127
vn 0.5626 0.8179 0.1210
vn 0.8554 0.5017 -0.1291
vn 0.5141 0.8515 -0.1031
vn 0.8887 0.4323 0.1531
vn 0.6778 -0.7310 0.0785
vn 0.4418 -0.8968 0.0232
vn 0.2584 -0.9658 -0.0210
vn 0.5685 -0.7940 0.2154
vn 0.4005 -0.9054 0.1411
vn 0.2306 -0.9707 0.0674
vn 0.6628 0.7438 0.0862
vn 0.9212 0.0652 0.3836
vn 0.8027 -0.2871 0.5227
vn 0.4918 -0.7978 0.3487
vn 0.3414 -0.9058 0.2509
vn 0.1866 -0.9711 0.1490
vn 0.2626 -0.9002 0.3474
vn 0.1280 -0.9669 0.2208
vn 0.5364 -0.6058 0.5877
vn 0.3874 -0.7984 0.4609
vn 0.3840 -0.5187 0.7639
vn 0.2568 -0.7673 0.5877
vn 0.1735 -0.8797 0.4428
vn 0.0586 -0.9576 0.2821
vn 0.0411 -0.8908 0.4526
vn 0.5909 -0.2156 0.7774
vn 0.3119 0.0115 0.9501
vn -0.0004 -0.4247 0.9053
vn -0.2381 -0.5944 0.7681
vn -0.1657 -0.7811 0.6020
vn 0.4252 -0.3798 0.8216
vn 0.3716 -0.6371 0.6753
vn 0.3601 -0.7970 0.4849
vn 0.1090 -0.7584 0.6427
vn -0.0697 -0.8701 0.4880
vn 0.4742 -0.2614 0.8407
vn 0.0644 -0.2361 0.9696
vn -0.0577 -0.3028 0.9513
vn -0.1115 -0.5630 0.8189
vn -0.0868 -0.7165 0.6921
vn -0.0283 -0.8418 0.5390
vn -0.2851 -0.5221 0.8038
vn -0.2984 -0.6716 0.6782
vn -0.3003 -0.7955 0.5263
vn -0.2269 -0.1705 0.9589
vn -0.2609 -0.3529 0.8985
vn 0.6328 0.7742 0.0145
vn -0.2536 0.9667 0.0334
vn 0.5846 0.6916 0.4241
vn -0.8301 -0.0697 -0.5533
vn -0.1946 0.7275 -0.6579
vn 0.1884 0.9806 -0.0538
vn -0.7471 0.5516 -0.3709
vn 0.7073 -0.1746 -0.6850
vn 0.9100 -0.3609 -0.2041
vn 0.3841 -0.8132 -0.4373
vn 0.1496 -0.9148 -0.3752
vn 0.9600 -0.2705 -0.0717
vn 0.7334 -0.3722 -0.5689
vn 0.4548 -0.8667 -0.2048
vn 0.2587 -0.9378 -0.2317
vn 0.6838 -0.6152 -0.3924
vn 0.4596 -0.8756 -0.1489
vn 0.5800 0.8106 0.0812
vn 0.9552 0.2960 -0.0002
vn 0.5420 0.8033 -0.2468
vn 0.9543 0.2539 -0.1578
vn 0.6393 -0.7683 -0.0326
vn 0.4396 -0.8981 0.0161
vn 0.5676 -0.7964 0.2089
vn 0.6870 0.7266 -0.0057
vn 0.9914 -0.1275 0.0297
vn 0.8485 -0.5239 0.0750
vn 0.4923 -0.8049 0.3313
vn 0.5590 -0.6659 0.4940
vn 0.3877 -0.7991 0.4596
vn 0.1832 -0.6013 0.7777
vn 0.2266 -0.7753 0.5895
vn 0.1432 -0.8837 0.4456
vn 0.0534 -0.9576 0.2830
vn -0.2519 -0.8631 0.4377
vn 0.6262 -0.2828 0.7266
vn 0.5533 -0.3662 0.7482
vn 0.1135 -0.6104 0.7839
vn -0.1604 -0.7245 0.6703
vn -0.2710 -0.6399 0.7190
vn 0.4530 -0.3579 0.8165
vn 0.3561 -0.6199 0.6992
vn 0.3180 -0.7710 0.5518
vn 0.3277 -0.8581 0.3953
vn 0.0336 -0.9116 0.4097
vn 0.4693 -0.2654 0.8422
vn 0.1170 -0.2024 0.9723
vn 0.0237 -0.4142 0.9099
vn -0.1183 -0.5659 0.8159
vn -0.1518 -0.7350 0.6609
vn -0.1207 -0.8585 0.4984
vn 0.2213 0.3398 -0.9141
vn 0.5990 0.7447 0.2944
vn 0.2008 0.9791 -0.0329
vn -0.0981 0.9907 -0.0946
vn 0.8900 0.3575 -0.2831
vn 0.5295 0.8391 -0.1245
vn -0.7818 0.6127 0.1162
vn 0.1231 0.9823 -0.1414
vn 0.8840 0.4655 -0.0432
vn 0.4018 -0.0035 0.9157
vn 0.8939 -0.1285 0.4295
vn 0.7220 0.6710 0.1689
vn 0.8744 0.4309 0.2230
vn 0.0882 0.8993 -0.4282
vn 0.0048 0.7123 -0.7019
vn -0.0125 0.6988 -0.7152
vn -0.2877 0.5465 -0.7865
vn -0.5294 0.3955 -0.7506
vn -0.6859 0.2852 -0.6694
vn -0.9180 -0.3915 -0.0632
vn -0.9474 -0.2335 -0.2188
vn -0.0397 0.8922 -0.4499
vn -0.9199 -0.0452 -0.3895
vn -0.7641 0.2282 -0.6034
vn -0.2337 0.8268 -0.5117
vn -0.5556 0.5703 -0.6051
vn 0.4753 0.5328 -0.7002
vn 0.1389 0.1807 -0.9737
vn 0.8582 0.0592 -0.5099
vn 0.0569 0.2735 -0.9602
vn 0.0682 0.2434 -0.9675
vn 0.3699 -0.6279 -0.6848
vn 0.1625 -0.5236 -0.8363
vn 0.8858 -0.3548 -0.2991
vn 0.4024 0.5381 -0.7406
vn -0.1709 0.8559 -0.4881
vn -0.0248 0.7634 -0.6454
vn 0.2352 0.9711 0.0414
vn -0.5499 0.6857 -0.4769
vn -0.8033 -0.5451 0.2399
vn -0.1118 0.2926 0.9497
vn -0.9304 0.3105 0.1950
vn -0.5119 0.8502 0.1229
vn -0.4890 -0.8702 -0.0603
vn -0.4627 -0.8808 -0.1009
vn -0.5002 -0.8653 0.0340
vn -0.3443 -0.7811 -0.5208
vn -0.4886 -0.8701 -0.0650
vt 0.074654 0.133111
vt -0.006993 0.345329
vt 0.016061 0.000000
vt -0.040331 0.023361
vt -0.071254 0.292902
vt 0.486071 2.049959
vt 0.535471 1.646163
vt 0.555234 1.883160
vt 0.580729 1.597213
vt 0.609077 1.535585
vt 0.013787 0.711018
vt -0.041309 0.638904
vt -0.095990 0.609946
vt 0.444635 1.416820
vt 0.521327 1.388043
vt 0.599567 1.357033
vt 0.385498 1.426892
vt 0.433308 1.084363
vt 0.514083 1.124424
vt 0.594577 1.175449
vt 0.263016 1.605733
vt 0.185002 2.030104
vt 0.160644 1.855988
vt -0.018327 1.112157
vt -0.076899 0.980762
vt 0.305855 1.748754
vt 0.213319 2.233708
vt -0.101830 1.356764
vt 0.360730 1.053418
vt 0.432931 0.758691
vt 0.514014 0.868386
vt 0.594529 0.999087
vt 0.355872 0.674449
vt 0.441977 0.454989
vt 0.521121 0.629770
vt 0.599425 0.834725
vt 0.016763 1.749146
vt -0.057925 1.872962
vt -0.036311 1.506941
vt -0.117781 1.729456
vt -0.128207 2.076808
vt 0.366061 0.319135
vt 0.459811 0.185131
vt 0.535134 0.417744
vt 0.609077 0.688679
vt -0.859069 2.280496
vt -0.942168 2.147621
vt -0.853692 2.057180
vt -0.766014 1.937747
vt -0.769718 2.091570
vt -1.109352 2.554133
vt -1.028040 2.205595
vt -1.036014 2.539355
vt -0.949011 2.431850
vt -1.077717 1.810090
vt -1.007402 1.842181
vt -0.925321 1.838912
vt -0.840576 1.815240
vt -0.756959 1.771182
vt -0.821679 1.557046
vt -0.742902 1.598278
vt 0.065885 2.851548
vt 0.009269 3.064131
vt 0.010047 2.756270
vt -1.117016 1.737730
vt -1.041259 1.400491
vt -0.971797 1.458253
vt -0.897969 1.505446
vt -1.068286 0.912241
vt -1.007500 0.992629
vt -0.937477 1.092838
vt -0.865017 1.199438
vt -0.794159 1.309810
vt -0.724382 1.425678
vt -1.098578 1.340337
vt -1.122297 0.844330
vt -1.071303 0.398133
vt -1.015222 0.479591
vt -0.953732 0.592684
vt -0.889193 0.733063
vt -0.824088 0.895336
vt -0.760918 1.073266
vt -0.892974 0.224856
vt -0.834513 0.402027
vt -0.777586 0.613813
vt -0.724381 0.852075
vt -0.950722 0.089108
vt 0.199295 1.121528
vt 0.094244 1.456220
vt 0.085111 1.251932
vt 0.231804 0.835907
vt -0.086007 2.579040
vt -0.079494 2.238921
vt -0.003867 2.084605
vt 0.681300 2.158784
vt 0.617885 1.419794
vt 0.702353 2.297889
vt 0.144479 0.844329
vt -0.251534 2.023910
vt -0.357759 1.730058
vt -0.465341 1.185218
vt -0.724381 2.138584
vt -0.516127 1.463463
vt -0.595878 2.794678
vt 0.053021 0.351246
vt 0.460486 1.748169
vt 0.332454 1.974245
vt 0.386075 0.000000
vt -1.107898 2.228776
vt 0.074654 3.130862
vt -1.149802 1.280842
vt -1.005539 0.000000
vt 0.159480 1.446716
vt 0.141985 1.725441
vt 0.256124 0.628435
vt 0.355872 2.127588
vt -0.069760 2.788040
vt 0.638832 1.875927
vt 0.633389 1.838555
vt 0.609077 1.400746
vt 0.611955 1.044568
vt 0.627192 0.690860
vt 0.660419 0.391617
vt 0.710359 0.158343
vt 0.775093 0.000000
vt 0.775093 2.776256
vt 0.750169 2.612674
vt 0.725607 2.451149
vt 0.648917 1.943669
vt 0.663257 2.039178
vt 0.198442 0.594109
vt 0.253886 0.380178
vt 0.306123 0.194042
vt 0.355872 0.000000
vt 0.074654 1.361158
vt 0.100411 1.109260
vt -0.430293 1.430117
vt -0.128207 0.000000
vt -0.128207 2.275050
vt -0.465341 0.000000
vt -0.515774 1.077713
vt -0.465341 3.146662
vt -0.503135 3.189133
vt -0.655276 2.646085
vt -0.554295 3.158580
vt -0.574539 3.018694
vt -0.509803 3.206764
vt -0.521926 3.226031
vt -0.536879 3.220727
s 0
usemtl マテリアル.002
f 1/1/1 7/2/1 2/3/1
f 3/4/2 7/2/2 8/5/2
f 3/6/3 9/7/3 4/8/3
f 5/9/4 9/7/4 10/10/4
f 7/2/5 12/11/5 13/12/5
f 7/2/6 14/13/6 8/5/6
f 9/7/7 14/14/7 15/15/7
f 9/7/8 16/16/8 10/10/8
f 13/17/9 20/18/9 14/14/9
f 14/14/10 21/19/10 15/15/10
f 15/15/11 22/20/11 16/16/11
f 11/21/12 18/22/12 12/23/12
f 13/12/13 18/24/13 19/25/13
f 17/26/14 24/27/14 18/22/14
f 18/24/15 25/28/15 19/25/15
f 19/29/16 26/30/16 20/18/16
f 20/18/17 27/31/17 21/19/17
f 21/19/18 28/32/18 22/20/18
f 25/33/19 32/34/19 26/30/19
f 27/31/20 32/34/20 33/35/20
f 27/31/21 34/36/21 28/32/21
f 23/37/22 30/38/22 24/39/22
f 24/39/23 31/40/23 25/28/23
f 30/38/24 36/41/24 31/40/24
f 31/42/25 37/43/25 32/34/25
f 33/35/26 37/43/26 38/44/26
f 33/35/27 39/45/27 34/36/27
f 38/46/28 42/47/28 43/48/28
f 38/46/29 44/49/29 39/50/29
f 35/51/30 41/52/30 36/53/30
f 36/53/31 42/47/31 37/54/31
f 41/52/32 47/55/32 48/56/32
f 42/47/33 48/56/33 49/57/33
f 43/48/34 49/57/34 50/58/34
f 44/49/35 50/58/35 51/59/35
f 51/59/36 57/60/36 58/61/36
f 45/62/37 53/63/37 46/64/37
f 46/65/38 54/66/38 47/55/38
f 47/55/39 55/67/39 48/56/39
f 48/56/40 56/68/40 49/57/40
f 49/57/41 57/60/41 50/58/41
f 54/66/42 60/69/42 61/70/42
f 54/66/43 62/71/43 55/67/43
f 55/67/44 63/72/44 56/68/44
f 56/68/45 64/73/45 57/60/45
f 57/60/46 65/74/46 58/61/46
f 53/75/47 59/76/47 60/69/47
f 60/69/48 66/77/48 67/78/48
f 60/69/49 68/79/49 61/70/49
f 62/71/50 68/79/50 69/80/50
f 63/72/51 69/80/51 70/81/51
f 64/73/52 70/81/52 71/82/52
f 69/80/53 74/83/53 75/84/53
f 69/80/54 76/85/54 70/81/54
f 71/82/55 76/85/55 77/86/55
f 66/77/56 73/87/56 67/78/56
f 67/78/57 74/83/57 68/79/57
f 85/88/58 89/89/58 86/90/58
f 17/26/59 11/21/59 83/91/59
f 40/92/60 35/93/60 29/94/60
f 39/95/61 64/96/61 34/97/61
f 85/88/62 86/90/62 84/98/62
f 66/99/63 59/100/63 45/101/63
f 16/102/64 17/103/64 90/104/64
f 1/1/65 6/105/65 7/2/65
f 3/4/66 2/3/66 7/2/66
f 3/6/67 8/106/67 9/7/67
f 5/9/68 4/8/68 9/7/68
f 7/2/69 6/105/69 12/11/69
f 7/2/70 13/12/70 14/13/70
f 9/7/71 8/106/71 14/14/71
f 9/7/72 15/15/72 16/16/72
f 13/17/73 19/29/73 20/18/73
f 14/14/74 20/18/74 21/19/74
f 15/15/11 21/19/11 22/20/11
f 11/21/75 17/26/75 18/22/75
f 13/12/76 12/11/76 18/24/76
f 17/26/77 23/107/77 24/27/77
f 18/24/78 24/39/78 25/28/78
f 19/29/79 25/33/79 26/30/79
f 20/18/80 26/30/80 27/31/80
f 21/19/18 27/31/18 28/32/18
f 25/33/81 31/42/81 32/34/81
f 27/31/20 26/30/20 32/34/20
f 27/31/21 33/35/21 34/36/21
f 23/37/82 29/94/82 30/38/82
f 24/39/83 30/38/83 31/40/83
f 30/38/84 35/93/84 36/41/84
f 31/42/85 36/108/85 37/43/85
f 33/35/26 32/34/26 37/43/26
f 33/35/27 38/44/27 39/45/27
f 38/46/28 37/54/28 42/47/28
f 38/46/29 43/48/29 44/49/29
f 35/51/86 40/109/86 41/52/86
f 36/53/87 41/52/87 42/47/87
f 41/52/88 40/109/88 47/55/88
f 42/47/89 41/52/89 48/56/89
f 43/48/90 42/47/90 49/57/90
f 44/49/91 43/48/91 50/58/91
f 51/59/92 50/58/92 57/60/92
f 45/62/93 52/110/93 53/63/93
f 46/65/94 53/75/94 54/66/94
f 47/55/95 54/66/95 55/67/95
f 48/56/96 55/67/96 56/68/96
f 49/57/97 56/68/97 57/60/97
f 54/66/98 53/75/98 60/69/98
f 54/66/99 61/70/99 62/71/99
f 55/67/100 62/71/100 63/72/100
f 56/68/101 63/72/101 64/73/101
f 57/60/102 64/73/102 65/74/102
f 53/75/103 52/111/103 59/76/103
f 60/69/104 59/76/104 66/77/104
f 60/69/105 67/78/105 68/79/105
f 62/71/106 61/70/106 68/79/106
f 63/72/107 62/71/107 69/80/107
f 64/73/108 63/72/108 70/81/108
f 69/80/53 68/79/53 74/83/53
f 69/80/54 75/84/54 76/85/54
f 71/82/55 70/81/55 76/85/55
f 66/77/56 72/112/56 73/87/56
f 67/78/57 73/87/57 74/83/57
f 85/88/109 88/113/109 89/89/109
f 11/21/110 12/23/110 6/114/110
f 6/114/111 88/113/111 11/21/111
f 88/113/112 85/88/112 11/21/112
f 83/91/113 81/115/113 17/26/113
f 81/115/114 29/116/114 17/26/114
f 17/26/115 29/116/115 23/107/115
f 85/88/116 83/91/116 11/21/116
f 29/94/117 23/37/117 45/62/117
f 46/64/118 47/117/118 40/92/118
f 29/94/119 45/62/119 46/64/119
f 35/93/120 30/38/120 29/94/120
f 46/64/121 40/92/121 29/94/121
f 58/118/122 65/119/122 64/96/122
f 64/96/123 71/120/123 76/121/123
f 76/121/124 75/122/124 64/96/124
f 75/122/125 74/123/125 64/96/125
f 74/123/126 73/124/126 64/96/126
f 73/124/127 72/125/127 64/96/127
f 72/125/128 16/126/128 22/127/128
f 72/125/129 22/127/129 28/128/129
f 51/129/130 58/118/130 64/96/130
f 72/125/131 28/128/131 34/97/131
f 72/125/132 34/97/132 64/96/132
f 51/129/133 64/96/133 44/130/133
f 44/130/134 64/96/134 39/95/134
f 84/98/135 82/131/135 83/91/135
f 82/131/136 80/132/136 81/115/136
f 83/91/137 82/131/137 81/115/137
f 79/133/138 78/134/138 81/115/138
f 80/132/139 79/133/139 81/115/139
f 90/135/140 87/136/140 86/90/140
f 87/136/141 84/98/141 86/90/141
f 86/90/142 89/89/142 90/135/142
f 83/91/143 85/88/143 84/98/143
f 59/100/144 52/137/144 45/101/144
f 45/101/145 16/138/145 72/139/145
f 72/139/146 66/99/146 45/101/146
f 16/102/147 45/140/147 23/141/147
f 17/103/148 81/142/148 90/104/148
f 81/142/149 78/143/149 90/104/149
f 16/102/150 23/141/150 17/103/150
f 90/104/151 91/144/151 16/102/151
f 84/145/152 87/146/152 79/147/152
f 87/146/153 90/104/153 78/143/153
f 80/148/154 82/149/154 84/145/154
f 78/143/155 79/147/155 87/146/155
f 79/147/156 80/148/156 84/145/156
