# Blender 3.5.0
# www.blender.org
mtllib house1.mtl
o 立方体
v -154.551422 -4.425990 85.305923
v -154.551422 19.357258 85.305923
v -154.551422 -0.642743 31.305927
v -154.551422 19.357258 31.305927
v -106.551422 -0.642743 85.305923
v -106.551422 19.357258 85.305923
v -106.551422 -0.642743 31.305927
v -106.551422 19.357258 31.305927
v -154.551422 -0.642743 58.305927
v -154.551422 9.357257 85.305923
v -154.551422 19.357258 58.305927
v -154.551422 9.357257 31.305927
v -130.551422 -0.642743 31.305927
v -130.551422 19.357258 31.305927
v -106.551422 10.297282 31.305927
v -106.551422 -0.642743 58.305927
v -106.551422 19.357258 56.132397
v -106.551422 9.357257 85.305923
v -130.551422 -3.713093 85.305923
v -130.551422 19.357258 85.305923
v -130.551422 19.357258 58.305927
v -130.551422 -0.642743 58.305927
v -130.551422 9.357257 85.305923
v -106.551422 9.886887 56.323925
v -130.551422 10.266336 31.305927
v -154.551422 9.357257 58.305927
v -154.551422 -0.642743 71.805923
v -154.551422 14.357257 85.305923
v -154.551422 19.357258 44.805927
v -154.551422 4.357257 31.305927
v -142.551422 -0.642743 31.305927
v -118.551422 19.357258 31.305927
v -106.551422 4.357257 31.305927
v -106.551422 -0.642743 47.910519
v -106.551422 19.357258 62.831974
v -106.551422 0.888973 85.305923
v -118.551422 -3.713093 85.305923
v -142.551422 19.357258 85.305923
v -154.551422 -0.642743 44.805927
v -154.551422 0.574010 85.305923
v -154.551422 19.357258 71.805923
v -154.551422 14.357257 31.305927
v -118.551422 -0.642743 31.305927
v -142.551422 19.357258 31.305927
v -106.551422 14.357257 31.305927
v -106.551422 -0.642743 71.805923
v -106.551422 19.357258 47.736679
v -106.551422 14.357257 85.305923
v -142.551422 -3.713093 85.305923
v -118.551422 19.357258 85.305923
v -130.551422 19.357258 71.805923
v -130.551422 19.357258 44.805927
v -118.551422 19.357258 58.305927
v -142.551422 19.357258 58.305927
v -130.551422 -0.642743 71.805923
v -130.551422 -0.642743 44.805927
v -142.551422 -0.642743 58.305927
v -118.551422 -0.642743 58.305927
v -142.551422 9.357257 85.305923
v -118.551422 9.357257 85.305923
v -130.551422 0.574010 85.305923
v -130.551422 14.357257 85.305923
v -106.551422 9.864532 62.731800
v -106.551422 10.532522 47.765537
v -106.551422 0.908908 56.323925
v -106.551422 14.357257 56.132397
v -118.551422 9.357257 31.305927
v -142.551422 10.266336 31.305927
v -130.551422 4.357257 31.305927
v -130.551422 14.357257 31.305927
v -154.551422 9.357257 44.805927
v -154.551422 9.357257 71.805923
v -154.551422 4.357257 58.305927
v -154.551422 14.357257 58.305927
v -154.551422 14.357257 71.805923
v -154.551422 4.357257 71.805923
v -154.551422 4.357257 44.805927
v -142.551422 14.357257 31.305927
v -142.551422 4.357257 31.305927
v -118.551422 4.357257 31.305927
v -106.551422 14.357257 47.736679
v -106.551422 4.357257 47.765537
v -106.551422 0.879446 62.731800
v -118.551422 14.357257 85.305923
v -118.551422 0.574010 85.305923
v -142.551422 0.574010 85.305923
v -118.551422 -0.642743 44.805927
v -142.551422 -0.642743 44.805927
v -142.551422 -0.642743 71.805923
v -142.551422 19.357258 44.805927
v -118.551422 19.357258 44.805927
v -118.551422 19.357258 71.805923
v -142.551422 19.357258 71.805923
v -118.551422 -0.642743 71.805923
v -142.551422 14.357257 85.305923
v -106.551422 14.357257 62.831974
v -118.551422 14.357257 31.305927
v -154.551422 14.357257 44.805927
v -111.830978 9.886887 56.323925
v -111.830978 9.864532 62.731800
v -111.830978 0.908908 56.323925
v -111.830978 0.879446 62.731800
v -154.551422 19.357258 38.055927
v -106.551422 -0.642743 38.055927
v -154.551422 9.357257 38.055927
v -154.551422 -0.642743 38.055927
v -106.551422 19.357258 38.055927
v -130.551422 19.357258 38.055927
v -130.551422 -0.642743 38.055927
v -106.551422 10.532522 38.055927
v -154.551422 4.357257 38.055927
v -106.551422 14.357257 38.055927
v -106.551422 4.357257 38.055927
v -118.551422 -0.642743 38.055927
v -142.551422 -0.642743 38.055927
v -142.551422 19.357258 38.055927
v -118.551422 19.357258 38.055927
v -154.551422 14.357257 38.055927
v -154.551422 -0.642743 41.430927
v -106.551422 19.357258 42.914246
v -130.551422 19.357258 41.430927
v -130.551422 -0.642743 41.430927
v -106.551422 10.532522 42.946365
v -106.551422 14.357257 42.929813
v -106.551422 4.357257 42.946365
v -118.551422 -0.642743 41.430927
v -142.551422 -0.642743 41.430927
v -142.551422 19.357258 41.430927
v -118.551422 19.357258 41.430927
v -154.551422 19.357258 41.430927
v -106.551422 -0.642743 42.935333
v -154.551422 9.357257 41.430927
v -154.551422 4.357257 41.430927
v -154.551422 14.357257 41.430927
v -154.551422 -0.642743 43.118427
v -106.551422 19.357258 43.118427
v -130.551422 19.357258 43.118427
v -130.551422 -0.642743 43.118427
v -106.551422 10.532522 43.118427
v -106.551422 14.357257 43.118427
v -106.551422 4.357257 43.118427
v -118.551422 -0.642743 43.118427
v -142.551422 -0.642743 43.118427
v -142.551422 19.357258 43.118427
v -118.551422 19.357258 43.118427
v -154.551422 19.357258 43.118427
v -106.551422 -0.642743 43.118427
v -154.551422 9.357257 43.118427
v -154.551422 4.357257 43.118427
v -154.551422 14.357257 43.118427
v -114.414864 10.532522 43.118427
v -114.414864 10.532522 47.765537
v -114.414864 4.357257 43.118427
v -114.414864 4.357257 47.765537
v -114.414864 10.532522 38.055927
v -114.414864 4.357257 38.055927
v -114.414864 10.532522 42.946365
v -114.414864 4.357257 42.946365
v -136.551422 19.357258 31.305927
v -136.551422 -3.713093 85.305923
v -136.551422 19.357258 58.305927
v -136.551422 10.266336 31.305927
v -136.551422 -0.642743 31.305927
v -136.551422 19.357258 85.305923
v -136.551422 -0.642743 58.305927
v -136.551422 9.357257 85.305923
v -136.551422 14.357257 31.305927
v -136.551422 4.357257 31.305927
v -136.551422 0.574010 85.305923
v -136.551422 -0.642743 44.805927
v -136.551422 -0.642743 71.805923
v -136.551422 19.357258 44.805927
v -136.551422 19.357258 71.805923
v -136.551422 14.357257 85.305923
v -136.551422 19.357258 38.055927
v -136.551422 -0.642743 38.055927
v -136.551422 19.357258 41.430927
v -136.551422 -0.642743 41.430927
v -136.551422 19.357258 43.118427
v -136.551422 -0.642743 43.118427
v -139.551422 -0.642743 31.305927
v -139.551422 19.357258 85.305923
v -139.551422 -0.642743 58.305927
v -139.551422 9.357257 85.305923
v -139.551422 0.574010 85.305923
v -139.551422 -0.642743 44.805927
v -139.551422 -0.642743 71.805923
v -139.551422 14.357257 85.305923
v -139.551422 -0.642743 38.055927
v -139.551422 -0.642743 41.430927
v -139.551422 -0.642743 43.118427
v -139.551422 19.357258 31.305927
v -139.551422 -3.713093 85.305923
v -139.551422 19.357258 58.305927
v -136.745300 10.266336 31.305927
v -139.551422 14.357257 31.305927
v -136.745300 4.357257 31.305927
v -139.551422 19.357258 44.805927
v -139.551422 19.357258 71.805923
v -139.551422 19.357258 38.055927
v -139.551422 19.357258 41.430927
v -139.551422 19.357258 43.118427
v -136.551422 10.266336 38.810982
v -130.551422 10.266336 38.810982
v -130.551422 4.357257 38.810982
v -136.551422 4.357257 38.810982
v -142.551422 10.266336 38.810982
v -142.551422 4.357257 38.810982
v -136.745300 10.266336 38.810982
v -136.745300 4.357257 38.810982
vn -1.0000 -0.0000 -0.0000
vn -0.0000 -0.0000 -1.0000
vn 1.0000 -0.0000 -0.0000
vn -0.0000 -0.0000 1.0000
vn 0.1261 -0.9857 -0.1121
vn -0.0000 1.0000 -0.0000
vn -0.0000 -0.9751 -0.2218
vn -0.0000 -1.0000 -0.0000
vn 0.0288 -0.9689 -0.2459
vn -0.0000 -1.0000 -0.0035
vn -0.0000 1.0000 0.0046
vt -3.175873 0.000000
vt -11.518004 0.000000
vt -7.342133 2.286021
vt -11.518004 2.286021
vt 1.000000 4.208400
vt -3.175874 2.286021
vt -7.346939 0.363642
vt 0.995193 0.000000
vt -7.345660 4.224847
vt -7.346939 2.286021
vt 0.995192 1.922379
vt 1.000000 2.286021
vt -11.518004 2.305122
vt -7.342133 2.286021
vt -7.346939 0.363642
vt -7.342133 4.208400
vt -7.346941 2.286021
vt -3.171066 4.208400
vt -3.175874 0.000000
vt -11.516647 4.224847
vt -3.171065 2.286021
vt -3.175874 1.922379
vt -3.171065 2.286021
vt -3.171066 4.208400
vt -5.261406 0.363642
vt -7.346341 3.264985
vt -3.175874 1.324831
vt -11.518004 1.324831
vt 1.000000 3.247211
vt -5.261407 2.286021
vt 0.995192 0.961190
vt -7.346939 1.324831
vt -1.090341 0.000000
vt -9.431155 4.224847
vt -1.090341 1.922379
vt -1.085532 2.286021
vt -3.175874 1.051544
vt -3.171065 3.337565
vt -5.256598 2.286021
vt -11.517326 3.264985
vt -3.171065 3.169833
vt -5.088710 4.208400
vt -7.346939 1.324831
vt -7.342133 3.247210
vt -9.428546 2.289620
vt -9.432473 0.068523
vt -9.432473 2.286021
vt -1.085532 4.208400
vt -1.085532 3.247210
vt -9.431833 3.264985
vt -9.432473 1.324831
vt -3.196371 5.071354
vt -5.103505 3.298118
vt -8.590126 4.491788
vt -2.616667 4.776375
vt -1.090341 1.048569
vt -2.133118 1.922458
vt -5.261406 1.324831
vt -4.218639 0.363642
vt -7.346682 2.785054
vt -3.175874 1.805426
vt -11.518004 1.805426
vt 1.000000 2.766616
vt -6.304173 2.286021
vt -7.346939 0.844236
vt 0.995192 0.480595
vt -0.047574 0.000000
vt -8.388407 4.224847
vt -2.133108 1.922379
vt -2.128298 2.286021
vt -3.175874 0.480595
vt -3.171065 2.766616
vt -4.453637 2.286021
vt -11.517062 3.634547
vt -3.171065 3.408336
vt -5.606199 4.208400
vt -7.342133 2.433248
vt -7.346939 0.510869
vt -8.389706 0.068523
vt -10.471291 2.289620
vt -0.042766 4.208400
vt -10.475240 2.286021
vt -7.346002 3.744916
vt -6.304173 0.363642
vt -3.175873 0.480595
vt -11.518004 0.480595
vt -4.218639 2.286021
vt 1.000000 3.727805
vt 0.995192 1.441785
vt -7.346939 1.805426
vt -2.133107 0.000000
vt -10.473901 4.224847
vt -0.042766 2.286021
vt -0.047574 1.922379
vt -3.175874 1.441784
vt -3.171066 3.727805
vt -6.299365 2.286021
vt -11.517666 2.785054
vt -4.440209 4.208400
vt -3.171065 2.870949
vt -7.346941 1.805426
vt -7.342133 3.727805
vt -10.475240 0.068523
vt -8.385799 2.289620
vt -8.389707 2.286021
vt -2.128298 4.208400
vt -1.085532 3.727805
vt -1.085532 2.766615
vt -2.128298 3.247210
vt -0.042766 3.247211
vt -9.432175 2.785054
vt -9.431493 3.744916
vt -8.389087 3.264985
vt -10.474580 3.264985
vt -10.475240 1.324831
vt -8.389707 1.324831
vt -9.432473 0.480595
vt -9.432473 1.805426
vt -5.598462 3.295969
vt -8.590126 4.719704
vt -4.113930 5.072037
vt -4.442438 3.360176
vt -6.847174 4.801960
vt -7.808192 4.539823
vt -5.103504 2.435164
vt -3.196371 4.208400
vt -1.755370 1.922379
vt -5.088710 3.727805
vt -2.133107 0.961190
vt -0.047574 1.048570
vt -9.048895 4.224847
vt -10.938301 4.792822
vt -2.616667 4.208400
vt -1.090341 0.480595
vt -3.175873 1.922379
vt -1.090341 1.441784
vt -6.304173 1.324831
vt -4.218639 1.324831
vt -5.261406 0.844236
vt -5.261407 1.805426
vt -4.218639 1.805426
vt -4.218639 0.844236
vt -6.304173 0.844236
vt -0.047574 1.441785
vt -0.047574 0.480595
vt -9.048895 4.224848
vt -10.938301 4.224848
vt -2.133107 0.480595
vt -4.440209 3.727805
vt -4.442438 2.766616
vt -6.847174 4.208400
vt -7.808192 4.539775
vt -5.598462 2.432332
vt -4.113930 4.208400
vt -1.755370 2.150497
vt -8.389707 1.805426
vt -8.389707 0.480595
vt -10.475240 0.480595
vt -10.474239 3.744916
vt -8.388747 3.744916
vt -8.389426 2.785054
vt -0.042766 2.766616
vt -2.128298 2.766615
vt -2.128298 3.727805
vt -0.042766 3.727805
vt -10.474919 2.785054
vt -10.475240 1.805426
vt -5.606199 3.727805
vt -2.133108 1.441784
vt -6.304173 1.805426
vt -3.655150 5.071354
vt -6.847175 5.074186
vt -9.048895 4.491731
vt -7.342133 5.072037
vt -9.048895 4.719647
vt -3.655151 5.072037
vt -3.655150 4.208400
vt -6.847175 4.211232
vt -1.296591 1.922379
vt -7.342133 4.208401
vt -3.655151 4.208400
vt -1.296591 2.150497
vt -6.825556 2.286021
vt 1.000000 2.526319
vt -11.516816 3.984882
vt -3.692448 2.286021
vt -6.825556 1.324831
vt -6.825556 0.363642
vt -7.345831 3.984882
vt -3.171065 2.526319
vt -3.692449 4.208400
vt -1.085532 2.526319
vt -9.431325 3.984882
vt -3.692449 3.360176
vt -8.167144 4.539770
vt -4.113930 4.801960
vt -6.825556 0.844236
vt -3.692449 3.727805
vt -3.692448 2.766616
vt -1.755370 1.922379
vt -4.113930 4.208401
vt -10.474070 3.984882
vt -8.388578 3.984882
vt -0.042766 2.526319
vt -2.128298 2.526319
vt -6.825556 1.805426
vt -6.564863 0.363642
vt -7.345916 3.864899
vt -3.171065 2.699273
vt -4.067715 4.208400
vt -1.085532 2.646467
vt -9.431409 3.864899
vt -4.070196 3.360176
vt -6.163863 4.801960
vt -8.544371 4.539825
vt -4.068916 3.727805
vt -4.070196 2.766616
vt -6.163863 4.208400
vt -2.133118 1.922379
vt -10.474154 3.864899
vt -8.388663 3.864899
vt -0.042766 2.646467
vt -2.128298 2.646467
vt -6.564863 2.286021
vt 1.000000 2.646467
vt -11.516939 3.811417
vt -4.069343 2.286021
vt -6.564863 1.324831
vt -6.564863 0.844236
vt -6.564863 1.805426
vt -6.434518 0.363642
vt -7.345959 3.804907
vt -3.171065 2.706541
vt -4.083486 4.208400
vt -1.085532 2.706541
vt -9.431450 3.804907
vt -4.797241 4.801960
vt -4.083486 3.360176
vt -7.449737 4.539770
vt -4.083486 3.727805
vt -4.797241 4.208401
vt -4.083486 2.766616
vt -8.167146 4.539775
vt -10.474198 3.804907
vt -8.388703 3.804907
vt -0.042766 2.706541
vt -2.128298 2.706541
vt -6.434518 2.286021
vt 1.000000 2.706541
vt -11.516943 3.804907
vt -4.083486 2.286021
vt -6.434518 1.324831
vt -6.434518 0.844236
vt -6.434518 1.805426
vt -5.480552 4.801960
vt -9.553431 4.818408
vt -7.449737 4.224847
vt -6.163863 4.801960
vt -9.912383 4.818408
vt -7.808192 4.224902
vt -5.480552 4.208400
vt -9.553431 4.224848
vt -8.167144 4.224848
vt -6.163863 4.208400
vt -9.912383 4.224848
vt -7.808192 4.224848
vt -1.079510 4.801960
vt -8.167144 4.224847
vt -4.797241 4.801960
vt -1.079510 4.208400
vt -1.755370 2.237306
vt -4.797241 4.208400
vt -1.457257 4.801960
vt -5.480552 4.801960
vt -8.544371 4.224904
vt -1.457257 4.208400
vt -5.480552 4.208400
vt -2.133118 2.237306
vt -0.568958 1.922379
vt -0.564149 2.286021
vt -8.907174 2.289620
vt -9.953856 0.068523
vt -0.564149 3.247211
vt -0.568958 1.048570
vt -1.457257 4.776375
vt -2.654491 1.922379
vt -8.909781 4.224847
vt -0.568958 0.000000
vt -9.953856 2.286021
vt -0.564149 4.208400
vt -8.910460 3.264985
vt -9.953856 1.324831
vt -0.568958 1.441784
vt -0.568958 0.480595
vt -2.654490 1.922379
vt -1.457257 4.208401
vt -9.953856 0.480595
vt -8.910121 3.744916
vt -8.910800 2.785054
vt -0.564149 2.766616
vt -0.564149 3.727805
vt -9.953856 1.805426
vt -0.564149 2.526319
vt -8.909950 3.984882
vt -0.564149 2.646467
vt -8.910035 3.864899
vt -0.564149 2.706541
vt -8.910077 3.804907
vt -0.308266 0.000000
vt -8.649094 4.224847
vt -10.214548 2.286021
vt -0.303458 4.208400
vt -8.649774 3.264985
vt -10.214548 1.324831
vt -10.214548 0.480595
vt -8.649433 3.744916
vt -8.650113 2.785054
vt -10.214548 1.805426
vt -8.649263 3.984882
vt -8.649349 3.864899
vt -8.649392 3.804907
vt -0.308266 1.922379
vt -0.303458 2.286021
vt -8.646484 2.289620
vt -10.214548 0.068523
vt -0.303458 3.247211
vt -3.196373 4.776375
vt -0.552109 1.048570
vt -8.544371 4.224923
vt -0.308266 1.441785
vt -3.196373 4.208400
vt -0.552109 0.480595
vt -9.553431 4.224848
vt -0.303458 2.766616
vt -0.303458 3.727805
vt -0.303458 2.526319
vt -0.303458 2.646467
vt -0.303458 2.706541
vt -10.416918 4.792822
vt -2.036961 4.776375
vt -2.654491 2.189187
vt -2.036961 4.776375
vt -10.938301 4.792822
vt -2.133118 2.189266
vt -2.036961 4.208400
vt -10.938301 4.224848
vt -3.175873 2.189556
vt -10.416918 4.224848
vt -2.654490 2.189556
vt -2.036961 4.208400
vt -9.912383 4.792822
vt -9.048895 4.491656
vt -11.518004 4.792822
vt -9.912383 4.224848
vt -9.048895 4.492024
vt -11.518004 4.224848
vt -2.616668 4.776375
vt -10.416918 4.792822
vt -8.544371 4.491731
vt -2.616667 4.208400
vt -10.416918 4.224848
vt -9.553431 4.492024
s 0
usemtl マテリアル.007
f 118/206/1 103/183/1 4/10/1 42/90/1
f 97/169/2 32/69/2 8/22/2 45/95/2
f 96/168/3 35/76/3 6/16/3 48/102/3
f 95/167/4 38/82/4 2/4/4 28/62/4
f 94/166/5 46/98/5 5/13/5 37/80/5
f 93/165/6 41/88/6 2/5/6 38/81/6
f 92/164/6 51/107/6 20/48/6 50/106/6
f 91/163/6 52/108/6 21/49/6 53/109/6
f 90/162/6 29/63/6 11/29/6 54/110/6
f 171/299/7 55/111/7 19/45/7 160/281/7
f 170/298/8 56/112/8 22/50/8 165/291/8
f 87/159/8 34/74/8 16/40/8 58/114/8
f 86/158/4 59/115/4 10/28/4 40/86/4
f 85/157/4 60/116/4 23/51/4 61/117/4
f 84/156/4 50/105/4 20/47/4 62/118/4
f 83/153/3 63/119/3 18/44/3 36/77/3
f 82/150/3 64/122/3 24/53/3 65/125/3
f 81/149/3 47/99/3 17/42/3 66/128/3
f 80/148/2 67/129/2 15/37/2 33/71/2
f 25/55/1 69/133/1 205/345/1 204/342/1
f 167/293/2 159/279/2 14/35/2 70/136/2
f 111/197/1 105/187/1 12/32/1 30/65/1
f 76/142/1 72/138/1 26/58/1 73/139/1
f 75/141/1 41/87/1 11/30/1 74/140/1
f 72/138/1 75/141/1 74/140/1 26/58/1
f 10/27/1 28/61/1 75/141/1 72/138/1
f 28/61/1 2/6/1 41/87/1 75/141/1
f 27/59/1 76/142/1 73/139/1 9/25/1
f 1/1/1 40/85/1 76/142/1 27/59/1
f 40/85/1 10/27/1 72/138/1 76/142/1
f 106/188/1 111/197/1 30/65/1 3/7/1
f 9/25/1 73/139/1 77/143/1 39/84/1
f 73/139/1 26/58/1 71/137/1 77/143/1
f 162/284/2 167/293/2 70/136/2 25/56/2
f 12/31/2 42/89/2 78/144/2 68/130/2
f 42/89/2 4/11/2 44/94/2 78/144/2
f 163/288/2 168/294/2 69/134/2 13/33/2
f 3/8/2 30/66/2 79/145/2 31/67/2
f 30/66/2 12/31/2 68/130/2 79/145/2
f 43/91/2 80/148/2 33/71/2 7/19/2
f 13/33/2 69/134/2 80/148/2 43/91/2
f 69/134/2 25/56/2 67/129/2 80/148/2
f 64/122/3 81/149/3 66/128/3 24/53/3
f 139/238/3 140/240/3 81/149/3 64/122/3
f 140/240/3 136/234/3 47/99/3 81/149/3
f 34/73/3 82/150/3 65/125/3 16/39/3
f 147/251/3 141/242/3 82/150/3 34/73/3
f 64/123/2 82/151/2 154/264/2 152/258/2
f 46/97/3 83/153/3 36/77/3 5/14/3
f 16/39/3 65/125/3 83/153/3 46/97/3
f 65/126/4 24/52/4 99/171/4 101/177/4
f 60/116/4 84/156/4 62/118/4 23/51/4
f 18/43/4 48/101/4 84/156/4 60/116/4
f 48/101/4 6/17/4 50/105/4 84/156/4
f 37/79/4 85/157/4 61/117/4 19/46/4
f 5/15/4 36/78/4 85/157/4 37/79/4
f 36/78/4 18/43/4 60/116/4 85/157/4
f 49/103/4 86/158/4 40/86/4 1/2/4
f 193/325/4 185/315/4 86/158/4 49/103/4
f 185/315/4 184/314/4 59/115/4 86/158/4
f 56/112/8 87/159/8 58/114/8 22/50/8
f 138/236/8 142/244/8 87/159/8 56/112/8
f 142/244/8 147/250/8 34/74/8 87/159/8
f 39/83/8 88/160/8 57/113/8 9/26/8
f 135/232/8 143/245/8 88/160/8 39/83/8
f 180/308/8 138/236/8 56/112/8 170/298/8
f 27/60/9 89/161/9 49/104/9 1/3/9
f 9/26/8 57/113/8 89/161/8 27/60/8
f 165/291/8 22/50/8 55/111/8 171/299/8
f 198/334/6 90/162/6 54/110/6 194/326/6
f 202/338/6 144/246/6 90/162/6 198/334/6
f 144/246/6 146/249/6 29/63/6 90/162/6
f 47/100/6 91/163/6 53/109/6 17/41/6
f 136/233/6 145/247/6 91/163/6 47/100/6
f 145/247/6 137/235/6 52/108/6 91/163/6
f 35/75/6 92/164/6 50/106/6 6/18/6
f 17/41/6 53/109/6 92/164/6 35/75/6
f 53/109/6 21/49/6 51/107/6 92/164/6
f 199/335/6 93/165/6 38/81/6 182/312/6
f 194/326/6 54/110/6 93/165/6 199/335/6
f 54/110/6 11/29/6 41/88/6 93/165/6
f 55/111/7 94/166/7 37/80/7 19/45/7
f 22/50/8 58/114/8 94/166/8 55/111/8
f 58/114/8 16/40/8 46/98/8 94/166/8
f 59/115/4 95/167/4 28/62/4 10/28/4
f 184/314/4 188/318/4 95/167/4 59/115/4
f 188/318/4 182/311/4 38/82/4 95/167/4
f 63/119/3 96/168/3 48/102/3 18/44/3
f 24/53/3 66/128/3 96/168/3 63/119/3
f 66/128/3 17/42/3 35/76/3 96/168/3
f 67/129/2 97/169/2 45/95/2 15/37/2
f 25/56/2 70/136/2 97/169/2 67/129/2
f 70/136/2 14/35/2 32/69/2 97/169/2
f 105/187/1 118/206/1 42/90/1 12/32/1
f 26/58/1 74/140/1 98/170/1 71/137/1
f 74/140/1 11/30/1 29/64/1 98/170/1
f 101/178/3 99/172/3 100/174/3 102/180/3
f 24/54/10 63/120/10 100/175/10 99/173/10
f 63/121/2 83/154/2 102/181/2 100/176/2
f 83/155/11 65/127/11 101/179/11 102/182/11
f 132/228/1 134/230/1 118/206/1 105/187/1
f 32/70/6 14/36/6 108/192/6 117/205/6
f 8/23/6 32/70/6 117/205/6 107/190/6
f 44/93/6 4/12/6 103/184/6 116/204/6
f 192/323/6 44/93/6 116/204/6 200/336/6
f 163/287/8 13/34/8 109/193/8 176/304/8
f 3/9/8 31/68/8 115/203/8 106/189/8
f 43/92/8 7/20/8 104/185/8 114/202/8
f 13/34/8 43/92/8 114/202/8 109/193/8
f 33/72/3 15/38/3 110/194/3 113/199/3
f 7/21/3 33/72/3 113/199/3 104/186/3
f 45/96/3 8/24/3 107/191/3 112/198/3
f 15/38/3 45/96/3 112/198/3 110/194/3
f 119/207/1 133/229/1 111/197/1 106/188/1
f 133/229/1 132/228/1 105/187/1 111/197/1
f 134/230/1 130/224/1 103/183/1 118/206/1
f 150/254/1 146/248/1 130/224/1 134/230/1
f 149/253/1 148/252/1 132/228/1 133/229/1
f 135/231/1 149/253/1 133/229/1 119/207/1
f 148/252/1 150/254/1 134/230/1 132/228/1
f 117/205/6 108/192/6 121/211/6 129/223/6
f 107/190/6 117/205/6 129/223/6 120/209/6
f 116/204/6 103/184/6 130/225/6 128/222/6
f 200/336/6 116/204/6 128/222/6 201/337/6
f 176/304/8 109/193/8 122/212/8 178/306/8
f 106/189/8 115/203/8 127/221/8 119/208/8
f 114/202/8 104/185/8 131/226/8 126/220/8
f 109/193/8 114/202/8 126/220/8 122/212/8
f 141/241/4 139/237/4 151/255/4 153/261/4
f 104/186/3 113/199/3 125/217/3 131/227/3
f 112/198/3 107/191/3 120/210/3 124/216/3
f 110/194/3 112/198/3 124/216/3 123/213/3
f 71/137/1 98/170/1 150/254/1 148/252/1
f 39/84/1 77/143/1 149/253/1 135/231/1
f 77/143/1 71/137/1 148/252/1 149/253/1
f 98/170/1 29/64/1 146/248/1 150/254/1
f 129/223/6 121/211/6 137/235/6 145/247/6
f 120/209/6 129/223/6 145/247/6 136/233/6
f 128/222/6 130/225/6 146/249/6 144/246/6
f 201/337/6 128/222/6 144/246/6 202/338/6
f 178/306/8 122/212/8 138/236/8 180/308/8
f 119/208/8 127/221/8 143/245/8 135/232/8
f 126/220/8 131/226/8 147/250/8 142/244/8
f 122/212/8 126/220/8 142/244/8 138/236/8
f 125/217/3 123/213/3 139/238/3 141/242/3
f 131/227/3 125/217/3 141/242/3 147/251/3
f 124/216/3 120/210/3 136/234/3 140/240/3
f 123/213/3 124/216/3 140/240/3 139/238/3
f 153/262/3 151/256/3 152/259/3 154/265/3
f 156/270/3 155/267/3 157/273/3 158/276/3
f 82/152/6 141/243/6 153/263/6 154/266/6
f 123/214/2 125/218/2 158/277/2 157/274/2
f 125/219/6 113/200/6 156/271/6 158/278/6
f 110/195/8 123/215/8 157/275/8 155/268/8
f 113/201/4 110/196/4 155/269/4 156/272/4
f 139/239/8 64/124/8 152/260/8 151/257/8
f 190/320/8 178/306/8 180/308/8 191/321/8
f 121/211/6 177/305/6 179/307/6 137/235/6
f 189/319/8 176/304/8 178/306/8 190/320/8
f 108/192/6 175/303/6 177/305/6 121/211/6
f 181/310/8 163/287/8 176/304/8 189/319/8
f 14/36/6 159/280/6 175/303/6 108/192/6
f 62/118/4 20/47/4 164/289/4 174/302/4
f 23/51/4 62/118/4 174/302/4 166/292/4
f 21/49/6 161/283/6 173/301/6 51/107/6
f 51/107/6 173/301/6 164/290/6 20/48/6
f 137/235/6 179/307/6 172/300/6 52/108/6
f 52/108/6 172/300/6 161/283/6 21/49/6
f 183/313/8 165/291/8 171/299/8 187/317/8
f 191/321/8 180/308/8 170/298/8 186/316/8
f 61/117/4 23/51/4 166/292/4 169/297/4
f 19/46/4 61/117/4 169/297/4 160/282/4
f 181/309/2 197/332/2 168/294/2 163/288/2
f 195/328/2 196/330/2 167/293/2 162/284/2
f 196/330/2 192/322/2 159/279/2 167/293/2
f 197/332/2 195/328/2 162/284/2 168/294/2
f 186/316/8 170/298/8 165/291/8 183/313/8
f 187/317/7 171/299/7 160/281/7 193/324/7
f 89/161/7 187/317/7 193/324/7 49/104/7
f 88/160/8 186/316/8 183/313/8 57/113/8
f 195/327/1 197/331/1 210/360/1 209/357/1
f 78/144/2 44/94/2 192/322/2 196/330/2
f 68/130/2 78/144/2 196/330/2 195/328/2
f 31/67/2 79/145/2 197/332/2 181/309/2
f 143/245/8 191/321/8 186/316/8 88/160/8
f 57/113/8 183/313/8 187/317/8 89/161/8
f 31/68/8 181/310/8 189/319/8 115/203/8
f 115/203/8 189/319/8 190/320/8 127/221/8
f 127/221/8 190/320/8 191/321/8 143/245/8
f 177/305/6 201/337/6 202/338/6 179/307/6
f 175/303/6 200/336/6 201/337/6 177/305/6
f 159/280/6 192/323/6 200/336/6 175/303/6
f 174/302/4 164/289/4 182/311/4 188/318/4
f 166/292/4 174/302/4 188/318/4 184/314/4
f 161/283/6 194/326/6 199/335/6 173/301/6
f 173/301/6 199/335/6 182/312/6 164/290/6
f 179/307/6 202/338/6 198/334/6 172/300/6
f 172/300/6 198/334/6 194/326/6 161/283/6
f 169/297/4 166/292/4 184/314/4 185/315/4
f 160/282/4 169/297/4 185/315/4 193/325/4
f 206/348/2 203/339/2 204/343/2 205/346/2
f 208/354/2 207/351/2 209/358/2 210/361/2
f 69/135/6 168/295/6 206/349/6 205/347/6
f 197/333/6 79/146/6 208/355/6 210/362/6
f 68/131/8 195/329/8 209/359/8 207/352/8
f 79/147/3 68/132/3 207/353/3 208/356/3
f 168/296/3 162/285/3 203/340/3 206/350/3
f 162/286/8 25/57/8 204/344/8 203/341/8
