# Blender 3.5.0
# www.blender.org
mtllib house25.mtl
o 立方体.027
v 52.750828 20.806383 -176.771027
v 52.750828 23.606382 -176.771027
v 22.750824 20.806383 -176.771027
v 22.750824 23.606382 -176.771027
v 52.750824 12.293630 -157.580475
v 52.750824 15.093630 -157.580475
v 22.750822 12.293630 -157.580475
v 22.750822 15.093630 -157.580475
v 37.750824 20.806383 -176.771027
v 52.750828 22.206383 -176.771027
v 37.750824 23.606382 -176.771027
v 22.750824 22.206383 -176.771027
v 22.750822 15.496840 -164.771027
v 22.750822 18.296841 -164.771027
v 22.750822 13.693630 -157.580475
v 37.750824 12.293630 -157.580475
v 37.750824 15.093630 -157.580475
v 52.750824 13.693630 -157.580475
v 52.750824 15.496840 -164.771027
v 52.750824 18.296841 -164.771027
v 37.750824 18.296841 -164.771027
v 37.750824 15.496840 -164.771027
v 52.750824 16.896839 -164.771027
v 37.750824 13.693630 -157.580475
v 22.750822 16.896839 -164.771027
v 37.750824 22.206383 -176.771027
v 45.250824 20.806383 -176.771027
v 52.750828 22.906384 -176.771027
v 30.250824 23.606382 -176.771027
v 22.750824 21.506382 -176.771027
v 22.750822 18.227434 -170.771027
v 22.750822 15.616073 -158.771027
v 22.750822 12.993630 -157.580475
v 30.250822 12.293630 -157.580475
v 45.250824 15.093630 -157.580475
v 52.750824 12.993630 -157.580475
v 52.750824 12.816072 -158.771027
v 52.750824 21.027435 -170.771027
v 30.250824 20.806383 -176.771027
v 52.750828 21.506382 -176.771027
v 45.250824 23.606382 -176.771027
v 22.750824 22.906384 -176.771027
v 22.750822 12.816072 -158.771027
v 22.750822 21.027435 -170.771027
v 22.750822 14.393630 -157.580475
v 45.250824 12.293630 -157.580475
v 30.250822 15.093630 -157.580475
v 52.750824 14.393630 -157.580475
v 52.750824 18.227434 -170.771027
v 52.750824 15.616073 -158.771027
v 45.250824 18.296841 -164.771027
v 30.250824 18.296841 -164.771027
v 37.750824 15.616073 -158.771027
v 37.750824 21.027435 -170.771027
v 45.250824 15.496840 -164.771027
v 30.250824 15.496840 -164.771027
v 37.750824 18.227434 -170.771027
v 37.750824 12.816072 -158.771027
v 52.750824 19.627434 -170.771027
v 52.750824 14.216072 -158.771027
v 52.750824 16.196840 -164.771027
v 52.750824 17.596840 -164.771027
v 45.250824 13.693630 -157.580475
v 30.250822 13.693630 -157.580475
v 37.750824 12.993630 -157.580475
v 37.750824 14.393630 -157.580475
v 22.750822 14.216072 -158.771027
v 22.750822 19.627434 -170.771027
v 22.750822 16.196840 -164.771027
v 22.750822 17.596840 -164.771027
v 30.250824 22.206383 -176.771027
v 45.250824 22.206383 -176.771027
v 37.750824 21.506382 -176.771027
v 37.750824 22.906384 -176.771027
v 45.250824 22.906384 -176.771027
v 45.250824 21.506382 -176.771027
v 30.250824 21.506382 -176.771027
v 22.750822 20.327435 -170.771027
v 22.750822 18.927435 -170.771027
v 22.750822 13.516072 -158.771027
v 30.250822 14.393630 -157.580475
v 30.250822 12.993630 -157.580475
v 45.250824 12.993630 -157.580475
v 52.750824 14.916073 -158.771027
v 52.750824 13.516072 -158.771027
v 52.750824 18.927435 -170.771027
v 30.250822 12.816072 -158.771027
v 30.250824 18.227434 -170.771027
v 45.250824 18.227434 -170.771027
v 30.250824 21.027435 -170.771027
v 30.250822 15.616073 -158.771027
v 45.250824 15.616073 -158.771027
v 45.250824 21.027435 -170.771027
v 45.250824 12.816072 -158.771027
v 52.750824 20.327435 -170.771027
v 45.250824 14.393630 -157.580475
v 22.750822 14.916073 -158.771027
v 30.250824 22.906384 -176.771027
vn -0.0000 -0.0000 -1.0000
vn -1.0000 -0.0000 -0.0000
vn -0.0000 -0.0000 1.0000
vn 1.0000 -0.0000 -0.0000
vn -0.0000 -0.9157 -0.4018
vn -0.0000 0.9187 0.3949
vn -0.0000 0.9130 0.4079
vn -0.0000 -0.9102 -0.4142
vn -0.0000 -0.9130 -0.4079
vn -0.0000 -0.9187 -0.3949
vn -0.0000 0.9102 0.4142
vn -0.0000 0.9157 0.4018
vt -0.397583 1.147985
vt -1.409086 3.700776
vt -1.379458 0.000000
vt -9.134727 4.877897
vt -1.409087 4.877897
vt -5.271906 3.700775
vt 0.613920 3.731432
vt -0.367955 4.879416
vt -5.271908 4.877897
vt -0.399705 4.879416
vt -1.409086 0.000000
vt -9.134726 0.000000
vt -1.381580 3.731432
vt -9.134726 1.177122
vt 0.611797 0.000000
vt -5.271905 0.000000
vt -0.370077 1.147984
vt -5.271906 1.177122
vt -3.340496 3.700775
vt -1.409086 4.289336
vt -0.888520 0.573992
vt -7.203318 4.877897
vt -3.340497 4.877897
vt 0.122983 4.305424
vt -5.271906 4.289336
vt 0.607842 1.403693
vt -5.271905 1.392347
vt -5.271906 2.569469
vt -0.374032 2.551677
vt 0.120861 0.573992
vt -5.271906 0.588561
vt -7.203316 0.000000
vt -3.340495 0.000000
vt -7.203316 1.177122
vt -0.890642 4.305424
vt -9.134726 0.588561
vt -0.403660 3.475723
vt -1.409086 1.392347
vt -9.134726 2.569469
vt -1.385535 2.327739
vt -7.203318 2.569469
vt -3.340495 1.392347
vt -0.894598 2.901731
vt -7.203316 0.588561
vt 0.116904 1.977685
vt -3.340496 4.289336
vt -2.374791 3.700776
vt -1.409086 4.583617
vt -1.133990 0.286996
vt -6.237611 4.877897
vt -4.306201 4.877897
vt -5.271906 3.995056
vt 0.368451 4.018428
vt 0.584292 2.598650
vt -5.271905 2.578437
vt -5.271906 1.404327
vt -0.367956 1.377150
vt 0.366329 0.286996
vt -5.271906 0.294281
vt -6.237611 0.000000
vt -4.306200 0.000000
vt -8.169022 1.177122
vt -9.134726 0.294281
vt -0.645174 4.592420
vt -0.397583 4.650251
vt -1.409086 0.227205
vt -9.134727 3.755559
vt -1.409086 1.132782
vt -4.306201 3.700775
vt -1.409086 3.995056
vt -0.643052 0.860988
vt -2.374791 4.877897
vt -8.169023 4.877897
vt -0.122487 4.592420
vt -5.271906 4.583617
vt 0.613919 0.229165
vt -5.271905 0.227205
vt -0.397583 3.746634
vt -5.271907 3.755559
vt -5.271906 0.882842
vt -0.124609 0.860988
vt -8.169021 0.000000
vt -2.374790 0.000000
vt -6.237611 1.177122
vt -1.136112 4.018428
vt -9.134726 0.882842
vt -0.427210 2.280767
vt -1.409086 2.578437
vt -1.379458 3.502267
vt -9.134726 1.404327
vt -8.169021 2.569469
vt -6.237611 2.569469
vt -7.203316 1.404327
vt -7.203318 3.755559
vt -2.374790 1.392347
vt -4.306200 1.392347
vt -3.340496 2.578437
vt -3.340495 0.227205
vt -0.918148 1.706775
vt -0.888520 4.076259
vt -0.649129 3.188727
vt -1.140067 2.614735
vt -8.169021 0.588561
vt -6.237611 0.588561
vt -7.203316 0.294281
vt -7.203316 0.882842
vt 0.122982 0.803157
vt 0.093355 3.172642
vt 0.362373 1.690689
vt -0.128564 2.264681
vt -4.306201 4.289336
vt -2.374791 4.289336
vt -3.340496 3.995056
vt -3.340496 4.583617
vt -2.374791 4.583617
vt -2.374791 3.995056
vt -4.306201 3.995056
vt -0.152114 3.459638
vt 0.338823 2.885646
vt 0.368451 0.516161
vt -6.237611 0.882842
vt -6.237611 0.294281
vt -8.169021 0.294281
vt -1.133990 3.789263
vt -0.643052 4.363255
vt -0.672680 1.993771
vt -4.306200 0.227205
vt -4.306201 2.578437
vt -2.374791 2.578437
vt -6.237611 3.755559
vt -6.237611 1.404327
vt -8.169022 1.404327
vt -8.169022 3.755559
vt -2.374790 0.227205
vt -1.163616 1.419778
vt -8.169022 0.882842
vt -0.122487 1.090154
vt -4.306201 4.583617
s 0
usemtl マテリアル.065
f 29/51/1 98/138/1 42/75/1
f 97/137/2 45/81/2 8/17/2
f 35/62/3 96/136/3 48/86/3
f 38/68/4 95/135/4 28/49/4
f 46/83/5 94/134/5 37/66/5
f 41/73/6 93/133/6 38/67/6
f 51/91/7 92/132/7 50/90/7
f 52/92/7 91/131/7 53/93/7
f 29/50/6 90/130/6 54/94/6
f 55/95/8 89/129/8 49/88/8
f 56/96/8 88/128/8 57/97/8
f 34/61/5 87/127/5 58/98/5
f 59/99/4 86/126/4 40/71/4
f 60/100/4 85/125/4 61/101/4
f 50/89/4 84/124/4 62/102/4
f 63/103/3 83/123/3 36/63/3
f 64/104/3 82/122/3 65/105/3
f 47/84/3 81/121/3 66/106/3
f 80/120/2 33/58/2 15/30/2
f 79/119/2 69/109/2 25/45/2
f 78/118/2 70/110/2 14/29/2
f 71/111/1 77/117/1 30/52/1
f 72/112/1 76/116/1 73/113/1
f 41/72/1 75/115/1 74/114/1
f 75/115/1 72/112/1 26/46/1
f 28/48/1 10/20/1 72/112/1
f 2/5/1 28/48/1 75/115/1
f 76/116/1 27/47/1 9/19/1
f 40/70/1 1/2/1 27/47/1
f 10/20/1 40/70/1 76/116/1
f 77/117/1 39/69/1 3/6/1
f 73/113/1 9/19/1 39/69/1
f 26/46/1 73/113/1 77/117/1
f 68/108/2 25/45/2 70/110/2
f 12/24/2 68/108/2 78/118/2
f 42/74/2 78/118/2 44/78/2
f 31/54/2 13/26/2 69/109/2
f 3/7/2 31/54/2 79/119/2
f 30/53/2 79/119/2 68/108/2
f 43/76/2 7/15/2 33/58/2
f 13/26/2 43/76/2 80/120/2
f 69/109/2 80/120/2 67/107/2
f 81/121/3 64/104/3 24/44/3
f 45/80/3 15/31/3 64/104/3
f 8/18/3 45/80/3 81/121/3
f 82/122/3 34/60/3 16/32/3
f 33/59/3 7/16/3 34/60/3
f 15/31/3 33/59/3 82/122/3
f 83/123/3 46/82/3 5/12/3
f 65/105/3 16/32/3 46/82/3
f 24/44/3 65/105/3 83/123/3
f 84/124/4 60/100/4 23/43/4
f 48/85/4 18/35/4 60/100/4
f 6/13/4 48/85/4 84/124/4
f 85/125/4 37/65/4 19/37/4
f 36/64/4 5/10/4 37/65/4
f 18/35/4 36/64/4 85/125/4
f 86/126/4 49/87/4 1/1/4
f 61/101/4 19/37/4 49/87/4
f 23/43/4 61/101/4 86/126/4
f 87/127/9 56/96/9 22/42/9
f 43/77/9 13/27/9 56/96/9
f 7/16/5 43/77/5 87/127/5
f 88/128/10 39/69/10 9/19/10
f 31/55/10 3/6/10 39/69/10
f 13/27/8 31/55/8 88/128/8
f 89/129/10 27/47/10 1/2/10
f 57/97/10 9/19/10 27/47/10
f 22/42/8 57/97/8 89/129/8
f 90/130/11 52/92/11 21/41/11
f 44/79/11 14/28/11 52/92/11
f 4/9/6 44/79/6 90/130/6
f 91/131/12 47/84/12 17/34/12
f 32/56/12 8/18/12 47/84/12
f 14/28/7 32/56/7 91/131/7
f 92/132/12 35/62/12 6/14/12
f 53/93/12 17/34/12 35/62/12
f 21/41/7 53/93/7 92/132/7
f 93/133/11 51/91/11 20/39/11
f 54/94/11 21/41/11 51/91/11
f 11/22/6 54/94/6 93/133/6
f 94/134/9 55/95/9 19/38/9
f 58/98/9 22/42/9 55/95/9
f 16/33/5 58/98/5 94/134/5
f 95/135/4 59/99/4 10/21/4
f 62/102/4 23/43/4 59/99/4
f 20/40/4 62/102/4 95/135/4
f 96/136/3 63/103/3 18/36/3
f 66/106/3 24/44/3 63/103/3
f 17/34/3 66/106/3 96/136/3
f 67/107/2 15/30/2 45/81/2
f 25/45/2 67/107/2 97/137/2
f 70/110/2 97/137/2 32/57/2
f 98/138/1 71/111/1 12/25/1
f 74/114/1 26/46/1 71/111/1
f 11/23/1 74/114/1 98/138/1
f 29/51/1 42/75/1 4/9/1
f 97/137/2 8/17/2 32/57/2
f 35/62/3 48/86/3 6/14/3
f 38/68/4 28/49/4 2/3/4
f 46/83/5 37/66/5 5/11/5
f 41/73/6 38/67/6 2/4/6
f 51/91/7 50/90/7 20/39/7
f 52/92/7 53/93/7 21/41/7
f 29/50/6 54/94/6 11/22/6
f 55/95/8 49/88/8 19/38/8
f 56/96/8 57/97/8 22/42/8
f 34/61/5 58/98/5 16/33/5
f 59/99/4 40/71/4 10/21/4
f 60/100/4 61/101/4 23/43/4
f 50/89/4 62/102/4 20/40/4
f 63/103/3 36/63/3 18/36/3
f 64/104/3 65/105/3 24/44/3
f 47/84/3 66/106/3 17/34/3
f 80/120/2 15/30/2 67/107/2
f 79/119/2 25/45/2 68/108/2
f 78/118/2 14/29/2 44/78/2
f 71/111/1 30/52/1 12/25/1
f 72/112/1 73/113/1 26/46/1
f 41/72/1 74/114/1 11/23/1
f 75/115/1 26/46/1 74/114/1
f 28/48/1 72/112/1 75/115/1
f 2/5/1 75/115/1 41/72/1
f 76/116/1 9/19/1 73/113/1
f 40/70/1 27/47/1 76/116/1
f 10/20/1 76/116/1 72/112/1
f 77/117/1 3/6/1 30/52/1
f 73/113/1 39/69/1 77/117/1
f 26/46/1 77/117/1 71/111/1
f 68/108/2 70/110/2 78/118/2
f 12/24/2 78/118/2 42/74/2
f 42/74/2 44/78/2 4/8/2
f 31/54/2 69/109/2 79/119/2
f 3/7/2 79/119/2 30/53/2
f 30/53/2 68/108/2 12/24/2
f 43/76/2 33/58/2 80/120/2
f 13/26/2 80/120/2 69/109/2
f 69/109/2 67/107/2 25/45/2
f 81/121/3 24/44/3 66/106/3
f 45/80/3 64/104/3 81/121/3
f 8/18/3 81/121/3 47/84/3
f 82/122/3 16/32/3 65/105/3
f 33/59/3 34/60/3 82/122/3
f 15/31/3 82/122/3 64/104/3
f 83/123/3 5/12/3 36/63/3
f 65/105/3 46/82/3 83/123/3
f 24/44/3 83/123/3 63/103/3
f 84/124/4 23/43/4 62/102/4
f 48/85/4 60/100/4 84/124/4
f 6/13/4 84/124/4 50/89/4
f 85/125/4 19/37/4 61/101/4
f 36/64/4 37/65/4 85/125/4
f 18/35/4 85/125/4 60/100/4
f 86/126/4 1/1/4 40/71/4
f 61/101/4 49/87/4 86/126/4
f 23/43/4 86/126/4 59/99/4
f 87/127/9 22/42/9 58/98/9
f 43/77/9 56/96/9 87/127/9
f 7/16/5 87/127/5 34/61/5
f 88/128/10 9/19/10 57/97/10
f 31/55/10 39/69/10 88/128/10
f 13/27/8 88/128/8 56/96/8
f 89/129/10 1/2/10 49/88/10
f 57/97/10 27/47/10 89/129/10
f 22/42/8 89/129/8 55/95/8
f 90/130/11 21/41/11 54/94/11
f 44/79/11 52/92/11 90/130/11
f 4/9/6 90/130/6 29/50/6
f 91/131/12 17/34/12 53/93/12
f 32/56/12 47/84/12 91/131/12
f 14/28/7 91/131/7 52/92/7
f 92/132/12 6/14/12 50/90/12
f 53/93/12 35/62/12 92/132/12
f 21/41/7 92/132/7 51/91/7
f 93/133/11 20/39/11 38/67/11
f 54/94/11 51/91/11 93/133/11
f 11/22/6 93/133/6 41/73/6
f 94/134/9 19/38/9 37/66/9
f 58/98/9 55/95/9 94/134/9
f 16/33/5 94/134/5 46/83/5
f 95/135/4 10/21/4 28/49/4
f 62/102/4 59/99/4 95/135/4
f 20/40/4 95/135/4 38/68/4
f 96/136/3 18/36/3 48/86/3
f 66/106/3 63/103/3 96/136/3
f 17/34/3 96/136/3 35/62/3
f 67/107/2 45/81/2 97/137/2
f 25/45/2 97/137/2 70/110/2
f 70/110/2 32/57/2 14/29/2
f 98/138/1 12/25/1 42/75/1
f 74/114/1 71/111/1 98/138/1
f 11/23/1 98/138/1 29/51/1
