# Blender 3.5.0
# www.blender.org
mtllib house41.mtl
o 立方体.059
v -119.368118 18.925732 -22.652576
v -126.818253 30.819750 -30.874582
v -119.368118 38.925732 -22.652576
v -126.818253 36.819748 -30.874582
v -149.368118 18.925732 -22.652573
v -126.818253 30.819750 -41.274586
v -149.368118 38.925732 -22.652573
v -126.818253 36.819748 -41.274586
v -119.368118 18.925732 -48.652573
v -119.368118 38.925732 -48.652573
v -149.368118 18.925732 -48.652569
v -149.368118 38.925732 -48.652569
v -119.368118 33.250359 -41.274586
v -119.368118 31.232147 -41.274586
v -119.368118 30.819750 -38.114796
v -119.368118 30.819750 -40.559761
v -119.368118 30.819750 -41.274586
v -119.368118 30.819750 -30.874582
v -119.368118 36.407352 -30.874582
v -119.368118 36.819748 -30.874582
v -119.368118 36.819748 -41.274586
v -119.368118 36.819748 -31.589405
vn -0.0000 -0.0000 1.0000
vn -1.0000 -0.0000 -0.0000
vn -0.0000 -0.0000 -1.0000
vn 1.0000 -0.0000 -0.0000
vn -0.0000 -1.0000 -0.0000
vn -0.0000 1.0000 -0.0000
vt 1.000000 0.000000
vt -0.678028 1.678028
vt -0.678028 0.000000
vt 0.375000 0.000000
vt 0.375000 0.750000
vt 0.375000 1.000000
vt 0.125000 0.750000
vt 1.000000 0.839014
vt -0.678028 2.517042
vt -0.678028 0.839014
vt 0.625000 0.000000
vt 0.625000 0.750000
vt 0.875000 0.750000
vt -0.678028 0.000000
vt -0.678028 0.839014
vt 0.160986 0.000000
vt 0.375000 0.000000
vt 0.375000 0.250000
vt 0.125000 0.500000
vt 0.160986 0.839014
vt -0.678028 0.839014
vt -0.678028 1.678028
vt 0.625000 0.000000
vt 0.875000 0.500000
vt 0.625000 0.250000
vt -1.517042 0.839014
vt 0.160986 1.678028
vt 0.160986 0.000000
vt -1.517042 1.678028
vt -1.517042 2.517042
vt 0.160986 0.839014
vt -0.678028 0.839014
vt -1.517042 0.000000
vt 0.160986 0.839014
vt -1.517042 1.678028
vt -1.517042 0.839014
vt -0.678028 1.678028
vt -0.077100 0.600928
vt 0.476275 0.398725
vt -0.077100 0.516263
vt 0.392183 0.250000
vt 0.392183 0.482817
vt -0.179066 0.498962
vt 0.357817 0.575956
vt -0.100167 0.498962
vt 0.357817 0.517183
vt 0.375000 0.250000
vt 0.357817 0.500000
vt -0.077100 0.498962
vt 0.375000 0.750000
vt 0.357817 0.750000
vt -0.412706 0.498962
vt 0.607817 0.750000
vt -0.412706 0.733366
vt 0.607817 0.767183
vt -0.412706 0.750667
vt 0.625000 0.750000
vt 0.642183 0.750000
vt 0.642183 0.500000
vt 0.625000 0.250000
vt -0.077100 0.750667
vt -0.389639 0.750666
vt 0.642183 0.732817
s 0
usemtl マテリアル.035
f 3/8/1 5/16/1 1/1/1
f 7/21/2 11/33/2 5/14/2
f 12/37/3 9/26/3 11/32/3
f 9/28/4 17/49/4 16/45/4
f 11/34/5 1/2/5 5/15/5
f 7/22/6 10/30/6 12/35/6
f 3/8/1 7/20/1 5/16/1
f 7/21/2 12/36/2 11/33/2
f 12/37/3 10/29/3 9/26/3
f 3/10/4 19/54/4 20/56/4
f 11/34/5 9/27/5 1/2/5
f 7/22/6 3/9/6 10/30/6
f 16/45/4 15/43/4 1/3/4
f 9/28/4 10/31/4 13/38/4
f 9/28/4 13/38/4 14/40/4
f 16/45/4 1/3/4 9/28/4
f 9/28/4 14/40/4 17/49/4
f 21/61/4 13/38/4 10/31/4
f 1/3/4 15/43/4 18/52/4
f 1/3/4 18/52/4 19/54/4
f 21/61/4 10/31/4 3/10/4
f 22/62/4 21/61/4 3/10/4
f 3/10/4 1/3/4 19/54/4
f 20/56/4 22/62/4 3/10/4
usemtl 
f 4/11/4 2/4/4 6/17/4
f 14/41/1 6/18/1 17/47/1
f 19/53/3 18/50/3 2/5/3
f 6/19/6 16/46/6 17/48/6
f 21/59/5 22/63/5 8/24/5
f 4/11/4 6/18/4 8/23/4
f 8/25/1 13/39/1 21/60/1
f 4/12/3 19/55/3 2/6/3
f 15/44/6 2/7/6 18/51/6
f 22/63/5 4/13/5 8/24/5
f 14/41/1 8/25/1 6/18/1
f 6/19/6 2/7/6 16/46/6
f 8/25/1 14/42/1 13/39/1
f 4/12/3 20/57/3 19/55/3
f 15/44/6 16/46/6 2/7/6
f 22/63/5 20/58/5 4/13/5
