# Blender 3.5.0
# www.blender.org
mtllib house46.mtl
o 立方体.064
v -106.738403 -0.514438 -27.127930
v -106.738403 0.885563 -27.127930
v -106.738403 -0.514438 -35.127930
v -106.738403 0.885563 -35.127930
v -103.738403 -0.514438 -27.127930
v -103.738403 0.885563 -27.127930
v -103.738403 -0.514438 -35.127930
v -103.738403 0.885563 -35.127930
vn -1.0000 -0.0000 -0.0000
vn -0.0000 -0.0000 -1.0000
vn 1.0000 -0.0000 -0.0000
vn -0.0000 -0.0000 1.0000
vn -0.0000 -1.0000 -0.0000
vn -0.0000 1.0000 -0.0000
vt 1.000000 0.000000
vt 0.329829 0.000000
vt 0.329829 0.670171
vt 1.000000 0.335085
vt 0.329829 0.335085
vt 0.329829 1.005256
vt 0.329829 0.000000
vt 0.329829 0.335086
vt 0.664914 0.000000
vt 0.664914 0.335085
vt 0.329829 0.335085
vt 0.329829 0.670171
vt 0.664914 0.000000
vt -0.005256 0.335086
vt 0.664914 0.670171
vt -0.005256 0.670171
vt 0.664914 0.335085
vt -0.005256 1.005256
vt 0.329829 0.335086
vt -0.005256 0.000000
vt 0.664914 0.335086
vt -0.005256 0.670171
vt -0.005256 0.335085
vt 0.329829 0.670171
s 0
usemtl マテリアル.037
f 2/4/1 3/9/1 1/1/1
f 4/11/2 7/20/2 3/7/2
f 8/24/3 5/14/3 7/19/3
f 6/17/4 1/2/4 5/13/4
f 7/21/5 1/3/5 3/8/5
f 4/12/6 6/18/6 8/22/6
f 2/4/1 4/10/1 3/9/1
f 4/11/2 8/23/2 7/20/2
f 8/24/3 6/16/3 5/14/3
f 6/17/4 2/5/4 1/2/4
f 7/21/5 5/15/5 1/3/5
f 4/12/6 2/6/6 6/18/6
