# Blender 3.5.0
# www.blender.org
mtllib rock6.mtl
o ICO球.001
v 79.066597 -10.872053 204.054474
v 94.754402 -3.254739 218.327911
v 73.074509 -3.254743 227.149597
v 59.675438 -3.254685 204.054474
v 73.074509 -3.254743 180.959351
v 97.624924 -3.254739 184.426361
v 85.058685 9.070636 227.149597
v 63.378792 9.070631 218.327911
v 63.378792 9.070631 185.207672
v 85.058685 9.070636 180.959351
v 98.457756 9.070578 204.054474
v 79.066597 16.687946 204.054474
v 75.544563 -8.814071 217.629349
v 88.287590 -8.814068 212.444138
v 84.765594 -4.336719 226.019135
v 97.508644 -4.336695 204.054474
v 88.287590 -8.814068 195.664810
v 67.668777 -8.814034 204.054474
v 64.146652 -4.336699 217.629395
v 75.544563 -8.814071 190.479599
v 56.490372 -4.336699 182.427063
v 84.765594 -4.336719 177.744125
v 99.685532 2.907946 212.444168
v 96.716209 2.907946 181.872314
v 79.066597 2.907946 231.204468
v 91.809792 2.907946 226.019272
v 58.447662 2.907946 212.444168
v 66.323402 2.907946 226.019272
v 63.533627 2.907946 178.610550
v 55.657883 2.907946 191.091415
v 91.809792 2.907946 177.743988
v 79.066597 2.907946 176.904480
v 93.986542 10.152591 217.629395
v 73.367599 10.152611 226.019135
v 60.624550 10.152587 204.054474
v 73.367599 10.152611 182.089813
v 93.986542 10.152591 185.124893
v 82.588631 14.629964 217.629349
v 90.464417 14.629927 204.054474
v 69.845604 14.629961 212.444138
v 69.845604 14.629961 195.664810
v 82.588631 14.629964 190.479599
vn 0.0678 -0.9837 0.1667
vn 0.5502 -0.8179 0.1682
vn -0.1768 -0.9789 0.1025
vn -0.1768 -0.9789 -0.1025
vn 0.0678 -0.9837 -0.1667
vn 0.8495 -0.4879 0.2009
vn 0.0270 -0.5677 0.8228
vn -0.8388 -0.4901 0.2372
vn -0.0522 -0.4252 -0.9036
vn 0.4442 -0.4319 -0.7849
vn 0.8460 -0.2083 0.4908
vn -0.3662 -0.2361 0.9001
vn -0.9288 -0.3502 0.1213
vn -0.0957 -0.4805 -0.8718
vn 0.6285 -0.2169 -0.7470
vn 0.3336 0.8492 0.4093
vn -0.3819 0.8436 0.3773
vn -0.5230 0.8432 -0.1248
vn 0.0321 0.8667 -0.4978
vn 0.5688 0.8178 -0.0876
vn 0.1768 0.9789 -0.1025
vn 0.2907 0.9418 -0.1687
vn 0.1175 0.8705 -0.4779
vn -0.0678 0.9837 -0.1667
vn -0.1394 0.9291 -0.3426
vn -0.2095 0.9112 -0.3549
vn -0.2178 0.9760 -0.0000
vn -0.4368 0.8996 -0.0000
vn -0.5502 0.8179 0.1682
vn -0.0678 0.9837 0.1667
vn -0.1394 0.9291 0.3426
vn 0.0321 0.8667 0.4978
vn 0.1768 0.9789 0.1025
vn 0.3577 0.9105 0.2075
vn 0.5667 0.8149 0.1217
vn 0.8890 0.4185 -0.1861
vn 0.5554 0.5057 -0.6601
vn 0.2545 0.6516 -0.7146
vn -0.0270 0.5677 -0.8228
vn -0.0926 0.5304 -0.8427
vn -0.2812 0.6980 -0.6586
vn -0.6809 0.7187 -0.1408
vn -0.9049 0.4088 0.1182
vn -0.8495 0.4879 0.2009
vn -0.5509 0.5356 0.6401
vn -0.3539 0.3441 0.8697
vn -0.0270 0.5677 0.8228
vn 0.5871 0.5311 0.6109
vn 0.8235 0.3059 0.4778
vn 0.8388 0.4901 0.2372
vn 0.0566 0.5098 -0.8584
vn 0.0656 -0.0638 -0.9958
vn -0.2786 -0.3240 -0.9041
vn -0.7410 0.4819 -0.4676
vn -0.7438 0.4759 -0.4694
vn -0.9439 -0.2922 0.1536
vn -0.8460 0.2083 0.4908
vn -0.8235 -0.3059 0.4778
vn -0.5871 -0.5311 0.6109
vn 0.3662 0.2361 0.9001
vn 0.3539 -0.3441 0.8697
vn 0.5509 -0.5356 0.6401
vn 0.9931 0.0665 -0.0965
vn 0.9783 -0.1839 -0.0950
vn 0.9883 0.1516 0.0142
vn 0.2227 -0.9346 -0.2773
vn 0.1060 -0.9596 -0.2606
vn -0.2050 -0.8674 -0.4534
vn 0.0114 -0.8622 -0.5064
vn -0.1844 -0.9770 -0.1070
vn -0.5666 -0.8146 0.1242
vn -0.5667 -0.8149 0.1217
vn -0.3577 -0.9105 0.2075
vn -0.3336 -0.8492 0.4093
vn 0.4698 -0.8816 -0.0458
vn 0.4368 -0.8996 -0.0000
vn 0.2178 -0.9760 -0.0000
vn -0.0321 -0.8667 0.4978
vn 0.1394 -0.9291 0.3426
vn 0.3819 -0.8436 0.3773
vt 0.822026 0.960833
vt 0.942742 0.000000
vt 0.839031 0.614221
vt 0.912557 0.863769
vt 0.541914 0.875922
vt 0.912558 0.766708
vt 0.194172 0.762453
vt 0.692096 0.054880
vt 0.541915 0.681797
vt 0.333334 0.880338
vt 0.821924 0.322656
vt 0.651438 0.724527
vt 0.651438 0.572038
vt 0.822027 0.669647
vt 0.541915 0.875922
vt 0.772155 0.054880
vt 0.200701 0.555631
vt 0.441870 0.322656
vt 0.276724 0.121254
vt 0.912455 0.419718
vt 0.531176 0.178125
vt 0.352565 0.560309
vt 1.000000 0.421695
vt 0.651438 0.669647
vt 0.276724 0.238698
vt 0.626232 0.245366
vt 0.238534 0.436623
vt 0.634103 0.057267
vt 0.103640 0.318935
vt 0.451384 0.322656
vt 0.835387 0.559340
vt 0.333336 0.686215
vt 0.194171 0.665390
vt 0.443096 0.767132
vt 0.090530 0.880148
vt 0.651438 0.834288
vt 0.822027 0.863772
vt 0.090532 0.783086
vt 0.560907 0.723981
vt 0.451384 0.532115
vt 0.900461 0.257208
vt 0.912558 0.728893
vt 0.000000 0.384726
vt 0.090399 0.976258
vt 0.651437 0.875924
vt 0.729723 0.889167
vt 0.912558 0.831830
vt 0.809931 0.275187
vt 0.332132 0.977400
vt 0.451384 0.419137
vt 0.900461 0.178125
vt 0.432242 0.000000
vt 0.839031 0.669100
vt 0.197229 0.055692
vt 0.925918 0.559339
vt 0.443095 0.864193
vt 0.651436 0.972984
vt 0.194169 0.956574
vt 0.912558 0.766708
vt 0.822026 0.863772
vt 0.942742 0.097061
vt 0.634103 0.000000
vt 0.731497 0.704650
vt 0.451384 0.840920
vt 0.451384 0.626917
vt 0.731497 0.925831
vt 0.822027 0.731706
vt 0.000000 0.631144
vt 0.451384 0.910924
vt 0.546438 0.572038
vt 0.333334 0.783276
vt 0.821924 0.419718
vt 0.626232 0.178125
vt 0.451384 0.716799
vt 0.541915 0.778860
vt 0.546438 0.681797
vt 0.242804 0.845336
vt 0.912558 0.669647
vt 0.194172 0.859514
vt 0.000000 0.144822
vt 0.692096 0.172666
vt 0.451384 0.451807
vt 0.095054 0.686025
vt 0.822027 0.898770
vt 0.154494 0.201453
vt 0.213398 0.436623
vt 0.352565 0.404038
vt 0.095054 0.576265
vt 0.541914 0.972983
vt 0.852211 0.035001
vt 0.919088 0.559340
vt 0.197229 0.000000
vt 0.355379 0.178125
vt 0.821924 0.384715
vt 0.539049 0.054881
vt 0.852211 0.000000
vt 0.095056 0.576265
vt 0.560907 0.607041
vt 0.912455 0.322656
vt 0.634103 0.109760
vt 0.822027 0.766710
vt 0.919088 0.669100
vt 0.912557 0.960829
vt 0.103640 0.436623
vt 0.748500 0.669647
vt 0.352565 0.178125
vt 0.094023 0.037358
vt 0.531176 0.315028
vt 0.633387 0.371352
vt 0.441870 0.178125
vt 0.352565 0.352673
vt 0.197229 0.178125
vt 0.355379 0.000000
vt 0.719398 0.178125
vt 0.651438 0.509187
vt 1.000000 0.322656
vt 0.218537 0.318935
vt 0.149735 0.318935
vt 0.668202 0.572038
vt 0.103640 0.797455
vt 0.772155 0.000000
vt 0.337859 0.466695
vt 0.839031 0.572038
vt 0.276724 0.000000
vt 0.094023 0.201453
vt 0.200701 0.508813
vt 0.432242 0.166029
vt 0.266846 0.299790
vt 0.276724 0.201453
vt 0.094023 0.000000
vt 0.692096 0.000000
vt 0.731392 0.357657
vt 0.731497 0.669647
vt 0.538331 0.377538
vt 0.242804 0.721216
vt 0.352565 0.732128
vt 0.531176 0.233007
vt 0.772155 0.109761
vt 0.194171 0.762453
vt 0.242804 0.521575
vt 0.443096 0.670068
vt 0.626232 0.287886
vt 0.541915 0.778861
vt 0.852211 0.109761
vt 0.103640 0.555631
vt 0.000000 0.237594
vt 0.822027 0.766710
vt 0.640965 0.669101
vt 0.095056 0.466504
vt 0.731497 0.779407
vt 0.000000 0.748084
vt 0.633387 0.432417
vt 0.640965 0.778862
vt 0.000000 0.521384
vt 0.651438 0.669101
vt 0.441870 0.246514
vt 0.382231 0.451807
vt 0.300371 0.352674
vt 0.974167 0.795047
vt 0.000000 0.976258
vt 0.731392 0.426711
vt 0.180244 0.436623
vt 0.095991 0.333978
vt 0.103640 0.333978
vt 0.039878 0.880148
vt 0.731392 0.322656
vt 0.352565 0.241379
vt 0.719398 0.287886
vt 0.238534 0.539034
vt 0.218537 0.296494
vt 0.982790 0.901661
vt 0.242804 0.934629
vt 0.744856 0.566811
vt 0.449627 0.560309
vt 0.719398 0.240186
vt 0.242804 0.466695
vt 0.332132 0.880338
vt 0.744856 0.462279
vt 0.912455 0.379779
vt 0.744856 0.524338
vt 0.556383 0.517157
vt 0.809930 0.213128
vt 0.103640 0.700393
vt 0.337859 0.576456
vt 0.748500 0.634100
vt 0.000000 0.845145
vt 0.447619 0.560309
vt 0.352565 0.802134
vt 0.090532 0.686025
vt 0.633387 0.322656
vt 0.333336 0.783276
vt 0.556383 0.462279
vt 0.337857 0.576456
vt 0.731495 0.889167
vt 0.095991 0.466504
vt 0.103640 0.201453
vt 0.731497 0.828771
vt 0.560907 0.840922
vt 0.198694 0.665390
vt 0.980240 0.287885
vt 0.809931 0.178125
vt 0.352565 0.466695
vt 0.974167 0.669647
vt 0.538331 0.322656
vt 0.539049 0.000000
vt 0.651438 0.901696
vt 0.355379 0.104691
vt 0.266846 0.201453
vt 0.982790 0.795047
vt 0.835387 0.462279
vt 0.194169 0.859514
vt 0.447619 0.670068
vt 0.443096 0.864193
vt 0.912558 0.863769
vt 0.651438 0.572038
vt 0.538331 0.462279
vt 0.835387 0.524338
vt 0.432242 0.089926
vt 0.822027 0.801709
vt 0.651438 0.462279
vt 0.900461 0.275187
vt 0.090530 0.783086
vt 0.651436 0.875924
vt 0.337857 0.686215
vt 0.731495 0.779408
vt 0.103640 0.921573
vt 0.352565 0.615189
vt 0.556383 0.572038
vt 0.352565 0.899195
vt 0.103640 0.610510
vt 0.980240 0.178125
vt 0.560907 0.937982
vt 0.242804 0.631337
vt 0.651437 0.778862
vt 0.925918 0.462279
vt 0.539049 0.115214
vt 0.729723 0.986229
vt 0.443095 0.961254
vt 0.198694 0.555631
s 0
usemtl マテリアル.088
f 1/1/1 14/66/1 13/60/1
f 2/6/2 14/67/2 16/78/2
f 1/2/3 13/61/3 18/90/3
f 1/3/4 18/91/4 20/102/4
f 1/4/5 20/103/5 17/84/5
f 2/7/6 16/79/6 23/120/6
f 3/11/7 15/72/7 25/132/7
f 4/16/8 19/96/8 27/144/8
f 5/21/9 21/108/9 29/156/9
f 6/26/10 22/114/10 31/168/10
f 2/8/11 23/121/11 26/138/11
f 3/12/12 25/133/12 28/150/12
f 4/17/13 27/145/13 30/162/13
f 5/22/14 29/157/14 32/174/14
f 6/27/15 31/169/15 24/126/15
f 7/31/16 33/180/16 38/210/16
f 8/35/17 34/186/17 40/222/17
f 9/40/18 35/192/18 41/228/18
f 10/45/19 36/198/19 42/234/19
f 11/50/20 37/204/20 39/216/20
f 39/217/21 42/235/21 12/55/21
f 39/218/22 37/205/22 42/236/22
f 37/206/23 10/46/23 42/237/23
f 42/238/24 41/229/24 12/56/24
f 42/239/25 36/199/25 41/230/25
f 36/200/26 9/41/26 41/231/26
f 41/232/27 40/223/27 12/57/27
f 41/233/28 35/193/28 40/224/28
f 35/194/29 8/36/29 40/225/29
f 40/226/30 38/211/30 12/58/30
f 40/227/31 34/187/31 38/212/31
f 34/188/32 7/34/32 38/213/32
f 38/214/33 39/219/33 12/59/33
f 38/215/34 33/181/34 39/220/34
f 33/182/35 11/51/35 39/221/35
f 24/127/36 37/207/36 11/52/36
f 24/128/37 31/170/37 37/208/37
f 31/171/38 10/47/38 37/209/38
f 32/175/39 36/201/39 10/48/39
f 32/176/40 29/158/40 36/202/40
f 29/159/41 9/42/41 36/203/41
f 30/163/42 35/195/42 9/43/42
f 30/164/43 27/146/43 35/196/43
f 27/147/44 8/37/44 35/197/44
f 28/151/45 34/189/45 8/38/45
f 28/152/46 25/134/46 34/190/46
f 25/135/47 7/32/47 34/191/47
f 26/139/48 33/183/48 7/33/48
f 26/140/49 23/122/49 33/184/49
f 23/123/50 11/53/50 33/185/50
f 31/172/51 32/177/51 10/49/51
f 31/173/52 22/115/52 32/178/52
f 22/116/53 5/23/53 32/179/53
f 29/160/54 30/165/54 9/44/54
f 29/161/55 21/109/55 30/166/55
f 21/110/56 4/18/56 30/167/56
f 27/148/57 28/153/57 8/39/57
f 27/149/58 19/97/58 28/154/58
f 19/98/59 3/13/59 28/155/59
f 25/136/60 26/141/60 7/34/60
f 25/137/61 15/73/61 26/142/61
f 15/74/62 2/9/62 26/143/62
f 23/124/63 24/129/63 11/54/63
f 23/125/64 16/80/64 24/130/64
f 16/81/65 6/28/65 24/131/65
f 17/85/66 22/117/66 6/29/66
f 17/86/67 20/104/67 22/118/67
f 20/105/68 5/24/68 22/119/68
f 20/106/69 21/111/69 5/25/69
f 20/107/70 18/92/70 21/112/70
f 18/93/71 4/19/71 21/113/71
f 18/94/72 19/99/72 4/20/72
f 18/95/73 13/62/73 19/100/73
f 13/63/74 3/14/74 19/101/74
f 16/82/75 17/87/75 6/30/75
f 16/83/76 14/68/76 17/88/76
f 14/69/77 1/5/77 17/89/77
f 13/64/78 15/75/78 3/15/78
f 13/65/79 14/70/79 15/76/79
f 14/71/80 2/10/80 15/77/80
