# Blender 3.5.0
# www.blender.org
mtllib house61.mtl
o 立方体.089
v 238.300507 17.939066 257.862335
v 238.300507 19.939066 257.862335
v 238.300507 17.939066 177.862335
v 238.300507 19.939066 177.862335
v 262.300507 17.939066 257.862335
v 262.300507 19.939066 257.862335
v 262.300507 17.939066 177.862335
v 262.300507 19.939066 177.862335
v 238.300507 17.939066 217.862335
v 238.300507 18.939066 257.862335
v 238.300507 19.939066 217.862335
v 238.300507 18.939066 177.862335
v 250.300507 25.469898 177.862335
v 250.300507 27.469898 177.862335
v 262.300507 18.939066 177.862335
v 262.300507 17.939066 217.862335
v 262.300507 19.939066 217.862335
v 262.300507 18.939066 257.862335
v 250.300507 25.469898 257.862335
v 250.300507 27.469898 257.862335
v 238.300507 18.939066 217.862335
v 250.300507 26.469898 177.862335
v 262.300507 18.939066 217.862335
v 250.300507 26.469898 257.862335
v 250.300507 25.469898 217.862335
v 250.300507 27.469898 217.862335
v 238.300507 17.939066 237.862335
v 238.300507 19.439066 257.862335
v 238.300507 19.939066 197.862335
v 238.300507 18.439066 177.862335
v 244.300507 20.723320 177.862335
v 256.300507 22.723320 177.862335
v 262.300507 18.439066 177.862335
v 262.300507 17.939066 197.862335
v 262.300507 19.939066 237.862335
v 262.300507 18.439066 257.862335
v 256.300507 20.723320 257.862335
v 244.300507 22.723320 257.862335
v 238.300507 19.439066 237.862335
v 244.300507 22.223320 177.862335
v 262.300507 19.439066 197.862335
v 256.300507 22.223320 257.862335
v 256.300507 20.723320 197.862335
v 244.300507 22.723320 197.862335
v 238.300507 17.939066 197.862335
v 238.300507 18.439066 257.862335
v 238.300507 19.939066 237.862335
v 238.300507 19.439066 177.862335
v 256.300507 20.723320 177.862335
v 244.300507 22.723320 177.862335
v 262.300507 19.439066 177.862335
v 262.300507 17.939066 237.862335
v 262.300507 19.939066 197.862335
v 262.300507 19.439066 257.862335
v 244.300507 20.723320 257.862335
v 256.300507 22.723320 257.862335
v 238.300507 18.439066 197.862335
v 256.300507 21.223320 177.862335
v 262.300507 18.439066 237.862335
v 244.300507 21.223320 257.862335
v 244.300507 20.723320 237.862335
v 256.300507 22.723320 237.862335
v 250.300507 27.469898 237.862335
v 244.300507 22.723320 217.862335
v 244.300507 22.723320 237.862335
v 250.300507 25.469898 237.862335
v 256.300507 20.723320 217.862335
v 256.300507 20.723320 237.862335
v 244.300507 21.723320 257.862335
v 250.300507 26.969898 257.862335
v 244.300507 22.223320 257.862335
v 262.300507 18.939066 237.862335
v 262.300507 19.439066 217.862335
v 262.300507 19.439066 237.862335
v 256.300507 21.723320 177.862335
v 250.300507 26.969898 177.862335
v 256.300507 22.223320 177.862335
v 238.300507 18.939066 197.862335
v 238.300507 19.439066 217.862335
v 238.300507 19.439066 197.862335
v 256.300507 22.723320 197.862335
v 250.300507 27.469898 197.862335
v 256.300507 22.723320 217.862335
v 244.300507 20.723320 197.862335
v 250.300507 25.469898 197.862335
v 244.300507 20.723320 217.862335
v 256.300507 21.223320 257.862335
v 256.300507 21.723320 257.862335
v 250.300507 25.969898 257.862335
v 262.300507 18.439066 197.862335
v 262.300507 18.939066 197.862335
v 262.300507 18.439066 217.862335
v 244.300507 21.223320 177.862335
v 244.300507 21.723320 177.862335
v 250.300507 25.969898 177.862335
v 238.300507 18.439066 237.862335
v 238.300507 18.939066 237.862335
v 238.300507 18.439066 217.862335
vn -1.0000 -0.0000 -0.0000
vn -0.0000 -0.0000 -1.0000
vn 1.0000 -0.0000 -0.0000
vn -0.0000 -0.0000 1.0000
vn -0.4209 -0.9071 -0.0000
vn -0.4209 0.9071 -0.0000
vn 0.6204 0.7843 -0.0000
vn -0.6204 0.7843 -0.0000
vn 0.6204 -0.7843 -0.0000
vn -0.6204 -0.7843 -0.0000
vn 0.4209 -0.9071 -0.0000
vn 0.4209 0.9071 -0.0000
vt -2.504687 0.000000
vt -2.504687 15.591563
vt -4.194531 11.693673
vt -0.814844 0.000000
vt -0.814844 15.591563
vt 0.875000 11.693673
vt -4.194531 7.795782
vt -2.504687 3.897891
vt 0.875000 7.795782
vt -0.814844 3.897891
vt -2.504687 11.693673
vt -0.814844 11.693673
vt -2.504687 7.795782
vt -0.814844 7.795782
vt -2.504687 1.948946
vt -4.194531 9.744727
vt -1.659765 15.591563
vt -1.659765 0.000000
vt 0.875000 9.744727
vt -0.814844 1.948946
vt -1.659765 3.897891
vt -2.504687 5.846837
vt -3.349608 7.795782
vt -0.814844 5.846837
vt 0.030078 7.795782
vt -1.659765 7.795782
vt -2.504687 9.744727
vt -0.814844 9.744727
vt -1.659765 11.693673
vt -2.504687 13.642618
vt -3.349608 11.693673
vt 0.030078 11.693673
vt -0.814844 13.642618
vt -1.659765 1.948946
vt -1.659765 5.846837
vt -1.659765 9.744727
vt -1.659765 13.642618
vt -3.349608 9.744727
vt 0.030078 9.744727
vt -2.504687 0.974473
vt -4.194531 10.719200
vt -1.237304 15.591563
vt -1.237304 0.000000
vt -0.814844 2.923418
vt 0.875000 8.770255
vt -2.082226 3.897891
vt -2.504687 4.872364
vt -3.772069 7.795782
vt -0.392383 7.795782
vt -0.814844 6.821309
vt -2.082226 7.795782
vt -2.504687 8.770255
vt -0.814844 10.719200
vt -2.082226 11.693673
vt -2.504687 12.668145
vt -2.927148 11.693673
vt -0.814844 14.617090
vt 0.452539 11.693673
vt -1.237304 0.974473
vt -1.237304 4.872364
vt -1.237304 8.770255
vt -1.237304 12.668145
vt -2.927148 8.770255
vt 0.452539 8.770255
vt -2.504687 2.923418
vt -4.194531 8.770255
vt -2.082226 0.000000
vt -2.082226 15.591563
vt 0.875000 10.719200
vt -0.814844 0.974473
vt -1.237304 3.897891
vt -2.504687 6.821309
vt -2.927148 7.795782
vt -0.814844 4.872364
vt 0.452539 7.795782
vt -1.237304 7.795782
vt -2.504687 10.719200
vt -0.814844 8.770255
vt -1.237304 11.693673
vt -2.504687 14.617090
vt -3.772069 11.693673
vt -0.392383 11.693673
vt -0.814844 12.668145
vt -2.082226 2.923418
vt -2.082226 6.821309
vt -2.082226 10.719200
vt -2.082226 14.617090
vt -3.772069 10.719200
vt -0.392383 10.719200
vt 0.030078 10.719200
vt 0.452539 9.744727
vt 0.452539 10.719200
vt -3.349608 10.719200
vt -2.927148 9.744727
vt -2.927148 10.719200
vt -1.659765 14.617090
vt -1.237304 13.642618
vt -1.237304 14.617090
vt -1.659765 10.719200
vt -1.237304 9.744727
vt -1.237304 10.719200
vt -1.659765 6.821309
vt -1.237304 5.846837
vt -1.237304 6.821309
vt -1.659765 2.923418
vt -1.237304 1.948946
vt -1.237304 2.923418
vt -0.392383 8.770255
vt 0.030078 8.770255
vt -0.392383 9.744727
vt -3.772069 8.770255
vt -3.349608 8.770255
vt -3.772069 9.744727
vt -2.082226 12.668145
vt -1.659765 12.668145
vt -2.082226 13.642618
vt -2.082226 8.770255
vt -1.659765 8.770255
vt -2.082226 9.744727
vt -2.082226 4.872364
vt -1.659765 4.872364
vt -2.082226 5.846837
vt -2.082226 0.974473
vt -1.659765 0.974473
vt -2.082226 1.948946
s 0
usemtl マテリアル.014
f 2/4/1 39/59/1 28/43/1
f 4/10/2 40/60/2 48/71/2
f 8/14/3 41/61/3 51/76/3
f 6/12/4 42/62/4 54/79/4
f 7/13/5 43/63/5 49/73/5
f 4/9/6 44/64/6 50/75/6
f 2/4/1 47/70/1 39/59/1
f 4/10/2 50/74/2 40/60/2
f 8/14/3 53/78/3 41/61/3
f 6/12/4 56/83/4 42/62/4
f 7/13/5 34/52/5 43/63/5
f 4/9/6 29/45/6 44/64/6
f 26/39/7 63/90/7 62/89/7
f 26/39/8 64/91/8 63/90/8
f 11/19/6 47/69/6 65/92/6
f 25/38/9 66/93/9 61/88/9
f 25/38/10 67/94/10 66/93/10
f 16/27/5 52/77/5 68/95/5
f 24/37/4 69/96/4 60/87/4
f 24/37/4 70/97/4 69/96/4
f 20/33/4 38/57/4 71/98/4
f 23/36/3 72/99/3 59/86/3
f 23/36/3 73/100/3 72/99/3
f 17/28/3 35/53/3 74/101/3
f 22/35/2 75/102/2 58/85/2
f 22/35/2 76/103/2 75/102/2
f 14/24/2 32/50/2 77/104/2
f 21/34/1 78/105/1 57/84/1
f 21/34/1 79/106/1 78/105/1
f 11/20/1 29/44/1 80/107/1
f 14/25/7 81/108/7 32/49/7
f 14/25/7 82/109/7 81/108/7
f 26/39/7 62/89/7 83/110/7
f 13/23/9 84/111/9 31/48/9
f 13/23/9 85/112/9 84/111/9
f 25/38/9 61/88/9 86/113/9
f 18/29/4 87/114/4 36/54/4
f 18/29/4 88/115/4 87/114/4
f 24/37/4 60/87/4 89/116/4
f 15/26/3 90/117/3 33/51/3
f 15/26/3 91/118/3 90/117/3
f 23/36/3 59/86/3 92/119/3
f 12/21/2 93/120/2 30/46/2
f 12/21/2 94/121/2 93/120/2
f 22/35/2 58/85/2 95/122/2
f 10/18/1 96/123/1 46/67/1
f 10/18/1 97/124/1 96/123/1
f 21/34/1 57/84/1 98/125/1
f 98/125/1 45/65/1 9/15/1
f 98/125/1 57/84/1 45/65/1
f 57/84/1 3/8/1 45/65/1
f 96/123/1 98/125/1 9/15/1
f 96/123/1 97/124/1 98/125/1
f 97/124/1 21/34/1 98/125/1
f 46/67/1 27/40/1 1/1/1
f 46/67/1 96/123/1 27/40/1
f 96/123/1 9/15/1 27/40/1
f 95/122/2 49/72/2 13/22/2
f 95/122/2 58/85/2 49/72/2
f 58/85/2 7/13/2 49/72/2
f 93/120/2 95/122/2 13/22/2
f 93/120/2 94/121/2 95/122/2
f 94/121/2 22/35/2 95/122/2
f 30/46/2 31/47/2 3/8/2
f 30/46/2 93/120/2 31/47/2
f 93/120/2 13/22/2 31/47/2
f 92/119/3 52/77/3 16/27/3
f 92/119/3 59/86/3 52/77/3
f 59/86/3 5/11/3 52/77/3
f 90/117/3 92/119/3 16/27/3
f 90/117/3 91/118/3 92/119/3
f 91/118/3 23/36/3 92/119/3
f 33/51/3 34/52/3 7/13/3
f 33/51/3 90/117/3 34/52/3
f 90/117/3 16/27/3 34/52/3
f 89/116/4 55/80/4 19/30/4
f 89/116/4 60/87/4 55/80/4
f 60/87/4 1/2/4 55/80/4
f 87/114/4 89/116/4 19/30/4
f 87/114/4 88/115/4 89/116/4
f 88/115/4 24/37/4 89/116/4
f 36/54/4 37/55/4 5/11/4
f 36/54/4 87/114/4 37/55/4
f 87/114/4 19/30/4 37/55/4
f 86/113/11 27/41/11 9/16/11
f 86/113/11 61/88/11 27/41/11
f 61/88/11 1/3/11 27/41/11
f 84/111/11 86/113/11 9/16/11
f 84/111/9 85/112/9 86/113/9
f 85/112/9 25/38/9 86/113/9
f 31/48/11 45/66/11 3/7/11
f 31/48/11 84/111/11 45/66/11
f 84/111/11 9/16/11 45/66/11
f 83/110/12 35/53/12 17/28/12
f 83/110/12 62/89/12 35/53/12
f 62/89/12 6/12/12 35/53/12
f 81/108/12 83/110/12 17/28/12
f 81/108/7 82/109/7 83/110/7
f 82/109/7 26/39/7 83/110/7
f 32/49/12 53/78/12 8/14/12
f 32/49/12 81/108/12 53/78/12
f 81/108/12 17/28/12 53/78/12
f 80/107/1 48/71/1 12/21/1
f 80/107/1 29/44/1 48/71/1
f 29/44/1 4/10/1 48/71/1
f 78/105/1 80/107/1 12/21/1
f 78/105/1 79/106/1 80/107/1
f 79/106/1 11/20/1 80/107/1
f 57/84/1 30/46/1 3/8/1
f 57/84/1 78/105/1 30/46/1
f 78/105/1 12/21/1 30/46/1
f 77/104/2 51/76/2 15/26/2
f 77/104/2 32/50/2 51/76/2
f 32/50/2 8/14/2 51/76/2
f 75/102/2 77/104/2 15/26/2
f 75/102/2 76/103/2 77/104/2
f 76/103/2 14/24/2 77/104/2
f 58/85/2 33/51/2 7/13/2
f 58/85/2 75/102/2 33/51/2
f 75/102/2 15/26/2 33/51/2
f 74/101/3 54/79/3 18/29/3
f 74/101/3 35/53/3 54/79/3
f 35/53/3 6/12/3 54/79/3
f 72/99/3 74/101/3 18/29/3
f 72/99/3 73/100/3 74/101/3
f 73/100/3 17/28/3 74/101/3
f 59/86/3 36/54/3 5/11/3
f 59/86/3 72/99/3 36/54/3
f 72/99/3 18/29/3 36/54/3
f 71/98/4 28/42/4 10/17/4
f 71/98/4 38/57/4 28/42/4
f 38/57/4 2/5/4 28/42/4
f 69/96/4 71/98/4 10/17/4
f 69/96/4 70/97/4 71/98/4
f 70/97/4 20/33/4 71/98/4
f 60/87/4 46/68/4 1/2/4
f 60/87/4 69/96/4 46/68/4
f 69/96/4 10/17/4 46/68/4
f 68/95/10 37/56/10 19/31/10
f 68/95/5 52/77/5 37/56/5
f 52/77/5 5/11/5 37/56/5
f 66/93/10 68/95/10 19/31/10
f 66/93/10 67/94/10 68/95/10
f 67/94/5 16/27/5 68/95/5
f 61/88/11 55/81/11 1/3/11
f 61/88/9 66/93/9 55/81/9
f 66/93/9 19/31/9 55/81/9
f 65/92/8 38/58/8 20/32/8
f 65/92/6 47/69/6 38/58/6
f 47/69/6 2/6/6 38/58/6
f 63/90/8 65/92/8 20/32/8
f 63/90/8 64/91/8 65/92/8
f 64/91/6 11/19/6 65/92/6
f 62/89/12 56/82/12 6/12/12
f 62/89/7 63/90/7 56/82/7
f 63/90/7 20/32/7 56/82/7
f 44/64/8 64/91/8 26/39/8
f 44/64/6 29/45/6 64/91/6
f 29/45/6 11/19/6 64/91/6
f 43/63/10 67/94/10 25/38/10
f 43/63/5 34/52/5 67/94/5
f 34/52/5 16/27/5 67/94/5
f 42/62/4 70/97/4 24/37/4
f 42/62/4 56/83/4 70/97/4
f 56/83/4 20/33/4 70/97/4
f 41/61/3 73/100/3 23/36/3
f 41/61/3 53/78/3 73/100/3
f 53/78/3 17/28/3 73/100/3
f 40/60/2 76/103/2 22/35/2
f 40/60/2 50/74/2 76/103/2
f 50/74/2 14/24/2 76/103/2
f 39/59/1 79/106/1 21/34/1
f 39/59/1 47/70/1 79/106/1
f 47/70/1 11/20/1 79/106/1
f 50/75/8 82/109/8 14/25/8
f 50/75/8 44/64/8 82/109/8
f 44/64/8 26/39/8 82/109/8
f 49/73/10 85/112/10 13/23/10
f 49/73/10 43/63/10 85/112/10
f 43/63/10 25/38/10 85/112/10
f 54/79/4 88/115/4 18/29/4
f 54/79/4 42/62/4 88/115/4
f 42/62/4 24/37/4 88/115/4
f 51/76/3 91/118/3 15/26/3
f 51/76/3 41/61/3 91/118/3
f 41/61/3 23/36/3 91/118/3
f 48/71/2 94/121/2 12/21/2
f 48/71/2 40/60/2 94/121/2
f 40/60/2 22/35/2 94/121/2
f 28/43/1 97/124/1 10/18/1
f 28/43/1 39/59/1 97/124/1
f 39/59/1 21/34/1 97/124/1
