# Blender 3.5.0
# www.blender.org
mtllib house4.mtl
o 立方体.004
v -114.898010 2.277948 51.249680
v -114.898010 11.277964 51.249680
v -114.898010 2.277948 37.089676
v -114.898010 11.277964 37.089676
v -106.898010 2.277948 51.249680
v -106.898010 11.277964 51.249680
v -106.898010 2.277948 37.089676
v -106.898010 11.277964 37.089676
vn -1.0000 -0.0000 -0.0000
vn -0.0000 -0.0000 -1.0000
vn 1.0000 -0.0000 -0.0000
vn -0.0000 -0.0000 1.0000
vn -0.0000 -1.0000 -0.0000
vn -0.0000 1.0000 -0.0000
vt 1.000000 0.000000
vt 0.331000 0.000000
vt 0.331000 0.669000
vt 1.000000 0.334500
vt 0.331000 0.334500
vt 0.331000 1.003500
vt 0.331000 0.000000
vt 0.331000 0.334500
vt 0.665500 0.000000
vt 0.665500 0.334500
vt 0.331000 0.334500
vt 0.331000 0.669000
vt 0.665500 0.000000
vt -0.003500 0.334500
vt 0.665500 0.669000
vt -0.003500 0.669000
vt 0.665500 0.334500
vt -0.003500 1.003500
vt 0.331000 0.334500
vt -0.003500 0.000000
vt 0.665500 0.334500
vt -0.003500 0.669000
vt -0.003500 0.334500
vt 0.331000 0.669000
s 0
usemtl マテリアル.009
f 2/4/1 3/9/1 1/1/1
f 4/11/2 7/20/2 3/7/2
f 8/24/3 5/14/3 7/19/3
f 6/17/4 1/2/4 5/13/4
f 7/21/5 1/3/5 3/8/5
f 4/12/6 6/18/6 8/22/6
f 2/4/1 4/10/1 3/9/1
f 4/11/2 8/23/2 7/20/2
f 8/24/3 6/16/3 5/14/3
f 6/17/4 2/5/4 1/2/4
f 7/21/5 5/15/5 1/3/5
f 4/12/6 2/6/6 6/18/6
