# Blender 3.5.0
# www.blender.org
mtllib house75.mtl
o 円柱
v 53.621872 0.062521 -57.906574
v 53.621872 11.662521 -57.906574
v 53.772610 0.062521 -57.725975
v 53.772610 11.662521 -57.725975
v 53.885220 0.062521 -57.519436
v 53.885220 11.662521 -57.519436
v 53.955372 0.062521 -57.294899
v 53.955372 11.662521 -57.294899
v 53.980370 0.062521 -57.060989
v 53.980370 11.662521 -57.060989
v 53.959255 0.062521 -56.826698
v 53.959255 11.662521 -56.826698
v 53.892838 0.062521 -56.601028
v 53.892838 11.662521 -56.601028
v 53.783669 0.062521 -56.392651
v 53.783669 11.662521 -56.392651
v 53.635948 0.062521 -56.209576
v 53.635948 11.662521 -56.209576
v 53.455349 0.062521 -56.058838
v 53.455349 11.662521 -56.058838
v 53.248810 0.062521 -55.946228
v 53.248810 11.662521 -55.946228
v 53.024273 0.062521 -55.876076
v 53.024273 11.662521 -55.876076
v 52.790363 0.062521 -55.851078
v 52.790363 11.662521 -55.851078
v 52.556072 0.062521 -55.872192
v 52.556072 11.662521 -55.872192
v 52.330402 0.062521 -55.938610
v 52.330402 11.662521 -55.938610
v 52.122025 0.062521 -56.047779
v 52.122025 11.662521 -56.047779
v 51.938950 0.062521 -56.195499
v 51.938950 11.662521 -56.195499
v 51.788212 0.062521 -56.376099
v 51.788212 11.662521 -56.376099
v 51.675602 0.062521 -56.582638
v 51.675602 11.662521 -56.582638
v 51.605450 0.062521 -56.807175
v 51.605450 11.662521 -56.807175
v 51.580452 0.062521 -57.041084
v 51.580452 11.662521 -57.041084
v 51.601566 0.062521 -57.275375
v 51.601566 11.662521 -57.275375
v 51.667984 0.062521 -57.501045
v 51.667984 11.662521 -57.501045
v 51.777153 0.062521 -57.709423
v 51.777153 11.662521 -57.709423
v 51.924873 0.062521 -57.892498
v 51.924873 11.662521 -57.892498
v 52.105473 0.062521 -58.043236
v 52.105473 11.662521 -58.043236
v 52.312012 0.062521 -58.155846
v 52.312012 11.662521 -58.155846
v 52.536549 0.062521 -58.225998
v 52.536549 11.662521 -58.225998
v 52.770458 0.062521 -58.250996
v 52.770458 11.662521 -58.250996
v 53.004749 0.062521 -58.229881
v 53.004749 11.662521 -58.229881
v 53.230419 0.062521 -58.163464
v 53.230419 11.662521 -58.163464
v 53.438797 0.062521 -58.054295
v 53.438797 11.662521 -58.054295
vn 0.7677 -0.0000 -0.6408
vn 0.8780 -0.0000 -0.4787
vn 0.9545 -0.0000 -0.2982
vn 0.9943 -0.0000 -0.1063
vn 0.9960 -0.0000 0.0898
vn 0.9593 -0.0000 0.2823
vn 0.8858 -0.0000 0.4641
vn 0.7782 -0.0000 0.6280
vn 0.6408 -0.0000 0.7677
vn 0.4787 -0.0000 0.8780
vn 0.2982 -0.0000 0.9545
vn 0.1063 -0.0000 0.9943
vn -0.0898 -0.0000 0.9960
vn -0.2823 -0.0000 0.9593
vn -0.4641 -0.0000 0.8858
vn -0.6280 -0.0000 0.7782
vn -0.7677 -0.0000 0.6408
vn -0.8780 -0.0000 0.4787
vn -0.9545 -0.0000 0.2982
vn -0.9943 -0.0000 0.1063
vn -0.9960 -0.0000 -0.0898
vn -0.9593 -0.0000 -0.2823
vn -0.8858 -0.0000 -0.4641
vn -0.7782 -0.0000 -0.6280
vn -0.6408 -0.0000 -0.7677
vn -0.4787 -0.0000 -0.8780
vn -0.2982 -0.0000 -0.9545
vn -0.1063 -0.0000 -0.9943
vn 0.0898 -0.0000 -0.9960
vn 0.2823 -0.0000 -0.9593
vn -0.0000 1.0000 -0.0000
vn 0.4641 -0.0000 -0.8858
vn 0.6280 -0.0000 -0.7782
vn -0.0000 -1.0000 -0.0000
vt -1.837058 0.548809
vt -3.069518 5.172889
vt -0.738483 5.142973
vt 0.505255 0.518749
vt -1.834168 0.773984
vt -3.295268 5.130988
vt 0.508145 0.743925
vt -0.508897 5.140027
vt -1.831446 0.986095
vt -3.508506 5.045852
vt 0.510867 0.956035
vt -0.284297 5.092347
vt -4.173393 1.044707
vt -1.828996 1.176989
vt -3.701037 4.920750
vt 0.513317 1.146930
vt -1.831080 1.014647
vt -0.073313 5.001766
vt -4.171309 1.207049
vt -3.865463 4.760490
vt -1.828996 1.176989
vt 0.115944 4.871765
vt -4.168859 1.397943
vt -3.995464 4.571233
vt -1.826547 1.367883
vt 0.276203 4.707339
vt -4.166138 1.610054
vt -4.086046 4.360250
vt -1.823824 1.579994
vt 0.401306 4.514808
vt -4.163248 1.835229
vt -4.133725 4.135650
vt -1.820935 1.805170
vt 0.486442 4.301569
vt -4.160301 2.064816
vt -4.136672 3.906063
vt -1.817988 2.034756
vt 0.528342 4.075819
vt -4.157412 2.289992
vt -4.094771 3.680313
vt -1.815099 2.259932
vt 0.525396 3.846232
vt -4.154689 2.502102
vt -4.009635 3.467074
vt -1.812376 2.472043
vt 0.477716 3.621632
vt -4.152240 2.692997
vt -3.884533 3.274543
vt -1.809927 2.662937
vt 0.387135 3.410649
vt -1.828996 1.176989
vt -4.150156 2.855340
vt -3.724274 3.110117
vt -1.807843 2.825279
vt 0.513317 1.146929
vt 0.257134 3.221392
vt -1.826913 1.339332
vt -3.535016 2.980116
vt 0.515400 1.309271
vt 0.092708 3.061132
vt -1.824463 1.530226
vt -3.324033 2.889535
vt 0.517850 1.500166
vt -0.099823 2.936030
vt -1.821741 1.742337
vt -3.099432 2.841855
vt 0.520572 1.712277
vt -0.313061 2.850893
vt -1.818851 1.967512
vt -2.869846 2.838908
vt 0.523462 1.937452
vt -0.538812 2.808993
vt -1.815905 2.197099
vt -2.644095 2.880809
vt 0.526408 2.167039
vt -0.768399 2.811939
vt -1.813015 2.422274
vt -2.430858 2.965946
vt 0.529298 2.392214
vt -0.992999 2.859620
vt -1.810293 2.634385
vt -2.238326 3.091048
vt 0.532020 2.604325
vt -1.203982 2.950201
vt -4.192463 -0.441241
vt -1.807843 2.825279
vt -2.073900 3.251307
vt 0.534470 2.795219
vt -1.850150 -0.471301
vt -1.393240 3.080202
vt -4.190013 -0.250347
vt -1.943899 3.440564
vt -1.847700 -0.280406
vt -1.553499 3.244628
vt -4.187291 -0.038236
vt -1.853318 3.651547
vt -1.844978 -0.068296
vt -1.678600 3.437159
vt -4.184402 0.186939
vt -1.805638 3.876148
vt -1.842088 0.156879
vt -1.763737 3.650397
vt -4.181455 0.416526
vt -1.802692 4.105735
vt -1.839142 0.386466
vt -1.805638 3.876147
vt -4.178565 0.641701
vt -1.844592 4.331485
vt -1.836252 0.611642
vt -1.802692 4.105734
vt -4.175843 0.853812
vt -1.929729 4.544723
vt -1.833530 0.823752
vt -1.755012 4.330335
vt -1.850150 -0.471301
vt -4.173393 1.044707
vt -2.054831 4.737254
vt -1.831080 1.014647
vt 0.492163 -0.501360
vt -1.664430 4.541317
vt -1.848066 -0.308959
vt -2.215090 4.901680
vt 0.494247 -0.339018
vt -1.534429 4.730575
vt -1.845616 -0.118064
vt -2.404347 5.031681
vt 0.496697 -0.148124
vt -1.370003 4.890834
vt -1.842895 0.094046
vt -2.615330 5.122262
vt -1.177472 5.015936
vt 0.499419 0.063987
vt -1.840004 0.319222
vt -2.839931 5.169942
vt -0.964234 5.101073
vt 0.502309 0.289162
s 0
usemtl マテリアル.072
f 2/4/1 3/5/1 1/1/1
f 4/7/2 5/9/2 3/5/2
f 6/11/3 7/14/3 5/9/3
f 8/17/4 9/19/4 7/13/4
f 10/21/5 11/23/5 9/19/5
f 12/25/6 13/27/6 11/23/6
f 14/29/7 15/31/7 13/27/7
f 16/33/8 17/35/8 15/31/8
f 18/37/9 19/39/9 17/35/9
f 20/41/10 21/43/10 19/39/10
f 22/45/11 23/47/11 21/43/11
f 24/49/12 25/52/12 23/47/12
f 26/55/13 27/57/13 25/51/13
f 28/59/14 29/61/14 27/57/14
f 30/63/15 31/65/15 29/61/15
f 32/67/16 33/69/16 31/65/16
f 34/71/17 35/73/17 33/69/17
f 36/75/18 37/77/18 35/73/18
f 38/79/19 39/81/19 37/77/19
f 40/83/20 41/86/20 39/81/20
f 42/89/21 43/91/21 41/85/21
f 44/93/22 45/95/22 43/91/22
f 46/97/23 47/99/23 45/95/23
f 48/101/24 49/103/24 47/99/24
f 50/105/25 51/107/25 49/103/25
f 52/109/26 53/111/26 51/107/26
f 54/113/27 55/116/27 53/111/27
f 56/119/28 57/121/28 55/115/28
f 58/123/29 59/125/29 57/121/29
f 60/127/30 61/129/30 59/125/30
f 38/80/31 22/46/31 6/12/31
f 62/132/32 63/133/32 61/129/32
f 64/136/33 1/1/33 63/133/33
f 31/66/34 47/100/34 63/134/34
f 2/4/1 4/7/1 3/5/1
f 4/7/2 6/11/2 5/9/2
f 6/11/3 8/16/3 7/14/3
f 8/17/4 10/21/4 9/19/4
f 10/21/5 12/25/5 11/23/5
f 12/25/6 14/29/6 13/27/6
f 14/29/7 16/33/7 15/31/7
f 16/33/8 18/37/8 17/35/8
f 18/37/9 20/41/9 19/39/9
f 20/41/10 22/45/10 21/43/10
f 22/45/11 24/49/11 23/47/11
f 24/49/12 26/54/12 25/52/12
f 26/55/13 28/59/13 27/57/13
f 28/59/14 30/63/14 29/61/14
f 30/63/15 32/67/15 31/65/15
f 32/67/16 34/71/16 33/69/16
f 34/71/17 36/75/17 35/73/17
f 36/75/18 38/79/18 37/77/18
f 38/79/19 40/83/19 39/81/19
f 40/83/20 42/88/20 41/86/20
f 42/89/21 44/93/21 43/91/21
f 44/93/22 46/97/22 45/95/22
f 46/97/23 48/101/23 47/99/23
f 48/101/24 50/105/24 49/103/24
f 50/105/25 52/109/25 51/107/25
f 52/109/26 54/113/26 53/111/26
f 54/113/27 56/118/27 55/116/27
f 56/119/28 58/123/28 57/121/28
f 58/123/29 60/127/29 59/125/29
f 60/127/30 62/132/30 61/129/30
f 6/12/31 4/8/31 2/3/31
f 2/3/31 64/135/31 6/12/31
f 64/135/31 62/131/31 6/12/31
f 62/131/31 60/128/31 58/124/31
f 58/124/31 56/120/31 54/114/31
f 54/114/31 52/110/31 50/106/31
f 50/106/31 48/102/31 54/114/31
f 48/102/31 46/98/31 54/114/31
f 46/98/31 44/94/31 42/90/31
f 42/90/31 40/84/31 38/80/31
f 38/80/31 36/76/31 30/64/31
f 36/76/31 34/72/31 30/64/31
f 34/72/31 32/68/31 30/64/31
f 30/64/31 28/60/31 26/56/31
f 26/56/31 24/50/31 22/46/31
f 22/46/31 20/42/31 14/30/31
f 20/42/31 18/38/31 14/30/31
f 18/38/31 16/34/31 14/30/31
f 14/30/31 12/26/31 10/22/31
f 10/22/31 8/18/31 6/12/31
f 62/131/31 58/124/31 6/12/31
f 58/124/31 54/114/31 6/12/31
f 46/98/31 42/90/31 54/114/31
f 42/90/31 38/80/31 54/114/31
f 30/64/31 26/56/31 38/80/31
f 26/56/31 22/46/31 38/80/31
f 14/30/31 10/22/31 22/46/31
f 10/22/31 6/12/31 22/46/31
f 6/12/31 54/114/31 38/80/31
f 62/132/32 64/136/32 63/133/32
f 64/136/33 2/4/33 1/1/33
f 63/134/34 1/2/34 3/6/34
f 3/6/34 5/10/34 7/15/34
f 7/15/34 9/20/34 11/24/34
f 11/24/34 13/28/34 15/32/34
f 15/32/34 17/36/34 19/40/34
f 19/40/34 21/44/34 23/48/34
f 23/48/34 25/53/34 27/58/34
f 27/58/34 29/62/34 31/66/34
f 31/66/34 33/70/34 35/74/34
f 35/74/34 37/78/34 39/82/34
f 39/82/34 41/87/34 43/92/34
f 43/92/34 45/96/34 47/100/34
f 47/100/34 49/104/34 51/108/34
f 51/108/34 53/112/34 55/117/34
f 55/117/34 57/122/34 59/126/34
f 59/126/34 61/130/34 63/134/34
f 63/134/34 3/6/34 15/32/34
f 3/6/34 7/15/34 15/32/34
f 7/15/34 11/24/34 15/32/34
f 15/32/34 19/40/34 31/66/34
f 19/40/34 23/48/34 31/66/34
f 23/48/34 27/58/34 31/66/34
f 31/66/34 35/74/34 47/100/34
f 35/74/34 39/82/34 47/100/34
f 39/82/34 43/92/34 47/100/34
f 47/100/34 51/108/34 63/134/34
f 51/108/34 55/117/34 63/134/34
f 55/117/34 59/126/34 63/134/34
f 63/134/34 15/32/34 31/66/34
