# Blender 3.5.0
# www.blender.org
mtllib forestGround.mtl
o 平面
v -311.212677 0.000000 90.865860
v 332.078064 0.000000 -10.404785
v -117.281647 0.000000 -294.678162
v 329.511139 0.000000 -294.774384
v -265.752289 0.000000 -68.623978
v 330.439484 0.000000 -22.387207
v 329.305267 0.000000 -158.580795
v -260.551575 0.000000 -124.314980
v 329.548859 0.000000 -226.677597
v -232.240692 0.000000 -179.762634
v 330.094086 0.000000 -260.725983
v -198.677231 0.000000 -235.812073
v 277.752014 0.000000 -17.565813
v 106.114746 0.000000 -294.726257
v 235.605682 0.000008 -82.691406
v 34.376831 0.000000 -141.447891
v 48.654079 0.000000 -203.220108
v 65.708427 0.000000 -248.269028
v -5.583450 0.000000 -294.702209
v -116.704346 0.000000 -57.064781
v -113.087372 0.000000 -132.881439
v -91.793297 0.000000 -191.491364
v -66.484390 0.000000 -242.040543
v 60.714245 0.000000 46.230034
v -61.432549 0.000000 -294.690186
v -191.228317 0.000000 -62.844379
v -186.819458 0.000000 -128.598206
v -162.016983 0.000000 -185.626999
v -132.580811 0.000000 -238.926300
v 7.076552 0.000000 78.759682
v -89.357094 0.000000 -294.684174
v -228.490295 0.000000 -65.734177
v -223.685516 0.000000 -126.456589
v -197.128830 0.000000 -182.694824
v -165.629028 0.000000 -237.369186
v -27.008032 0.000000 108.422409
v -103.319366 0.000000 -294.681152
v -247.121292 0.000000 -67.179077
v -242.118530 0.000000 -125.385788
v -214.684753 0.000000 -181.228729
v -182.153137 0.000000 -236.590622
v -71.507217 0.000000 132.166550
v 223.018829 0.000000 1.006268
v 50.265648 0.000000 -294.714203
v -42.180374 0.000000 -51.285187
v -39.355270 0.000000 -137.164658
v -21.569611 0.000000 -197.355743
v -0.387982 0.000000 -245.154785
v 22.341099 0.000000 -294.708191
v -79.442360 0.000000 -54.174980
v -76.221313 0.000000 -135.023041
v -56.681454 0.000000 -194.423553
v -33.436188 0.000000 -243.597656
v 114.018799 0.000000 33.959625
vn -0.0000 1.0000 -0.0000
vt 0.000000 0.000000
vt 1.035938 0.450000
vt 0.000000 1.000000
vt 1.000000 1.000000
vt 0.000000 0.500000
vt 1.000000 0.500000
vt 0.790625 0.302778
vt 1.000000 0.750000
vt 0.000000 0.750000
vt 1.000000 0.875000
vt 0.000000 0.875000
vt 1.000000 0.937500
vt 0.000000 0.937500
vt 0.800000 0.250000
vt 0.571875 0.000000
vt 0.500000 1.000000
vt 0.521875 0.461111
vt 0.500000 0.500000
vt 0.975000 0.250000
vt 0.603125 0.255556
vt 0.128125 0.780556
vt 0.500000 0.750000
vt 0.500000 0.875000
vt 0.500000 0.937500
vt 0.250000 1.000000
vt 0.250000 0.500000
vt 0.250000 0.750000
vt 0.250000 0.875000
vt 0.250000 0.937500
vt 0.250000 0.000000
vt 0.125000 1.000000
vt 0.125000 0.500000
vt 0.125000 0.750000
vt 0.125000 0.875000
vt 0.125000 0.937500
vt 0.125000 0.000000
vt 0.062500 1.000000
vt 0.107812 0.997222
vt 0.062500 0.500000
vt 0.062500 0.750000
vt 0.062500 0.875000
vt 0.062500 0.937500
vt 0.062500 0.000000
vt 0.107812 0.000000
vt 0.031250 1.000000
vt 0.031250 0.997222
vt 0.031250 0.500000
vt 0.031250 0.750000
vt 0.031250 0.875000
vt 0.031250 0.937500
vt 0.031250 0.000000
vt 1.001562 0.000000
vt 0.375000 0.000000
vt 0.375000 1.000000
vt 0.375000 0.613889
vt 0.375000 0.500000
vt 0.293750 0.850000
vt 0.375000 0.750000
vt 0.375000 0.875000
vt 0.375000 0.937500
vt 0.312500 1.000000
vt 0.312500 0.500000
vt 0.312500 0.750000
vt 0.312500 0.875000
vt 0.312500 0.937500
vt 0.312500 0.000000
s 0
usemtl マテリアル
f 18/24/1 11/12/1 4/4/1 14/16/1
f 13/14/1 2/2/1 6/6/1 15/17/1
f 15/18/1 6/7/1 7/8/1 16/21/1
f 16/22/1 7/8/1 9/10/1 17/23/1
f 17/23/1 9/10/1 11/12/1 18/24/1
f 47/59/1 17/23/1 18/24/1 48/60/1
f 46/58/1 16/22/1 17/23/1 47/59/1
f 45/56/1 15/19/1 16/22/1 46/57/1
f 43/53/1 13/15/1 15/20/1 45/55/1
f 48/60/1 18/24/1 14/16/1 44/54/1
f 29/35/1 23/29/1 19/25/1 25/31/1
f 30/36/1 24/30/1 20/26/1 26/32/1
f 26/32/1 20/26/1 21/27/1 27/33/1
f 27/33/1 21/27/1 22/28/1 28/34/1
f 28/34/1 22/28/1 23/29/1 29/35/1
f 34/41/1 28/34/1 29/35/1 35/42/1
f 33/40/1 27/33/1 28/34/1 34/41/1
f 32/39/1 26/32/1 27/33/1 33/40/1
f 36/43/1 30/36/1 26/32/1 32/39/1
f 35/42/1 29/35/1 25/31/1 31/37/1
f 41/50/1 35/42/1 31/37/1 37/45/1
f 42/51/1 36/44/1 32/38/1 38/46/1
f 38/47/1 32/39/1 33/40/1 39/48/1
f 39/48/1 33/40/1 34/41/1 40/49/1
f 40/49/1 34/41/1 35/42/1 41/50/1
f 10/11/1 40/49/1 41/50/1 12/13/1
f 8/9/1 39/48/1 40/49/1 10/11/1
f 5/5/1 38/47/1 39/48/1 8/9/1
f 1/1/1 42/52/1 38/47/1 5/5/1
f 12/13/1 41/50/1 37/45/1 3/3/1
f 53/65/1 48/60/1 44/54/1 49/61/1
f 54/66/1 43/53/1 45/56/1 50/62/1
f 50/62/1 45/56/1 46/58/1 51/63/1
f 51/63/1 46/58/1 47/59/1 52/64/1
f 52/64/1 47/59/1 48/60/1 53/65/1
f 22/28/1 52/64/1 53/65/1 23/29/1
f 21/27/1 51/63/1 52/64/1 22/28/1
f 20/26/1 50/62/1 51/63/1 21/27/1
f 24/30/1 54/66/1 50/62/1 20/26/1
f 23/29/1 53/65/1 49/61/1 19/25/1
