# Blender 3.5.0
# www.blender.org
mtllib forestGround.mtl
o 平面
v -61.212677 0.000000 -159.134140
v 582.078064 0.000000 -260.404785
v 132.718353 0.000000 -544.678162
v 579.511108 0.000000 -544.774414
v -15.752289 0.000000 -318.623962
v 580.439453 0.000000 -272.387207
v 579.305298 0.000000 -408.580811
v -10.551575 0.000000 -374.314972
v 579.548828 0.000000 -476.677612
v 17.759308 0.000000 -429.762634
v 580.094116 0.000000 -510.725983
v 51.322769 0.000000 -485.812073
v 527.752014 0.000000 -267.565826
v 356.114746 0.000000 -544.726257
v 282.343597 0.000000 -295.505585
v 284.376831 0.000000 -391.447876
v 298.654083 0.000000 -453.220093
v 315.708435 0.000000 -498.269043
v 244.416550 0.000000 -544.702209
v 133.295654 0.000000 -307.064789
v 136.912628 0.000000 -382.881439
v 158.206696 0.000000 -441.491364
v 183.515610 0.000000 -492.040527
v 310.714233 0.000000 -203.769958
v 188.567444 0.000000 -544.690186
v 58.771683 0.000000 -312.844391
v 63.180542 0.000000 -378.598206
v 87.983017 0.000000 -435.627014
v 117.419189 0.000000 -488.926300
v 257.076538 0.000000 -171.240326
v 160.642914 0.000000 -544.684204
v 21.509705 0.000000 -315.734192
v 26.314484 0.000000 -376.456604
v 52.871170 0.000000 -432.694824
v 84.370972 0.000000 -487.369202
v 222.991974 0.000000 -141.577591
v 146.680634 0.000000 -544.681152
v 2.878708 0.000000 -317.179077
v 7.881470 0.000000 -375.385803
v 35.315247 0.000000 -431.228729
v 67.846863 0.000000 -486.590637
v 178.492783 0.000000 -117.833450
v 473.018829 0.000000 -248.993729
v 300.265656 0.000000 -544.714233
v 207.819626 0.000000 -301.285187
v 210.644730 0.000000 -387.164673
v 228.430389 0.000000 -447.355743
v 249.612015 0.000000 -495.154785
v 272.341095 0.000000 -544.708191
v 170.557648 0.000000 -304.174988
v 173.778687 0.000000 -385.023041
v 193.318542 0.000000 -444.423553
v 216.563812 0.000000 -493.597656
v 364.018799 0.000000 -216.040375
vn -0.0000 1.0000 -0.0000
vt 0.000000 0.000000
vt 1.000000 0.000000
vt 0.000000 1.000000
vt 1.000000 1.000000
vt 0.000000 0.500000
vt 1.000000 0.500000
vt 1.000000 0.750000
vt 0.000000 0.750000
vt 1.000000 0.875000
vt 0.000000 0.875000
vt 1.000000 0.937500
vt 0.000000 0.937500
vt 0.500000 0.000000
vt 0.500000 1.000000
vt 0.500000 0.500000
vt 0.500000 0.750000
vt 0.500000 0.875000
vt 0.500000 0.937500
vt 0.250000 1.000000
vt 0.250000 0.500000
vt 0.250000 0.750000
vt 0.250000 0.875000
vt 0.250000 0.937500
vt 0.250000 0.000000
vt 0.125000 1.000000
vt 0.125000 0.500000
vt 0.125000 0.750000
vt 0.125000 0.875000
vt 0.125000 0.937500
vt 0.125000 0.000000
vt 0.062500 1.000000
vt 0.062500 0.500000
vt 0.062500 0.750000
vt 0.062500 0.875000
vt 0.062500 0.937500
vt 0.062500 0.000000
vt 0.031250 1.000000
vt 0.031250 0.500000
vt 0.031250 0.750000
vt 0.031250 0.875000
vt 0.031250 0.937500
vt 0.031250 0.000000
vt 0.375000 0.000000
vt 0.375000 1.000000
vt 0.375000 0.500000
vt 0.375000 0.750000
vt 0.375000 0.875000
vt 0.375000 0.937500
vt 0.312500 1.000000
vt 0.312500 0.500000
vt 0.312500 0.750000
vt 0.312500 0.875000
vt 0.312500 0.937500
vt 0.312500 0.000000
s 0
usemtl マテリアル
f 18/18/1 11/11/1 4/4/1 14/14/1
f 13/13/1 2/2/1 6/6/1 15/15/1
f 15/15/1 6/6/1 7/7/1 16/16/1
f 16/16/1 7/7/1 9/9/1 17/17/1
f 17/17/1 9/9/1 11/11/1 18/18/1
f 47/47/1 17/17/1 18/18/1 48/48/1
f 46/46/1 16/16/1 17/17/1 47/47/1
f 45/45/1 15/15/1 16/16/1 46/46/1
f 43/43/1 13/13/1 15/15/1 45/45/1
f 48/48/1 18/18/1 14/14/1 44/44/1
f 29/29/1 23/23/1 19/19/1 25/25/1
f 30/30/1 24/24/1 20/20/1 26/26/1
f 26/26/1 20/20/1 21/21/1 27/27/1
f 27/27/1 21/21/1 22/22/1 28/28/1
f 28/28/1 22/22/1 23/23/1 29/29/1
f 34/34/1 28/28/1 29/29/1 35/35/1
f 33/33/1 27/27/1 28/28/1 34/34/1
f 32/32/1 26/26/1 27/27/1 33/33/1
f 36/36/1 30/30/1 26/26/1 32/32/1
f 35/35/1 29/29/1 25/25/1 31/31/1
f 41/41/1 35/35/1 31/31/1 37/37/1
f 42/42/1 36/36/1 32/32/1 38/38/1
f 38/38/1 32/32/1 33/33/1 39/39/1
f 39/39/1 33/33/1 34/34/1 40/40/1
f 40/40/1 34/34/1 35/35/1 41/41/1
f 10/10/1 40/40/1 41/41/1 12/12/1
f 8/8/1 39/39/1 40/40/1 10/10/1
f 5/5/1 38/38/1 39/39/1 8/8/1
f 1/1/1 42/42/1 38/38/1 5/5/1
f 12/12/1 41/41/1 37/37/1 3/3/1
f 53/53/1 48/48/1 44/44/1 49/49/1
f 54/54/1 43/43/1 45/45/1 50/50/1
f 50/50/1 45/45/1 46/46/1 51/51/1
f 51/51/1 46/46/1 47/47/1 52/52/1
f 52/52/1 47/47/1 48/48/1 53/53/1
f 22/22/1 52/52/1 53/53/1 23/23/1
f 21/21/1 51/51/1 52/52/1 22/22/1
f 20/20/1 50/50/1 51/51/1 21/21/1
f 24/24/1 54/54/1 50/50/1 20/20/1
f 23/23/1 53/53/1 49/49/1 19/19/1
