# Blender 3.5.0
# www.blender.org
mtllib house15.mtl
o 立方体.015
v -63.447422 -1.727551 166.932404
v -63.447422 0.272449 166.932404
v -63.447422 -1.727551 150.932404
v -63.447422 0.272449 150.932404
v 6.552464 -1.727551 166.932404
v 6.552464 0.272449 166.932404
v 6.552464 -1.727551 150.932404
v 6.552464 0.272449 150.932404
vn -1.0000 -0.0000 -0.0000
vn -0.0000 -0.0000 -1.0000
vn 1.0000 -0.0000 -0.0000
vn -0.0000 -0.0000 1.0000
vn -0.0000 -1.0000 -0.0000
vn -0.0000 1.0000 -0.0000
vt -0.256710 0.000000
vt -0.256710 1.353096
vt -0.594984 1.014822
vt 0.081563 0.000000
vt 0.081563 1.353096
vt 2.164062 1.057106
vt -0.594984 0.676548
vt -0.256710 0.338274
vt 0.081563 0.338274
vt 2.164062 0.718832
vt -0.256710 1.014822
vt 0.081563 1.014822
vt -0.256710 0.676548
vt 0.081563 0.676548
s 0
usemtl マテリアル.006
f 2/4/1 3/8/1 1/1/1
f 4/9/2 7/13/2 3/8/2
f 8/14/3 5/11/3 7/13/3
f 6/12/4 1/2/4 5/11/4
f 7/13/5 1/3/5 3/7/5
f 4/10/6 6/12/6 8/14/6
f 2/4/1 4/9/1 3/8/1
f 4/9/2 8/14/2 7/13/2
f 8/14/3 6/12/3 5/11/3
f 6/12/4 2/5/4 1/2/4
f 7/13/5 5/11/5 1/3/5
f 4/10/6 2/6/6 6/12/6
