# Blender 3.5.0
# www.blender.org
mtllib house32.mtl
o 立方体.041
v 27.020660 5.771313 -172.986435
v 27.020660 11.571314 -172.986435
v 27.020660 5.771313 -180.786423
v 27.020660 11.571314 -180.786423
v 33.020660 5.771313 -172.986435
v 33.020660 11.571314 -172.986435
v 33.020660 5.771313 -180.786423
v 33.020660 11.571314 -180.786423
vn -1.0000 -0.0000 -0.0000
vn -0.0000 -0.0000 -1.0000
vn 1.0000 -0.0000 -0.0000
vn -0.0000 -0.0000 1.0000
vn -0.0000 -1.0000 -0.0000
vn -0.0000 1.0000 -0.0000
vt 0.793294 0.324823
vt 0.126628 0.324823
vt 0.126628 0.991490
vt 0.793294 0.658157
vt 0.126628 0.658157
vt 0.126628 1.324823
vt 0.126628 0.324823
vt 0.126628 0.658157
vt 0.459961 0.324823
vt 0.459961 0.658157
vt 0.126628 0.658157
vt 0.126628 0.991490
vt 0.459961 0.324823
vt -0.206706 0.658157
vt 0.459961 0.991490
vt -0.206706 0.991490
vt 0.459961 0.658157
vt -0.206706 1.324823
vt 0.126628 0.658157
vt -0.206706 0.324823
vt 0.459961 0.658157
vt -0.206706 0.991490
vt -0.206706 0.658157
vt 0.126628 0.991490
s 0
usemtl マテリアル.069
f 2/4/1 3/9/1 1/1/1
f 4/11/2 7/20/2 3/7/2
f 8/24/3 5/14/3 7/19/3
f 6/17/4 1/2/4 5/13/4
f 7/21/5 1/3/5 3/8/5
f 4/12/6 6/18/6 8/22/6
f 2/4/1 4/10/1 3/9/1
f 4/11/2 8/23/2 7/20/2
f 8/24/3 6/16/3 5/14/3
f 6/17/4 2/5/4 1/2/4
f 7/21/5 5/15/5 1/3/5
f 4/12/6 2/6/6 6/18/6
