# Blender 3.5.0
# www.blender.org
mtllib house5.mtl
o 立方体.005
v -144.174393 2.277948 44.011467
v -144.174393 11.277964 44.011467
v -144.174393 2.277948 31.731468
v -144.174393 11.277964 31.731468
v -125.794388 2.277948 44.011467
v -125.794388 11.277964 44.011467
v -125.794388 2.277948 31.731468
v -125.794388 11.277964 31.731468
vn -1.0000 -0.0000 -0.0000
vn -0.0000 -0.0000 -1.0000
vn 1.0000 -0.0000 -0.0000
vn -0.0000 -0.0000 1.0000
vn -0.0000 -1.0000 -0.0000
vn -0.0000 1.0000 -0.0000
vt 1.167421 0.303838
vt 0.733943 0.303838
vt 0.733942 0.737317
vt 1.167421 0.520578
vt 0.733942 0.520578
vt 0.733942 0.954056
vt 0.733942 0.303838
vt 0.733943 0.520578
vt 0.950682 0.303838
vt 0.950682 0.520578
vt 0.733942 0.520578
vt 0.733942 0.737317
vt 0.950682 0.303838
vt 0.517203 0.520578
vt 0.950682 0.737317
vt 0.517203 0.737317
vt 0.950682 0.520578
vt 0.517203 0.954056
vt 0.733942 0.520578
vt 0.517203 0.303838
vt 0.950682 0.520578
vt 0.517203 0.737317
vt 0.517203 0.520578
vt 0.733942 0.737317
s 0
usemtl マテリアル.011
f 2/4/1 3/9/1 1/1/1
f 4/11/2 7/20/2 3/7/2
f 8/24/3 5/14/3 7/19/3
f 6/17/4 1/2/4 5/13/4
f 7/21/5 1/3/5 3/8/5
f 4/12/6 6/18/6 8/22/6
f 2/4/1 4/10/1 3/9/1
f 4/11/2 8/23/2 7/20/2
f 8/24/3 6/16/3 5/14/3
f 6/17/4 2/5/4 1/2/4
f 7/21/5 5/15/5 1/3/5
f 4/12/6 2/6/6 6/18/6
