# Blender 3.5.0
# www.blender.org
mtllib house53.mtl
o 立方体.078
v 119.960144 18.004158 27.043304
v 119.960144 21.004173 27.043304
v 119.960144 18.004158 -16.956696
v 119.960144 21.004173 -16.956696
v 185.960144 18.004158 27.043304
v 185.960144 21.004173 27.043304
v 185.960144 18.004158 -16.956696
v 185.960144 21.004173 -16.956696
v 119.960144 18.004158 5.043304
v 119.960144 19.504166 27.043304
v 119.960144 31.932926 5.043304
v 119.960144 19.504166 -16.956696
v 152.960144 18.004158 -16.956696
v 152.960144 21.004173 -16.956696
v 185.960144 19.504166 -16.956696
v 185.960144 18.004158 5.043304
v 185.960144 31.932926 5.043304
v 185.960144 19.504166 27.043304
v 152.960144 18.004158 27.043304
v 152.960144 21.004173 27.043304
v 152.960144 31.932926 5.043304
v 152.960144 18.004158 5.043304
v 152.960144 19.504166 27.043304
v 185.960144 19.504166 5.043304
v 152.960144 19.504166 -16.956696
v 119.960144 19.504166 5.043304
vn -1.0000 -0.0000 -0.0000
vn -0.0000 -0.0000 -1.0000
vn 1.0000 -0.0000 -0.0000
vn -0.0000 -0.0000 1.0000
vn -0.0000 -1.0000 -0.0000
vn -0.0000 0.8956 0.4449
vn -0.0000 0.8956 -0.4449
vt -2.152806 1.822865
vt -0.576403 0.392614
vt -5.305612 0.000000
vt -5.305612 0.392208
vt -2.152806 1.430252
vt -0.576403 0.000000
vt -5.305612 0.000000
vt -0.576404 1.822865
vt -0.576404 1.430252
vt -5.305612 0.392208
vt -3.729208 0.000000
vt 1.000000 0.392614
vt -2.152806 1.822865
vt -2.152806 1.430252
vt -3.729209 0.392208
vt -3.729208 1.822865
vt 1.000000 0.000000
vt -6.882015 0.000000
vt -6.882015 0.392208
vt -3.729208 1.430252
vt -0.576403 0.196307
vt -1.364605 1.822865
vt -5.305612 0.196104
vt -2.152806 1.626558
vt -5.305613 1.829900
vt -1.364605 0.000000
vt -5.305612 0.196104
vt -0.576404 1.626558
vt 0.211799 0.000000
vt -6.093813 0.000000
vt -6.093814 0.392208
vt -3.729208 1.626558
vt -6.882015 0.196104
vt 1.000000 0.196307
vt -2.941008 1.822865
vt -3.729210 1.829900
vt -6.882016 1.829900
vt -2.941008 0.000000
vt -3.729208 0.196104
vt -2.152806 1.626558
vt 0.211798 0.392614
vt -4.517410 0.000000
vt -4.517410 0.392208
vt -4.517412 1.829900
vt -6.093814 1.829900
vt 0.211798 0.196307
vt -4.517410 0.196104
vt -2.941008 1.626558
vt -6.093814 0.196104
vt -1.364605 1.626558
s 0
usemtl マテリアル.058
f 26/50/1 4/9/1 12/28/1
f 14/31/2 15/33/2 25/49/2
f 24/48/3 6/14/3 18/40/3
f 20/43/4 10/23/4 23/47/4
f 16/34/5 19/41/5 22/46/5
f 11/25/6 20/43/6 21/44/6
f 21/44/6 6/15/6 17/36/6
f 14/31/7 17/37/7 8/19/7
f 4/10/7 21/45/7 14/31/7
f 22/46/5 1/2/5 9/21/5
f 13/29/5 9/21/5 3/6/5
f 7/17/5 22/46/5 13/29/5
f 23/47/4 1/3/4 19/42/4
f 18/39/4 19/42/4 5/11/4
f 6/15/4 23/47/4 18/39/4
f 24/48/3 5/13/3 16/35/3
f 15/32/3 16/35/3 7/16/3
f 8/20/3 24/48/3 15/32/3
f 25/49/2 7/18/2 13/30/2
f 12/27/2 13/30/2 3/7/2
f 4/10/2 25/49/2 12/27/2
f 26/50/1 3/8/1 9/22/1
f 10/24/1 9/22/1 1/1/1
f 2/5/1 26/50/1 10/24/1
f 26/50/1 11/26/1 4/9/1
f 14/31/2 8/19/2 15/33/2
f 24/48/3 17/38/3 6/14/3
f 20/43/4 2/4/4 10/23/4
f 16/34/5 5/12/5 19/41/5
f 11/25/6 2/4/6 20/43/6
f 21/44/6 20/43/6 6/15/6
f 14/31/7 21/45/7 17/37/7
f 4/10/7 11/25/7 21/45/7
f 22/46/5 19/41/5 1/2/5
f 13/29/5 22/46/5 9/21/5
f 7/17/5 16/34/5 22/46/5
f 23/47/4 10/23/4 1/3/4
f 18/39/4 23/47/4 19/42/4
f 6/15/4 20/43/4 23/47/4
f 24/48/3 18/40/3 5/13/3
f 15/32/3 24/48/3 16/35/3
f 8/20/3 17/38/3 24/48/3
f 25/49/2 15/33/2 7/18/2
f 12/27/2 25/49/2 13/30/2
f 4/10/2 14/31/2 25/49/2
f 26/50/1 12/28/1 3/8/1
f 10/24/1 26/50/1 9/22/1
f 2/5/1 11/26/1 26/50/1
