# Blender 3.5.0
# www.blender.org
mtllib house8.mtl
o 立方体.008
v 38.938477 10.750669 -43.234905
v 38.938477 12.750669 -43.234905
v 38.938477 10.750669 -59.234905
v 38.938477 12.750669 -59.234905
v 54.938477 10.750669 -43.234905
v 54.938477 12.750669 -43.234905
v 54.938477 10.750669 -59.234905
v 54.938477 12.750669 -59.234905
v 38.938477 10.750669 -51.234905
v 38.938477 11.750669 -43.234905
v 38.938477 12.750669 -51.234905
v 38.938477 11.750669 -59.234905
v 46.938477 10.750669 -59.234905
v 46.938477 12.750669 -59.234905
v 54.938477 11.750669 -59.234905
v 54.938477 10.750669 -51.234905
v 54.938477 12.750669 -51.234905
v 54.938477 11.750669 -43.234905
v 46.938477 10.750669 -43.234905
v 46.938477 12.750669 -43.234905
v 46.938477 11.750669 -43.234905
v 54.938477 11.750669 -51.234905
v 46.938477 11.750669 -59.234905
v 38.938477 11.750669 -51.234905
v 38.938477 10.750669 -47.234905
v 38.938477 12.250669 -43.234905
v 38.938477 12.750669 -55.234905
v 38.938477 11.250669 -59.234905
v 42.938477 10.750669 -59.234905
v 50.938477 12.750669 -59.234905
v 54.938477 11.250669 -59.234905
v 54.938477 10.750669 -55.234905
v 54.938477 12.750669 -47.234905
v 54.938477 11.250669 -43.234905
v 50.938477 10.750669 -43.234905
v 42.938477 12.750669 -43.234905
v 38.938477 10.750669 -55.234905
v 38.938477 11.250669 -43.234905
v 38.938477 12.750669 -47.234905
v 38.938477 12.250669 -59.234905
v 50.938477 10.750669 -59.234905
v 42.938477 12.750669 -59.234905
v 54.938477 12.250669 -59.234905
v 54.938477 10.750669 -47.234905
v 54.938477 12.750669 -55.234905
v 54.938477 12.250669 -43.234905
v 42.938477 10.750669 -43.234905
v 50.938477 12.750669 -43.234905
v 46.938477 12.750669 -46.377773
v 46.938477 12.750669 -56.201462
v 52.285835 12.750669 -51.234905
v 41.895653 12.750669 -51.234905
v 46.938477 10.750669 -46.377773
v 46.938477 10.750669 -56.201462
v 41.895653 10.750669 -51.234905
v 52.285835 10.750669 -51.234905
v 42.938477 11.750669 -43.234905
v 50.938477 11.750669 -43.234905
v 46.938477 11.250669 -43.234905
v 46.938477 12.250669 -43.234905
v 54.938477 11.750669 -47.234905
v 54.938477 11.750669 -55.234905
v 54.938477 11.250669 -51.234905
v 54.938477 12.250669 -51.234905
v 50.938477 11.750669 -59.234905
v 42.938477 11.750669 -59.234905
v 46.938477 11.250669 -59.234905
v 46.938477 12.250669 -59.234905
v 38.938477 11.750669 -55.234905
v 38.938477 11.750669 -47.234905
v 38.938477 11.250669 -51.234905
v 38.938477 12.250669 -51.234905
v 38.938477 12.250669 -47.234905
v 38.938477 11.250669 -47.234905
v 38.938477 11.250669 -55.234905
v 42.938477 12.250669 -59.234905
v 42.938477 11.250669 -59.234905
v 50.938477 11.250669 -59.234905
v 54.938477 12.250669 -55.234905
v 54.938477 11.250669 -55.234905
v 54.938477 11.250669 -47.234905
v 50.938477 12.250669 -43.234905
v 50.938477 11.250669 -43.234905
v 42.938477 11.250669 -43.234905
v 50.938477 10.750669 -55.234905
v 42.938477 10.750669 -55.234905
v 42.938477 10.750669 -47.234905
v 42.938477 12.750669 -55.234905
v 50.938477 12.750669 -55.234905
v 50.938477 12.750669 -47.234905
v 42.938477 12.750669 -47.234905
v 50.938477 10.750669 -47.234905
v 42.938477 12.250669 -43.234905
v 54.938477 12.250669 -47.234905
v 50.938477 12.250669 -59.234905
v 38.938477 12.250669 -55.234905
vn -1.0000 -0.0000 -0.0000
vn -0.0000 -0.0000 -1.0000
vn 1.0000 -0.0000 -0.0000
vn -0.0000 -0.0000 1.0000
vn -0.0000 -1.0000 -0.0000
vn -0.0000 1.0000 -0.0000
vn -0.9477 -0.0000 0.3192
vn 0.2095 -0.0000 -0.9778
vn -0.2095 -0.0000 -0.9778
vn 0.9677 -0.0000 -0.2523
vn 0.2349 -0.0000 0.9720
vn -0.9477 -0.0000 -0.3192
vn 0.9677 -0.0000 0.2523
vn -0.2349 -0.0000 0.9720
vt -8.456866 0.000000
vt -8.456865 3.229915
vt -13.185299 9.689744
vt -8.456866 6.459830
vt 1.000000 3.229915
vt -8.456866 3.229915
vt -8.456866 3.229916
vt -13.185299 6.459830
vt -13.185299 0.000000
vt -13.185299 3.229914
vt -8.456866 6.459830
vt 1.000000 0.000000
vt -3.728432 3.229916
vt -8.456866 9.689744
vt -8.456865 0.000000
vt -8.456866 3.229914
vt -3.728434 6.459830
vt -3.728434 3.229914
vt -3.728432 0.000000
vt -13.185299 3.229915
vt -8.456866 6.459830
vt -3.728434 0.000000
vt -13.185299 6.459830
vt -3.728434 3.229915
vt -13.185299 8.074787
vt -10.821083 0.000000
vt -8.456866 1.614958
vt -8.456865 4.844872
vt 1.000000 1.614958
vt -10.821083 3.229915
vt -8.456866 4.844872
vt -13.185299 1.614957
vt -10.821083 3.229916
vt -10.821083 6.459830
vt -1.364216 0.000000
vt -10.821083 6.459830
vt -3.728434 1.614958
vt -13.185299 4.844872
vt -6.092649 0.000000
vt -8.456866 8.074787
vt -3.728434 1.614957
vt -6.092649 3.229915
vt -3.728434 4.844872
vt -8.456865 1.614957
vt -10.821083 9.689744
vt -6.092649 3.229916
vt -1.364217 3.229915
vt -6.092649 6.459830
vt -6.092649 4.844872
vt -6.092649 1.614957
vt -10.821083 4.844872
vt -10.821083 1.614957
vt -9.638974 0.000000
vt -13.185299 8.882265
vt -8.456866 2.422436
vt -8.456865 5.652351
vt 1.000000 0.807479
vt -12.003192 3.229914
vt -13.185299 0.807479
vt -8.456866 4.037394
vt -9.638974 3.229916
vt -12.003190 6.459830
vt -2.546324 0.000000
vt -12.003192 6.459830
vt -13.185299 4.037394
vt -3.728434 0.807479
vt -4.910542 0.000000
vt -8.456866 7.267309
vt -3.728434 2.422436
vt -7.274757 3.229914
vt -8.456865 0.807479
vt -3.728434 4.037394
vt -4.910542 3.229916
vt -9.638975 9.689744
vt -0.182109 3.229915
vt -7.274757 6.459830
vt -12.003190 0.000000
vt -13.185299 7.267308
vt -8.456866 0.807479
vt -8.456865 4.037394
vt -9.638975 3.229915
vt 1.000000 2.422436
vt -8.456866 5.652351
vt -13.185299 2.422436
vt -12.003190 3.229916
vt -9.638974 6.459830
vt -9.638975 6.459830
vt -0.182108 0.000000
vt -3.728434 2.422436
vt -13.185299 5.652351
vt -7.274757 0.000000
vt -8.456866 8.882266
vt -4.910542 3.229915
vt -3.728434 0.807479
vt -3.728434 5.652351
vt -8.456865 2.422436
vt -7.274757 3.229916
vt -12.003192 9.689744
vt -4.910542 6.459830
vt -2.546325 3.229914
vt -1.364217 2.595465
vt -2.546325 6.459830
vt -1.364216 0.612360
vt -0.182109 6.459830
vt -2.944505 1.614957
vt -4.910542 9.689744
vt 0.126074 1.614958
vt -7.274758 9.689744
vt -10.821083 9.055295
vt -2.546324 3.229915
vt -10.821083 7.072190
vt -0.182108 3.229915
vt -12.311374 8.074787
vt -7.274757 6.459830
vt -9.240794 8.074787
vt -4.910542 6.459830
vt -7.274757 4.844872
vt -4.910542 4.844872
vt -6.092649 4.037394
vt -6.092649 5.652351
vt -7.274757 1.614957
vt -4.910542 1.614958
vt -6.092649 0.807479
vt -6.092649 2.422436
vt -12.003192 4.844872
vt -9.638974 4.844872
vt -10.821083 4.037394
vt -10.821083 5.652351
vt -12.003192 1.614957
vt -9.638974 1.614958
vt -10.821083 0.807479
vt -10.821083 2.422436
vt -9.638975 2.422436
vt -9.638974 0.807479
vt -12.003192 0.807479
vt -9.638975 5.652351
vt -9.638974 4.037394
vt -12.003192 4.037394
vt -4.910542 2.422436
vt -4.910542 0.807479
vt -7.274757 0.807479
vt -4.910542 5.652351
vt -4.910542 4.037394
vt -7.274757 4.037394
vt -9.638974 7.267309
vt -6.092649 6.459830
vt 1.000000 3.229915
vt -12.003192 7.267308
vt -6.092649 6.459830
vt -1.364216 3.229915
vt -12.003192 8.882266
vt -1.364216 3.229915
vt -8.456866 6.459830
vt -0.182108 0.807479
vt -6.092650 9.689744
vt -1.364217 6.459829
vt -2.546324 0.807479
vt -6.092649 9.689744
vt 1.000000 6.459830
vt -2.546325 2.422436
vt -3.728434 9.689744
vt -3.728434 6.459829
vt -0.182108 2.422436
vt -1.364217 6.459830
vt -8.456866 9.689744
vt -9.638975 8.882266
vt -3.728434 6.459830
vt -3.728432 3.229915
vt -7.274757 5.652351
vt -7.274757 2.422436
vt -12.003192 5.652351
vt -12.003192 2.422436
s 0
usemtl マテリアル.076
f 27/58/1 40/84/1 96/172/1
f 30/64/2 43/90/2 95/171/2
f 33/70/3 46/96/3 94/170/3
f 36/76/4 26/56/4 93/169/4
f 44/92/5 35/74/5 92/166/5
f 39/82/6 36/75/6 91/163/6
f 49/101/6 48/100/6 90/160/6
f 27/57/6 52/107/6 88/154/6
f 53/109/5 47/98/5 87/151/5
f 32/68/5 56/115/5 85/145/5
f 57/117/4 38/80/4 84/144/4
f 58/118/4 59/119/4 83/143/4
f 48/99/4 60/120/4 82/142/4
f 61/121/3 34/71/3 81/141/3
f 62/122/3 63/123/3 80/140/3
f 45/93/3 64/124/3 79/139/3
f 65/125/2 31/65/2 78/138/2
f 66/126/2 67/127/2 77/137/2
f 42/87/2 68/128/2 76/136/2
f 69/129/1 28/59/1 75/135/1
f 70/130/1 71/131/1 74/134/1
f 39/81/1 72/132/1 73/133/1
f 73/133/1 24/52/1 70/130/1
f 26/55/1 70/130/1 10/27/1
f 2/6/1 73/133/1 26/55/1
f 74/134/1 9/26/1 25/53/1
f 38/79/1 25/53/1 1/1/1
f 10/27/1 74/134/1 38/79/1
f 75/135/1 3/9/1 37/77/1
f 71/131/1 37/77/1 9/26/1
f 24/52/1 75/135/1 71/131/1
f 76/136/2 23/51/2 66/126/2
f 40/83/2 66/126/2 12/31/2
f 4/11/2 76/136/2 40/83/2
f 77/137/2 13/33/2 29/61/2
f 28/60/2 29/61/2 3/7/2
f 12/31/2 77/137/2 28/60/2
f 78/138/2 7/20/2 41/85/2
f 67/127/2 41/85/2 13/33/2
f 23/51/2 78/138/2 67/127/2
f 79/139/3 22/50/3 62/122/3
f 43/89/3 62/122/3 15/37/3
f 8/24/3 79/139/3 43/89/3
f 80/140/3 16/39/3 32/67/3
f 31/66/3 32/67/3 7/19/3
f 15/37/3 80/140/3 31/66/3
f 81/141/3 5/15/3 44/91/3
f 63/123/3 44/91/3 16/39/3
f 22/50/3 81/141/3 63/123/3
f 82/142/4 21/49/4 58/118/4
f 46/95/4 58/118/4 18/43/4
f 6/17/4 82/142/4 46/95/4
f 83/143/4 19/46/4 35/73/4
f 34/72/4 35/73/4 5/13/4
f 18/43/4 83/143/4 34/72/4
f 84/144/4 1/2/4 47/97/4
f 59/119/4 47/97/4 19/46/4
f 21/49/4 84/144/4 59/119/4
f 41/86/5 54/111/5 13/34/5
f 7/21/5 85/145/5 41/86/5
f 37/78/5 55/113/5 9/25/5
f 29/62/5 37/78/5 3/8/5
f 29/62/5 54/111/5 86/148/5
f 87/151/5 1/3/5 25/54/5
f 55/113/5 25/54/5 9/25/5
f 42/88/6 50/103/6 14/35/6
f 4/12/6 88/154/6 42/88/6
f 45/94/6 51/105/6 17/41/6
f 30/63/6 45/94/6 8/22/6
f 30/63/6 50/103/6 89/157/6
f 90/160/6 6/18/6 33/69/6
f 51/105/6 33/69/6 17/41/6
f 49/101/6 36/75/6 20/47/6
f 52/107/6 39/82/6 91/163/6
f 53/109/5 35/74/5 19/45/5
f 56/115/5 44/92/5 92/166/5
f 93/169/4 10/28/4 57/117/4
f 60/120/4 57/117/4 21/49/4
f 20/48/4 93/169/4 60/120/4
f 94/170/3 18/44/3 61/121/3
f 64/124/3 61/121/3 22/50/3
f 17/42/3 94/170/3 64/124/3
f 95/171/2 15/38/2 65/125/2
f 68/128/2 65/125/2 23/51/2
f 14/36/2 95/171/2 68/128/2
f 96/172/1 12/32/1 69/129/1
f 72/132/1 69/129/1 24/52/1
f 11/30/1 96/172/1 72/132/1
f 56/116/7 51/106/7 85/146/7
f 87/152/8 49/102/8 53/110/8
f 90/162/9 53/110/9 49/102/9
f 55/114/10 52/108/10 87/153/10
f 50/104/11 86/150/11 54/112/11
f 27/58/1 4/10/1 40/84/1
f 30/64/2 8/23/2 43/90/2
f 33/70/3 6/16/3 46/96/3
f 36/76/4 2/4/4 26/56/4
f 44/92/5 5/14/5 35/74/5
f 39/82/6 2/5/6 36/75/6
f 49/101/6 20/47/6 48/100/6
f 27/57/6 11/29/6 52/107/6
f 53/109/5 19/45/5 47/98/5
f 32/68/5 16/40/5 56/115/5
f 57/117/4 10/28/4 38/80/4
f 58/118/4 21/49/4 59/119/4
f 48/99/4 20/48/4 60/120/4
f 61/121/3 18/44/3 34/71/3
f 62/122/3 22/50/3 63/123/3
f 45/93/3 17/42/3 64/124/3
f 65/125/2 15/38/2 31/65/2
f 66/126/2 23/51/2 67/127/2
f 42/87/2 14/36/2 68/128/2
f 69/129/1 12/32/1 28/59/1
f 70/130/1 24/52/1 71/131/1
f 39/81/1 11/30/1 72/132/1
f 73/133/1 72/132/1 24/52/1
f 26/55/1 73/133/1 70/130/1
f 2/6/1 39/81/1 73/133/1
f 74/134/1 71/131/1 9/26/1
f 38/79/1 74/134/1 25/53/1
f 10/27/1 70/130/1 74/134/1
f 75/135/1 28/59/1 3/9/1
f 71/131/1 75/135/1 37/77/1
f 24/52/1 69/129/1 75/135/1
f 76/136/2 68/128/2 23/51/2
f 40/83/2 76/136/2 66/126/2
f 4/11/2 42/87/2 76/136/2
f 77/137/2 67/127/2 13/33/2
f 28/60/2 77/137/2 29/61/2
f 12/31/2 66/126/2 77/137/2
f 78/138/2 31/65/2 7/20/2
f 67/127/2 78/138/2 41/85/2
f 23/51/2 65/125/2 78/138/2
f 79/139/3 64/124/3 22/50/3
f 43/89/3 79/139/3 62/122/3
f 8/24/3 45/93/3 79/139/3
f 80/140/3 63/123/3 16/39/3
f 31/66/3 80/140/3 32/67/3
f 15/37/3 62/122/3 80/140/3
f 81/141/3 34/71/3 5/15/3
f 63/123/3 81/141/3 44/91/3
f 22/50/3 61/121/3 81/141/3
f 82/142/4 60/120/4 21/49/4
f 46/95/4 82/142/4 58/118/4
f 6/17/4 48/99/4 82/142/4
f 83/143/4 59/119/4 19/46/4
f 34/72/4 83/143/4 35/73/4
f 18/43/4 58/118/4 83/143/4
f 84/144/4 38/80/4 1/2/4
f 59/119/4 84/144/4 47/97/4
f 21/49/4 57/117/4 84/144/4
f 41/86/5 85/145/5 54/111/5
f 7/21/5 32/68/5 85/145/5
f 37/78/5 86/148/5 55/113/5
f 29/62/5 86/148/5 37/78/5
f 29/62/5 13/34/5 54/111/5
f 87/151/5 47/98/5 1/3/5
f 55/113/5 87/151/5 25/54/5
f 42/88/6 88/154/6 50/103/6
f 4/12/6 27/57/6 88/154/6
f 45/94/6 89/157/6 51/105/6
f 30/63/6 89/157/6 45/94/6
f 30/63/6 14/35/6 50/103/6
f 90/160/6 48/100/6 6/18/6
f 51/105/6 90/160/6 33/69/6
f 49/101/6 91/163/6 36/75/6
f 52/107/6 11/29/6 39/82/6
f 53/109/5 92/166/5 35/74/5
f 56/115/5 16/40/5 44/92/5
f 93/169/4 26/56/4 10/28/4
f 60/120/4 93/169/4 57/117/4
f 20/48/4 36/76/4 93/169/4
f 94/170/3 46/96/3 18/44/3
f 64/124/3 94/170/3 61/121/3
f 17/42/3 33/70/3 94/170/3
f 95/171/2 43/90/2 15/38/2
f 68/128/2 95/171/2 65/125/2
f 14/36/2 30/64/2 95/171/2
f 96/172/1 40/84/1 12/32/1
f 72/132/1 96/172/1 69/129/1
f 11/30/1 27/58/1 96/172/1
f 56/116/12 92/167/12 90/161/12
f 51/106/7 89/158/7 85/146/7
f 56/116/12 90/161/12 51/106/12
f 87/152/8 91/164/8 49/102/8
f 90/162/9 92/168/9 53/110/9
f 55/114/13 86/149/13 88/155/13
f 52/108/10 91/165/10 87/153/10
f 55/114/13 88/155/13 52/108/13
f 54/112/14 85/147/14 89/159/14
f 50/104/11 88/156/11 86/150/11
f 54/112/14 89/159/14 50/104/14
