# Blender 3.5.0
# www.blender.org
mtllib house10.mtl
o 立方体.010
v -97.707840 -1.727551 -22.729223
v -97.707840 0.272449 -22.729223
v -97.707840 -1.727551 -38.729225
v -97.707840 0.272449 -38.729225
v 222.292130 -1.727551 -22.729223
v 222.292130 0.272449 -22.729223
v 222.292130 -1.727551 -38.729225
v 222.292130 0.272449 -38.729225
vn -1.0000 -0.0000 -0.0000
vn -0.0000 -0.0000 -1.0000
vn 1.0000 -0.0000 -0.0000
vn -0.0000 -0.0000 1.0000
vn -0.0000 -1.0000 -0.0000
vn -0.0000 1.0000 -0.0000
vt -6.313839 -0.078745
vt -6.313839 4.084495
vt -7.589069 3.746936
vt -5.038616 -0.078745
vt -5.038616 4.084495
vt 1.819941 3.781118
vt -7.589069 2.471709
vt -6.313839 1.196482
vt -5.038616 1.196482
vt 1.819941 3.349089
vt -6.313839 3.746936
vt -5.038616 3.746936
vt -6.313839 2.471709
vt -5.038616 3.314906
s 0
usemtl マテリアル.001
f 2/4/1 3/8/1 1/1/1
f 4/9/2 7/13/2 3/8/2
f 8/14/3 5/11/3 7/13/3
f 6/12/4 1/2/4 5/11/4
f 7/13/5 1/3/5 3/7/5
f 4/10/6 6/12/6 8/14/6
f 2/4/1 4/9/1 3/8/1
f 4/9/2 8/14/2 7/13/2
f 8/14/3 6/12/3 5/11/3
f 6/12/4 2/5/4 1/2/4
f 7/13/5 5/11/5 1/3/5
f 4/10/6 2/6/6 6/12/6
