# Blender 3.5.0
# www.blender.org
mtllib door2.mtl
o 立方体
v 5.761512 4.993396 0.937532
v 5.761512 5.281416 0.937532
v 4.590230 4.993396 0.937532
v 4.590230 5.281416 0.937532
v 5.762546 4.991899 0.687485
v 5.762546 5.137406 0.939827
v 5.762546 5.282914 0.687485
v 4.590230 4.993396 0.726022
v 4.590230 5.281416 0.726022
v 4.579085 5.137406 0.939827
v 5.631712 4.991899 0.939827
v 5.631712 5.282914 0.939827
v 5.637778 5.280219 0.693356
v 5.637778 4.994594 0.693356
v 5.631712 5.137406 0.946711
v 4.545649 5.137406 0.726022
v 5.765649 5.137406 0.687485
v 5.762546 4.991899 0.831777
v 5.762546 5.212406 0.939827
v 5.762546 5.282914 0.111777
v 4.579085 5.282914 0.831777
v 4.579085 5.062407 0.939827
v 5.103847 4.991899 0.939827
v 5.713847 5.282914 0.939827
v 5.762546 4.991899 0.111777
v 5.762546 5.062407 0.939827
v 5.762546 5.282914 0.831777
v 4.579085 4.991899 0.831777
v 4.579085 5.212406 0.939827
v 5.713847 4.991899 0.939827
v 5.103847 5.282914 0.939827
v 5.631712 5.287406 0.831777
v 5.666182 5.287406 0.111777
v 5.103847 5.287406 0.726022
v 5.713847 5.287406 0.687485
v 5.631712 4.987406 0.831777
v 5.666182 4.987406 0.111777
v 5.713847 4.987406 0.687485
v 5.103847 4.987406 0.726022
v 5.713847 5.137406 0.946711
v 5.103847 5.137406 0.946711
v 5.631712 5.062407 0.946711
v 5.631712 5.212406 0.946711
v 4.545649 5.137406 0.831777
v 4.545649 5.062407 0.726022
v 4.545649 5.212406 0.726022
v 5.765649 5.137406 0.111777
v 5.765649 5.137406 0.831777
v 5.765649 5.062407 0.687485
v 5.765649 5.212406 0.687485
v 5.662045 5.137406 0.716843
v 5.765649 5.212406 0.831777
v 5.765649 5.062407 0.831777
v 5.765649 5.062407 0.111777
v 4.545649 5.062407 0.831777
v 5.103847 5.212406 0.946711
v 5.103847 5.062407 0.946711
v 5.713847 5.062407 0.946711
v 5.713847 4.987406 0.111777
v 5.713847 4.987406 0.831777
v 5.713847 5.287406 0.111777
v 5.103847 5.287406 0.831777
v 5.713847 5.287406 0.831777
v 5.103847 4.987406 0.831777
v 5.713847 5.212406 0.946711
v 4.545649 5.212406 0.831777
v 5.765649 5.212406 0.111777
vn -0.9427 0.1619 0.2917
vn 0.1399 0.0350 0.9895
vn -0.0031 -0.9991 0.0415
vn 0.0918 0.9949 0.0414
vn -0.0000 0.9991 0.0415
vn 0.0919 0.9958 -0.0000
vn -0.0000 -0.9991 0.0415
vn -0.0000 -1.0000 -0.0000
vn 0.1400 -0.0000 0.9902
vn -0.0000 -0.0000 1.0000
vn -0.0000 0.0972 0.9953
vn -0.9553 -0.0000 0.2956
vn 1.0000 -0.0000 -0.0000
vn 0.9990 0.0440 -0.0000
vn -0.0082 -0.0306 -0.9995
vn 0.9996 -0.0000 0.0287
vn 0.9995 0.0159 0.0287
vn 0.9990 -0.0440 -0.0000
vn 0.9990 -0.0440 0.0104
vn -0.8990 -0.4263 0.1008
vn -0.8990 -0.4263 -0.1008
vn -1.0000 -0.0000 -0.0000
vn -0.0131 -0.0000 0.9999
vn -0.0131 0.0353 0.9993
vn -0.0000 -0.0972 0.9953
vn -0.0047 -0.0972 0.9953
vn 0.0509 -0.0971 0.9940
vn 0.0919 -0.9958 -0.0000
vn 0.0321 -0.9994 0.0145
vn -0.0941 -0.9956 -0.0000
vn -0.0935 0.9956 0.0077
vn -0.0086 0.9998 0.0151
vn -0.0086 0.9998 -0.0151
vn -0.0000 1.0000 -0.0000
vn -0.0000 0.9987 -0.0519
vn 0.0103 -0.9986 -0.0514
vn -0.0117 -0.9999 -0.0000
vn -0.8400 0.5426 -0.0000
vn -0.9832 0.1753 -0.0502
vn -0.0000 -0.0000 -1.0000
vn -0.8990 0.4263 0.1008
vn 0.0509 0.0971 0.9940
vn -0.0086 -0.9998 0.0151
vn 0.0321 0.9994 0.0145
vn -0.0935 -0.9956 0.0077
vn -0.0625 -0.1723 -0.9831
vn -0.0625 0.1723 -0.9831
vn -0.0082 0.0306 -0.9995
vn 0.9990 0.0440 0.0104
vn 0.9995 -0.0159 0.0287
vn -0.9427 -0.1619 0.2917
vn -0.8400 -0.5426 -0.0000
vn -0.0047 0.0972 0.9953
vn -0.0131 -0.0353 0.9993
vn 0.1399 -0.0350 0.9895
vn 0.0918 -0.9949 0.0414
vn -0.0000 -0.9987 -0.0519
vn -0.0031 0.9991 0.0415
vn -0.0117 0.9999 -0.0000
vn 0.0103 0.9986 -0.0514
vn -0.0941 0.9956 -0.0000
vn -0.0086 -0.9998 -0.0151
vn -0.8990 0.4263 -0.1008
vn -1.0000 -0.0000 -0.0068
vn -0.9832 -0.1753 -0.0502
vt 0.842873 0.556554
vt 0.548686 0.548293
vt 0.375533 0.254970
vt 0.375533 0.545274
vt 0.842033 0.556554
vt 0.548686 0.838597
vt 0.842873 0.845873
vt 0.594545 0.838597
vt 0.665762 0.254970
vt 0.594545 0.548293
vt 0.665762 0.545274
vt 0.842033 0.845873
vt 0.496180 0.546784
vt 0.895397 0.556246
vt 0.549165 0.693445
vt 0.375288 0.400122
vt 0.789509 0.556246
vt 0.496180 0.840107
vt 0.934193 0.549802
vt 0.550417 0.838597
vt 0.887250 0.845724
vt 0.934193 0.259498
vt 0.797656 0.845724
vt 0.550417 0.548293
vt 0.668535 0.400122
vt 0.594711 0.693445
vt 0.407707 0.253461
vt 0.842453 0.588741
vt 0.842453 0.588741
vt 0.407707 0.546784
vt 0.674509 0.260706
vt 0.790852 0.586846
vt 0.950824 0.548595
vt 0.950824 0.260706
vt 0.674509 0.548595
vt 0.894055 0.586846
vt 0.407739 0.400122
vt 0.945242 0.404650
vt 0.549165 0.693445
vt 0.496172 0.693445
vt 0.526478 0.546784
vt 0.865123 0.556348
vt 0.549165 0.769040
vt 0.375288 0.475717
vt 0.668720 0.555840
vt 0.375295 0.840107
vt 0.618594 0.844635
vt 0.819783 0.848676
vt 0.572168 0.546784
vt 0.594711 0.769040
vt 0.668535 0.324527
vt 0.538505 0.253461
vt 0.842453 0.719130
vt 0.842453 0.568453
vt 0.387355 0.546784
vt 0.375295 0.546784
vt 1.016187 0.555840
vt 0.618594 0.551312
vt 0.549165 0.617850
vt 0.375288 0.324527
vt 0.526478 0.840107
vt 0.819783 0.556348
vt 0.572168 0.840107
vt 0.865123 0.848676
vt 0.668535 0.475717
vt 0.594711 0.617850
vt 0.387355 0.253461
vt 0.842453 0.568453
vt 0.538505 0.546784
vt 0.842453 0.719130
vt 0.819598 0.589037
vt 0.668535 0.580015
vt 1.071363 0.555840
vt 0.594711 0.849163
vt 0.806896 0.253461
vt 0.797410 0.719351
vt 0.789324 0.568648
vt 0.865308 0.589037
vt 1.016372 0.580015
vt 1.071363 0.253461
vt 0.594711 0.546784
vt 0.895582 0.568648
vt 0.806896 0.555840
vt 0.887496 0.719351
vt 0.387387 0.400122
vt 0.538538 0.400122
vt 0.407740 0.324527
vt 0.407739 0.475717
vt 0.571229 0.693445
vt 0.945242 0.480245
vt 0.549165 0.769040
vt 0.945242 0.329055
vt 0.549165 0.617850
vt 0.375288 0.693445
vt 0.619363 0.697973
vt 0.526470 0.693445
vt 0.496172 0.617850
vt 0.496172 0.769040
vt 0.668535 0.404650
vt 0.945242 0.404650
vt 0.526470 0.769040
vt 0.526470 0.617850
vt 0.375288 0.617850
vt 0.619363 0.622379
vt 0.571229 0.769040
vt 0.538538 0.475717
vt 0.538538 0.324527
vt 0.387387 0.324527
vt 1.016372 0.568241
vt 0.606525 0.546784
vt 0.865308 0.568749
vt 0.606525 0.849163
vt 0.668535 0.568241
vt 0.819598 0.719426
vt 0.819599 0.568749
vt 0.865308 0.719426
vt 0.387387 0.475717
vt 0.571229 0.617850
vt 0.375288 0.769040
vt 0.619363 0.773568
s 0
usemtl マテリアル.001
f 66/118/1 29/66/1 4/10/1
f 65/117/2 19/44/2 2/4/2
f 64/116/3 23/53/3 3/7/3
f 27/62/4 63/115/4 24/54/4
f 32/71/5 62/114/5 31/70/5
f 20/45/6 61/113/6 35/77/6
f 36/78/7 60/111/7 30/68/7
f 37/79/8 59/109/8 38/82/8
f 40/85/9 58/108/9 26/60/9
f 41/86/10 57/107/10 42/87/10
f 31/69/11 56/106/11 43/88/11
f 44/89/12 55/105/12 22/50/12
f 48/96/13 53/102/13 49/97/13
f 27/61/14 52/101/14 50/98/14
f 39/83/15 16/38/15 51/99/15
f 52/101/13 48/96/13 17/40/13
f 19/43/16 6/15/16 48/96/16
f 2/6/17 19/43/17 52/101/17
f 53/102/18 18/41/18 5/13/18
f 1/2/19 18/41/19 53/102/19
f 6/15/16 26/59/16 53/102/16
f 5/13/18 25/56/18 54/103/18
f 17/40/13 49/97/13 54/103/13
f 55/105/20 28/63/20 3/8/20
f 8/20/21 28/63/21 55/105/21
f 16/39/22 45/91/22 55/105/22
f 56/106/10 41/86/10 15/37/10
f 29/65/23 10/25/23 41/86/23
f 4/11/24 29/65/24 56/106/24
f 57/107/25 23/52/25 11/27/25
f 3/9/26 23/52/26 57/107/26
f 10/25/23 22/51/23 57/107/23
f 58/108/27 30/67/27 1/3/27
f 42/87/25 11/27/25 30/67/25
f 15/37/10 42/87/10 58/108/10
f 59/109/28 25/57/28 5/14/28
f 18/42/29 1/1/29 30/68/29
f 38/82/28 5/14/28 18/42/28
f 14/36/30 38/82/30 60/111/30
f 33/72/31 13/32/31 35/77/31
f 62/114/32 21/48/32 4/12/32
f 9/23/33 21/48/33 62/114/33
f 34/76/34 62/114/34 32/71/34
f 63/115/5 32/71/5 12/29/5
f 13/32/35 32/71/35 63/115/35
f 7/17/6 35/77/6 63/115/6
f 64/116/7 36/78/7 11/28/7
f 39/84/36 14/36/36 36/78/36
f 8/21/37 39/84/37 64/116/37
f 65/117/9 40/85/9 6/16/9
f 43/88/10 15/37/10 40/85/10
f 12/30/11 43/88/11 65/117/11
f 66/118/12 44/89/12 10/26/12
f 46/93/22 16/39/22 44/89/22
f 9/24/38 46/93/38 66/118/38
f 50/98/13 17/40/13 47/94/13
f 7/18/14 50/98/14 67/119/14
f 51/100/39 37/80/39 14/34/39
f 20/47/40 33/74/40 61/112/40
f 66/118/41 4/10/41 21/49/41
f 65/117/42 2/4/42 24/55/42
f 64/116/43 3/7/43 28/64/43
f 27/62/44 24/54/44 2/5/44
f 32/71/5 31/70/5 12/29/5
f 20/45/6 35/77/6 7/17/6
f 36/78/7 30/68/7 11/28/7
f 37/79/45 38/82/45 14/36/45
f 40/85/9 26/60/9 6/16/9
f 41/86/10 42/87/10 15/37/10
f 31/69/11 43/88/11 12/30/11
f 44/89/12 22/50/12 10/26/12
f 48/96/13 49/97/13 17/40/13
f 27/61/14 50/98/14 7/18/14
f 51/99/46 34/75/46 13/31/46
f 34/75/40 46/92/40 9/22/40
f 16/38/40 39/83/40 45/90/40
f 45/90/40 39/83/40 8/19/40
f 34/75/40 16/38/40 46/92/40
f 14/35/47 39/83/47 51/99/47
f 51/99/48 16/38/48 34/75/48
f 52/101/13 17/40/13 50/98/13
f 19/43/16 48/96/16 52/101/16
f 2/6/49 52/101/49 27/61/49
f 53/102/18 5/13/18 49/97/18
f 1/2/50 53/102/50 26/59/50
f 6/15/16 53/102/16 48/96/16
f 5/13/18 54/103/18 49/97/18
f 17/40/13 54/103/13 47/94/13
f 55/105/51 3/8/51 22/50/51
f 8/20/52 55/105/52 45/91/52
f 16/39/22 55/105/22 44/89/22
f 56/106/10 15/37/10 43/88/10
f 29/65/23 41/86/23 56/106/23
f 4/11/53 56/106/53 31/69/53
f 57/107/25 11/27/25 42/87/25
f 3/9/54 57/107/54 22/51/54
f 10/25/23 57/107/23 41/86/23
f 58/108/55 1/3/55 26/60/55
f 42/87/25 30/67/25 58/108/25
f 15/37/10 58/108/10 40/85/10
f 59/109/28 5/14/28 38/82/28
f 18/42/56 30/68/56 60/111/56
f 38/82/28 18/42/28 60/111/28
f 14/36/57 60/111/57 36/78/57
f 33/72/34 35/77/34 61/113/34
f 62/114/58 4/12/58 31/70/58
f 9/23/59 62/114/59 34/76/59
f 34/76/60 32/71/60 13/32/60
f 63/115/5 12/29/5 24/54/5
f 13/32/61 63/115/61 35/77/61
f 7/17/6 63/115/6 27/62/6
f 64/116/7 11/28/7 23/53/7
f 39/84/8 36/78/8 64/116/8
f 8/21/62 64/116/62 28/64/62
f 65/117/9 6/16/9 19/44/9
f 43/88/10 40/85/10 65/117/10
f 12/30/11 65/117/11 24/55/11
f 66/118/12 10/26/12 29/66/12
f 46/93/22 44/89/22 66/118/22
f 9/24/63 66/118/63 21/49/63
f 50/98/13 47/94/13 67/119/13
f 7/18/14 67/119/14 20/46/14
f 37/80/64 51/100/64 33/73/64
f 33/73/65 51/100/65 13/33/65
f 59/110/40 37/81/40 25/58/40
f 25/58/40 37/81/40 54/104/40
f 47/95/40 33/74/40 67/120/40
f 67/120/40 33/74/40 20/47/40
f 54/104/40 37/81/40 47/95/40
f 33/74/40 47/95/40 37/81/40
