# Blender 3.5.0
# www.blender.org
mtllib house23.mtl
o 立方体.025
v 52.736179 -0.138326 -164.938034
v 52.736179 15.997211 -164.938034
v 26.736172 -0.138326 -164.938034
v 26.736172 15.997211 -164.938034
v 52.736179 -0.138326 -188.938034
v 32.450775 5.671314 -172.886429
v 32.450775 11.671314 -172.886429
v 52.736179 15.997211 -188.938034
v 32.450775 5.671314 -180.886429
v 26.736172 -0.138326 -188.938034
v 26.736172 15.997211 -188.938034
v 32.450775 11.671314 -180.886429
v 39.736176 -0.138326 -164.938034
v 52.736179 8.861674 -164.938034
v 39.736176 15.997211 -164.938034
v 26.736172 8.861674 -164.938034
v 26.736172 -0.138326 -176.938034
v 26.736172 21.046249 -176.938034
v 26.736172 8.861674 -188.938034
v 39.736176 -0.138326 -188.938034
v 39.736176 15.997211 -188.938034
v 52.736179 8.861674 -188.938034
v 52.736179 -0.138326 -176.938034
v 52.736179 21.046249 -176.938034
v 39.736176 21.046249 -176.938034
v 39.736176 -0.138326 -176.938034
v 52.736179 8.861674 -176.938034
v 39.736176 8.861674 -188.938034
v 39.736176 8.861674 -164.938034
v 26.736172 11.209502 -180.886429
v 26.736172 8.861674 -180.886429
v 26.736172 5.900375 -180.886429
v 26.736172 5.671314 -180.886429
v 26.736172 5.671314 -176.938034
v 26.736172 11.270870 -172.886429
v 26.736172 8.861674 -172.886429
v 26.736172 11.671314 -180.505905
v 26.736172 11.671314 -176.938034
v 26.736172 11.385916 -180.886429
v 26.736172 11.671314 -180.886429
v 26.736172 5.671314 -172.886429
v 26.736172 5.956712 -172.886429
v 26.736172 5.671314 -173.266968
v 26.736172 11.671314 -172.886429
vn -0.0000 -0.0000 1.0000
vn -1.0000 -0.0000 -0.0000
vn -0.0000 -0.0000 -1.0000
vn 1.0000 -0.0000 -0.0000
vn -0.0000 -1.0000 -0.0000
vn -0.0000 0.9217 0.3878
vn -0.0000 0.9217 -0.3878
vn -0.0000 1.0000 -0.0000
vt -0.721792 0.000000
vt -0.721792 1.721792
vt -2.443583 4.052825
vt -2.443583 2.509379
vt -0.721792 1.543446
vt -0.721792 0.000000
vt -2.443583 4.052825
vt -2.443583 0.000000
vt -2.443583 1.543446
vt -2.443583 2.509379
vt -4.165375 4.052825
vt 1.000000 1.721792
vt -4.165375 0.000000
vt 0.375000 0.500000
vt 0.375000 0.750000
vt 0.625000 0.500000
vt 0.625000 0.750000
vt -4.165375 1.543446
vt -4.165375 2.509379
vt 0.375000 0.250000
vt 0.375000 0.500000
vt -2.443583 0.000000
vt 1.000000 0.000000
vt -0.721792 4.052825
vt -2.443583 1.543446
vt -0.721792 2.509379
vt 0.625000 0.500000
vt 0.625000 0.250000
vt -0.721792 0.860896
vt -1.582688 0.000000
vt -2.443583 3.191929
vt -0.721792 0.860896
vt -1.582688 1.543446
vt -2.443583 0.860896
vt -2.443583 3.191929
vt 0.139104 0.000000
vt -1.582688 4.052825
vt -2.443583 2.026413
vt -1.582688 2.026413
vt -2.443583 0.860896
vt -0.721792 3.191929
vt 1.000000 0.860896
vt -3.304479 0.000000
vt -3.304479 1.543446
vt -4.165375 3.191929
vt -4.165375 0.860896
vt 0.139104 1.721792
vt -3.304480 4.052825
vt -0.721792 2.026413
vt -4.165375 2.026412
vt -3.304480 2.026413
vt -3.304480 2.026413
vt -1.582688 2.026413
vt 0.139104 0.860896
vt -3.304480 3.191929
vt -3.304479 0.860896
vt -1.582688 0.860896
vt -1.299424 2.967348
vt 0.605758 0.250000
vt -1.299424 3.191929
vt 0.507932 0.250000
vt -1.299424 3.475193
vt 0.384544 0.250000
vt 0.136892 0.500000
vt -1.299424 3.497104
vt 0.375000 0.250000
vt -1.582688 3.497104
vt 0.136892 0.623387
vt -1.873355 2.961477
vt 0.608315 0.766685
vt -1.873355 3.191929
vt 0.507932 0.867068
vt -1.326724 2.923173
vt 0.863108 0.511892
vt -1.582688 2.923173
vt 0.863108 0.623387
vt -1.299424 2.950473
vt 0.613108 0.250000
vt 0.613108 0.261892
vt 0.863108 0.500000
vt -1.299424 2.923173
vt 0.625000 0.250000
vt 0.136892 0.750000
vt -1.873355 3.497103
vt 0.375000 0.750000
vt -1.873355 3.469804
vt 0.386892 0.750000
vt 0.386892 0.988108
vt -1.846055 3.497104
vt 0.136892 0.738108
vt -1.873355 2.923173
vt 0.625000 0.750000
vt 0.863108 0.750000
s 0
usemtl マテリアル.062
f 15/33/1 16/34/1 29/57/1
f 30/58/2 19/41/2 31/60/2
f 21/44/3 22/46/3 28/56/3
f 27/55/4 2/4/4 14/31/4
f 20/42/5 23/47/5 26/54/5
f 15/33/6 24/49/6 25/53/6
f 25/52/7 8/18/7 21/44/7
f 18/38/7 21/44/7 11/25/7
f 4/9/6 25/53/6 18/38/6
f 26/54/5 1/2/5 13/29/5
f 17/36/5 13/29/5 3/6/5
f 10/23/5 26/54/5 17/36/5
f 27/55/4 1/3/4 23/48/4
f 22/45/4 23/48/4 5/11/4
f 8/19/4 27/55/4 22/45/4
f 28/56/3 5/13/3 20/43/3
f 19/40/3 20/43/3 10/22/3
f 11/25/3 28/56/3 19/40/3
f 10/24/2 34/67/2 33/65/2
f 16/35/2 17/37/2 3/7/2
f 16/35/2 35/69/2 36/71/2
f 29/57/1 3/8/1 13/30/1
f 14/32/1 13/30/1 1/1/1
f 2/5/1 29/57/1 14/32/1
f 15/33/1 4/9/1 16/34/1
f 18/39/2 11/26/2 40/81/2
f 21/44/3 8/18/3 22/46/3
f 27/55/4 24/51/4 2/4/4
f 20/42/5 5/12/5 23/47/5
f 15/33/6 2/5/6 24/49/6
f 25/52/7 24/50/7 8/18/7
f 18/38/7 25/52/7 21/44/7
f 4/9/6 15/33/6 25/53/6
f 26/54/5 23/47/5 1/2/5
f 17/36/5 26/54/5 13/29/5
f 10/23/5 20/42/5 26/54/5
f 27/55/4 14/31/4 1/3/4
f 22/45/4 27/55/4 23/48/4
f 8/19/4 24/51/4 27/55/4
f 28/56/3 22/46/3 5/13/3
f 19/40/3 28/56/3 20/43/3
f 11/25/3 21/44/3 28/56/3
f 19/41/2 32/62/2 31/60/2
f 17/37/2 16/35/2 41/84/2
f 4/10/2 38/75/2 44/91/2
f 29/57/1 16/34/1 3/8/1
f 14/32/1 29/57/1 13/30/1
f 2/5/1 15/33/1 29/57/1
f 30/58/2 11/26/2 19/41/2
f 33/65/2 32/62/2 10/24/2
f 10/24/2 17/37/2 34/67/2
f 16/35/2 4/10/2 35/69/2
f 37/73/2 38/75/2 18/39/2
f 11/26/2 30/58/2 39/77/2
f 40/81/2 37/73/2 18/39/2
f 11/26/2 39/77/2 40/81/2
f 19/41/2 10/24/2 32/62/2
f 43/89/2 34/67/2 17/37/2
f 16/35/2 36/71/2 42/86/2
f 41/84/2 43/89/2 17/37/2
f 16/35/2 42/86/2 41/84/2
f 4/10/2 18/39/2 38/75/2
f 44/91/2 35/69/2 4/10/2
usemtl 
f 9/20/1 31/61/1 32/63/1
f 12/27/2 9/21/2 6/14/2
f 6/15/3 42/87/3 7/17/3
f 34/68/8 9/21/8 33/64/8
f 12/27/5 37/74/5 40/80/5
f 12/28/1 39/79/1 9/21/1
f 12/27/2 6/15/2 7/16/2
f 35/70/3 7/17/3 36/72/3
f 6/15/8 43/90/8 41/83/8
f 7/17/5 38/76/5 37/74/5
f 9/20/1 39/78/1 30/59/1
f 9/20/1 30/59/1 31/61/1
f 32/63/1 33/66/1 9/20/1
f 6/15/3 41/85/3 42/87/3
f 34/68/8 43/90/8 9/21/8
f 12/27/5 7/17/5 37/74/5
f 12/28/1 40/82/1 39/79/1
f 35/70/3 44/92/3 7/17/3
f 7/17/3 42/88/3 36/72/3
f 6/15/8 9/21/8 43/90/8
f 7/17/5 44/93/5 38/76/5
