# Blender 3.5.0
# www.blender.org
mtllib house71.mtl
o 立方体.100
v -99.891167 1.058664 174.174164
v -99.891167 15.058681 174.174164
v -99.891167 1.058664 158.174164
v -99.891167 15.058681 158.174164
v -86.931160 1.058664 174.174164
v -86.931160 15.058681 174.174164
v -86.931160 1.058664 158.174164
v -86.931160 15.058681 158.174164
vn -1.0000 -0.0000 -0.0000
vn -0.0000 -0.0000 -1.0000
vn 1.0000 -0.0000 -0.0000
vn -0.0000 -0.0000 1.0000
vn -0.0000 -1.0000 -0.0000
vn -0.0000 1.0000 -0.0000
vt 1.000000 0.000000
vt 0.377220 0.000000
vt 0.377220 0.622780
vt 1.000000 0.311390
vt 0.377220 0.311390
vt 0.377220 0.934169
vt 0.377220 0.000000
vt 0.377220 0.311390
vt 0.688610 0.000000
vt 0.688610 0.311390
vt 0.377220 0.311390
vt 0.377220 0.622780
vt 0.688610 0.000000
vt 0.065831 0.311390
vt 0.688610 0.622780
vt 0.065831 0.622780
vt 0.688610 0.311390
vt 0.065831 0.934169
vt 0.377220 0.311390
vt 0.065831 0.000000
vt 0.688610 0.311390
vt 0.065831 0.622780
vt 0.065831 0.311390
vt 0.377220 0.622780
s 0
usemtl マテリアル.032
f 2/4/1 3/9/1 1/1/1
f 4/11/2 7/20/2 3/7/2
f 8/24/3 5/14/3 7/19/3
f 6/17/4 1/2/4 5/13/4
f 7/21/5 1/3/5 3/8/5
f 4/12/6 6/18/6 8/22/6
f 2/4/1 4/10/1 3/9/1
f 4/11/2 8/23/2 7/20/2
f 8/24/3 6/16/3 5/14/3
f 6/17/4 2/5/4 1/2/4
f 7/21/5 5/15/5 1/3/5
f 4/12/6 2/6/6 6/18/6
