# Blender 3.5.0
# www.blender.org
mtllib house48.mtl
o 立方体.069
v -114.661865 4.745584 -46.244968
v -114.661865 10.545584 -46.244968
v -114.661865 4.745584 -56.244961
v -114.661865 10.545584 -56.244961
v -106.661865 4.745584 -46.244968
v -106.661865 10.545584 -46.244968
v -106.661865 4.745584 -56.244961
v -106.661865 10.545584 -56.244961
vn -1.0000 -0.0000 -0.0000
vn -0.0000 -0.0000 -1.0000
vn 1.0000 -0.0000 -0.0000
vn -0.0000 -0.0000 1.0000
vn -0.0000 -1.0000 -0.0000
vn -0.0000 1.0000 -0.0000
vt 1.000000 0.000000
vt 0.484670 0.000000
vt 0.484670 0.515330
vt 1.000000 0.257665
vt 0.484670 0.257665
vt 0.484670 0.772996
vt 0.484670 0.000000
vt 0.484670 0.257665
vt 0.742335 0.000000
vt 0.742335 0.257665
vt 0.484670 0.257665
vt 0.484670 0.515330
vt 0.742335 0.000000
vt 0.227004 0.257665
vt 0.742335 0.515330
vt 0.227004 0.515330
vt 0.742335 0.257665
vt 0.227004 0.772996
vt 0.484670 0.257665
vt 0.227004 0.000000
vt 0.742335 0.257665
vt 0.227004 0.515330
vt 0.227004 0.257665
vt 0.484670 0.515330
s 0
usemtl マテリアル.045
f 2/4/1 3/9/1 1/1/1
f 4/11/2 7/20/2 3/7/2
f 8/24/3 5/14/3 7/19/3
f 6/17/4 1/2/4 5/13/4
f 7/21/5 1/3/5 3/8/5
f 4/12/6 6/18/6 8/22/6
f 2/4/1 4/10/1 3/9/1
f 4/11/2 8/23/2 7/20/2
f 8/24/3 6/16/3 5/14/3
f 6/17/4 2/5/4 1/2/4
f 7/21/5 5/15/5 1/3/5
f 4/12/6 2/6/6 6/18/6
