# Blender 3.5.0
# www.blender.org
mtllib house31.mtl
o 立方体.037
v 26.476685 5.671315 -172.886429
v 26.476685 11.671314 -172.886429
v 26.476685 5.671315 -180.886429
v 26.476685 11.671314 -180.886429
v 32.476685 5.671315 -172.886429
v 31.465017 5.771314 -173.012314
v 31.465017 11.571314 -173.012314
v 31.502949 5.771315 -176.969696
v 32.476685 11.671314 -172.886429
v 31.465017 5.771314 -176.812302
v 31.502949 11.571315 -176.969696
v 31.465017 11.571314 -176.812302
v 32.476685 5.671315 -180.886429
v 31.502949 5.771315 -180.769684
v 32.476685 11.671314 -180.886429
v 31.502949 11.571315 -180.769684
v 26.476685 5.771315 -176.969696
v 26.476685 6.172736 -176.969696
v 26.476685 5.771315 -180.753098
v 26.476685 5.771315 -177.232697
v 26.476685 8.608869 -176.969696
v 26.476685 11.571315 -176.969696
v 26.476685 11.169893 -180.769684
v 26.476685 5.771315 -180.769684
v 26.476685 11.571315 -180.769684
v 26.476685 11.571315 -180.506683
v 26.476685 5.771314 -173.012314
v 26.476685 6.213476 -173.012314
v 26.476685 11.571314 -173.012314
v 26.476685 8.726906 -176.812302
v 26.476685 11.571314 -173.019760
v 26.476685 5.771314 -173.302002
v 26.476685 5.771314 -176.812302
v 26.476685 11.571314 -176.522614
v 26.476685 11.129152 -176.812302
v 26.476685 11.571314 -176.812302
vn -1.0000 -0.0000 -0.0000
vn -0.0000 -0.0000 -1.0000
vn 1.0000 -0.0000 -0.0000
vn -0.0000 -0.0000 1.0000
vn -0.0000 -1.0000 -0.0000
vn -0.0000 1.0000 -0.0000
vt 0.333333 0.000000
vt 0.333333 0.666667
vt 1.000000 0.000000
vt 0.333333 0.333333
vt 0.333333 1.000000
vt 1.000000 0.333333
vt 0.333333 0.000000
vt 0.333333 0.333333
vt 0.666667 0.000000
vt 0.333333 0.333333
vt 0.333333 0.666667
vt 0.666667 0.333333
vt 0.666667 0.000000
vt 0.000000 0.333333
vt 0.666667 0.666667
vt 0.375000 0.750000
vt 0.625000 0.750000
vt 0.375000 0.750000
vt 0.000000 0.666667
vt 0.666667 0.333333
vt 0.000000 1.000000
vt 0.375000 0.500000
vt 0.625000 0.750000
vt 0.625000 0.500000
vt 0.333333 0.333333
vt 0.000000 0.000000
vt 0.666667 0.333333
vt 0.375000 0.500000
vt 0.000000 0.666667
vt 0.000000 0.333333
vt 0.333333 0.666667
vt 0.625000 0.500000
vt 0.375000 0.982697
vt 0.142303 0.750000
vt 0.829864 0.005556
vt 0.829864 0.027857
vt 0.392303 0.982697
vt 0.672222 0.005556
vt 0.142303 0.501092
vt 0.818906 0.005556
vt 0.142303 0.732697
vt 0.829864 0.163197
vt 0.497308 0.982697
vt 0.625000 0.982697
vt 0.857697 0.750000
vt 0.829864 0.327778
vt 0.671531 0.305477
vt 0.607697 0.267303
vt 0.375000 0.267303
vt 0.671531 0.005556
vt 0.142303 0.500000
vt 0.857697 0.500000
vt 0.671531 0.327778
vt 0.625000 0.267303
vt 0.682489 0.327778
vt 0.857697 0.517303
vt 0.375000 0.980941
vt 0.144059 0.750000
vt 0.994755 0.005556
vt 0.994755 0.030120
vt 0.394059 0.980941
vt 0.625000 0.980941
vt 0.994755 0.327778
vt 0.855941 0.750000
vt 0.836422 0.169755
vt 0.502396 0.269059
vt 0.994444 0.327778
vt 0.855941 0.749510
vt 0.982684 0.005556
vt 0.144059 0.730941
vt 0.375000 0.269059
vt 0.144059 0.500000
vt 0.836422 0.005556
vt 0.848492 0.327778
vt 0.855941 0.519059
vt 0.836422 0.303213
vt 0.605941 0.269059
vt 0.855941 0.500000
vt 0.836422 0.327778
vt 0.625000 0.269059
s 0
usemtl マテリアル.070
f 1/3/1 28/60/1 27/59/1
f 4/10/2 13/26/2 3/7/2
f 15/31/3 5/14/3 13/25/3
f 9/20/4 1/1/4 5/13/4
f 13/27/5 1/2/5 3/8/5
f 4/11/6 9/21/6 15/29/6
f 4/12/1 22/46/1 36/79/1
f 4/10/2 15/30/2 13/26/2
f 15/31/3 9/19/3 5/14/3
f 9/20/4 2/4/4 1/1/4
f 13/27/5 5/15/5 1/2/5
f 4/11/6 2/5/6 9/21/6
f 33/73/1 30/65/1 21/42/1
f 33/73/1 21/42/1 18/36/1
f 33/73/1 18/36/1 17/35/1
f 20/40/1 19/38/1 3/9/1
f 33/73/1 17/35/1 20/40/1
f 33/73/1 20/40/1 3/9/1
f 2/6/1 31/67/1 29/63/1
f 2/6/1 29/63/1 28/60/1
f 33/73/1 3/9/1 1/3/1
f 32/69/1 33/73/1 1/3/1
f 1/3/1 2/6/1 28/60/1
f 27/59/1 32/69/1 1/3/1
f 31/67/1 2/6/1 4/12/1
f 3/9/1 19/38/1 24/50/1
f 3/9/1 24/50/1 23/47/1
f 34/74/1 31/67/1 4/12/1
f 36/79/1 34/74/1 4/12/1
f 4/12/1 3/9/1 23/47/1
f 4/12/1 23/47/1 25/53/1
f 21/42/1 30/65/1 35/76/1
f 22/46/1 21/42/1 35/76/1
f 4/12/1 25/53/1 26/55/1
f 22/46/1 35/76/1 36/79/1
f 4/12/1 26/55/1 22/46/1
usemtl 
f 23/48/4 24/49/4 14/28/4
f 16/32/1 14/28/1 8/18/1
f 18/37/2 8/18/2 17/33/2
f 14/28/6 19/39/6 20/41/6
f 16/32/5 26/56/5 25/52/5
f 16/32/4 23/48/4 14/28/4
f 16/32/1 8/18/1 11/23/1
f 11/23/2 21/43/2 22/44/2
f 8/18/6 20/41/6 17/34/6
f 26/56/5 11/23/5 22/45/5
f 10/22/4 30/66/4 33/71/4
f 12/24/1 10/22/1 6/16/1
f 28/61/2 6/16/2 27/57/2
f 10/22/6 33/72/6 32/70/6
f 12/24/5 34/75/5 36/78/5
f 12/24/4 35/77/4 10/22/4
f 12/24/1 6/16/1 7/17/1
f 29/62/2 7/17/2 28/61/2
f 6/16/6 32/70/6 27/58/6
f 7/17/5 31/68/5 34/75/5
f 18/37/2 11/23/2 8/18/2
f 14/28/6 24/51/6 19/39/6
f 16/32/5 11/23/5 26/56/5
f 16/32/4 25/54/4 23/48/4
f 11/23/2 18/37/2 21/43/2
f 8/18/6 14/28/6 20/41/6
f 10/22/4 35/77/4 30/66/4
f 28/61/2 7/17/2 6/16/2
f 12/24/5 7/17/5 34/75/5
f 12/24/4 36/80/4 35/77/4
f 6/16/6 10/22/6 32/70/6
f 7/17/5 29/64/5 31/68/5
