# Blender 3.5.0
# www.blender.org
mtllib house13.mtl
o 立方体.013
v 88.626793 -1.727551 42.828671
v 88.626793 0.272449 42.828671
v 72.626793 -1.727551 42.828671
v 72.626793 0.272449 42.828671
v 88.626793 -1.727551 -22.771328
v 88.626793 0.272449 -22.771328
v 72.626793 -1.727551 -22.771328
v 72.626793 0.272449 -22.771328
vn -0.0000 -0.0000 1.0000
vn -1.0000 -0.0000 -0.0000
vn -0.0000 -0.0000 -1.0000
vn 1.0000 -0.0000 -0.0000
vn -0.0000 -1.0000 -0.0000
vn -0.0000 1.0000 -0.0000
vt -0.602520 0.000000
vt -0.602520 1.635622
vt -1.011425 1.226717
vt -0.193614 0.000000
vt -0.193614 1.635622
vt 1.888745 1.226717
vt -1.011425 0.817811
vt -0.602520 0.408906
vt -0.193614 0.408906
vt 1.912894 0.825861
vt -0.602520 1.226717
vt -0.193614 1.226717
vt -0.602520 0.817811
vt -0.169465 0.825861
s 0
usemtl マテリアル.002
f 2/4/1 3/8/1 1/1/1
f 4/9/2 7/13/2 3/8/2
f 8/14/3 5/11/3 7/13/3
f 6/12/4 1/2/4 5/11/4
f 7/13/5 1/3/5 3/7/5
f 4/10/6 6/12/6 8/14/6
f 2/4/1 4/9/1 3/8/1
f 4/9/2 8/14/2 7/13/2
f 8/14/3 6/12/3 5/11/3
f 6/12/4 2/5/4 1/2/4
f 7/13/5 5/11/5 1/3/5
f 4/10/6 2/6/6 6/12/6
