# Blender 3.5.0
# www.blender.org
mtllib house57.mtl
o 立方体.085
v 159.797562 19.412682 257.862335
v 159.797562 21.412682 257.862335
v 159.797562 19.412682 177.862335
v 159.797562 21.412682 177.862335
v 209.797562 19.412682 257.862335
v 209.797562 21.412682 257.862335
v 209.797562 19.412682 177.862335
v 209.797562 21.412682 177.862335
v 159.797562 19.412682 217.862335
v 159.797562 20.412682 257.862335
v 159.797562 21.412682 217.862335
v 159.797562 20.412682 177.862335
v 184.797562 29.513790 177.862335
v 184.797562 31.513790 177.862335
v 209.797562 20.412682 177.862335
v 209.797562 19.412682 217.862335
v 209.797562 21.412682 217.862335
v 209.797562 20.412682 257.862335
v 184.797562 29.513790 257.862335
v 184.797562 31.513790 257.862335
v 159.797562 20.412682 217.862335
v 184.797562 30.513790 177.862335
v 209.797562 20.412682 217.862335
v 184.797562 30.513790 257.862335
v 184.797562 29.513790 217.862335
v 184.797562 31.513790 217.862335
v 159.797562 19.412682 237.862335
v 159.797562 20.912682 257.862335
v 159.797562 21.412682 197.862335
v 159.797562 19.912682 177.862335
v 172.297562 23.266310 177.862335
v 197.297562 25.266310 177.862335
v 209.797562 19.912682 177.862335
v 209.797562 19.412682 197.862335
v 209.797562 21.412682 237.862335
v 209.797562 19.912682 257.862335
v 197.297562 23.266310 257.862335
v 172.297562 25.266310 257.862335
v 159.797562 20.912682 237.862335
v 172.297562 24.766310 177.862335
v 209.797562 20.912682 197.862335
v 197.297562 24.766310 257.862335
v 197.297562 23.266310 197.862335
v 172.297562 25.266310 197.862335
v 159.797562 19.412682 197.862335
v 159.797562 19.912682 257.862335
v 159.797562 21.412682 237.862335
v 159.797562 20.912682 177.862335
v 197.297562 23.266310 177.862335
v 172.297562 25.266310 177.862335
v 209.797562 20.912682 177.862335
v 209.797562 19.412682 237.862335
v 209.797562 21.412682 197.862335
v 209.797562 20.912682 257.862335
v 172.297562 23.266310 257.862335
v 197.297562 25.266310 257.862335
v 159.797562 19.912682 197.862335
v 197.297562 23.766310 177.862335
v 209.797562 19.912682 237.862335
v 172.297562 23.766310 257.862335
v 172.297562 23.266310 237.862335
v 197.297562 25.266310 237.862335
v 184.797562 31.513790 237.862335
v 172.297562 25.266310 217.862335
v 172.297562 25.266310 237.862335
v 184.797562 29.513790 237.862335
v 197.297562 23.266310 217.862335
v 197.297562 23.266310 237.862335
v 172.297562 24.266310 257.862335
v 184.797562 31.013790 257.862335
v 172.297562 24.766310 257.862335
v 209.797562 20.412682 237.862335
v 209.797562 20.912682 217.862335
v 209.797562 20.912682 237.862335
v 197.297562 24.266310 177.862335
v 184.797562 31.013790 177.862335
v 197.297562 24.766310 177.862335
v 159.797562 20.412682 197.862335
v 159.797562 20.912682 217.862335
v 159.797562 20.912682 197.862335
v 197.297562 25.266310 197.862335
v 184.797562 31.513790 197.862335
v 197.297562 25.266310 217.862335
v 172.297562 23.266310 197.862335
v 184.797562 29.513790 197.862335
v 172.297562 23.266310 217.862335
v 197.297562 23.766310 257.862335
v 197.297562 24.266310 257.862335
v 184.797562 30.013790 257.862335
v 209.797562 19.912682 197.862335
v 209.797562 20.412682 197.862335
v 209.797562 19.912682 217.862335
v 172.297562 23.766310 177.862335
v 172.297562 24.266310 177.862335
v 184.797562 30.013790 177.862335
v 159.797562 19.912682 237.862335
v 159.797562 20.412682 237.862335
v 159.797562 19.912682 217.862335
vn -1.0000 -0.0000 -0.0000
vn -0.0000 -0.0000 -1.0000
vn 1.0000 -0.0000 -0.0000
vn -0.0000 -0.0000 1.0000
vn -0.2946 -0.9556 -0.0000
vn -0.2946 0.9556 -0.0000
vn 0.4471 0.8945 -0.0000
vn -0.4471 0.8945 -0.0000
vn 0.4471 -0.8945 -0.0000
vn -0.4471 -0.8945 -0.0000
vn 0.2946 -0.9556 -0.0000
vn 0.2946 0.9556 -0.0000
vt -7.142723 0.000000
vt -3.075539 0.000000
vt -7.142723 0.294046
vt -3.075540 0.000000
vt -1.041947 0.000000
vt -9.176314 0.000000
vt -3.075540 0.294046
vt -9.176314 0.294046
vt -5.109131 0.000000
vt -11.209907 0.000000
vt 0.991645 0.000000
vt -5.109131 0.294046
vt -11.209907 0.294046
vt -1.041946 0.000000
vt -9.176314 0.000000
vt -5.109131 0.000000
vt -9.176314 0.294046
vt -5.109131 0.294046
vt -8.159519 0.000000
vt -2.058743 0.000000
vt -7.142723 0.147023
vt -8.159519 0.294046
vt -9.176314 0.147023
vt -3.075540 0.147023
vt -4.092336 1.485097
vt -1.041947 1.485097
vt -4.092336 1.779143
vt -9.176314 1.779143
vt -5.109131 0.147023
vt -9.176314 0.147023
vt -10.193110 0.000000
vt -0.025150 0.000000
vt -10.193110 0.294046
vt -11.209907 0.147023
vt -5.109131 0.147023
vt -6.125928 1.485097
vt 0.991644 1.485097
vt -3.075540 1.485097
vt -7.142724 1.779143
vt -11.209908 1.779143
vt -6.125928 1.779143
vt -8.159519 0.147023
vt -4.092336 1.632120
vt -10.193110 0.147023
vt -6.125928 1.632120
vt -2.058744 1.485097
vt -0.025152 1.485097
vt -10.193111 1.779143
vt -8.159519 1.779143
vt -7.651121 0.000000
vt -2.567141 0.000000
vt -7.142723 0.220535
vt -8.667917 0.294046
vt -3.075540 0.073512
vt -9.176314 0.073512
vt -3.583938 0.566573
vt -1.041948 0.566573
vt -9.176315 0.860619
vt -4.600734 0.860619
vt -9.176314 0.073512
vt -5.109131 0.073512
vt -9.684712 0.000000
vt -0.533548 0.000000
vt -10.701509 0.294046
vt -5.109131 0.073512
vt -11.209907 0.073512
vt -5.617529 0.566573
vt 0.991645 0.566573
vt -6.634326 0.860619
vt -7.142723 0.860619
vt -7.651121 0.220535
vt -3.583938 0.787107
vt -9.684712 0.220535
vt -5.617530 0.787107
vt -0.533549 0.566573
vt -8.667917 0.860619
vt -8.667917 0.000000
vt -1.550345 0.000000
vt -7.142723 0.073512
vt -7.651121 0.294046
vt -9.176314 0.220535
vt -3.075540 0.220535
vt -4.600733 0.566573
vt -1.041947 0.566573
vt -3.583938 0.860619
vt -9.176314 0.860619
vt -5.109131 0.220535
vt -9.176314 0.220535
vt -10.701509 0.000000
vt 0.483247 0.000000
vt -9.684712 0.294046
vt -11.209907 0.220535
vt -5.109131 0.220535
vt -6.634326 0.566573
vt -3.075539 0.566573
vt -11.209907 0.860619
vt -5.617530 0.860619
vt -8.667917 0.073512
vt -4.600733 0.640084
vt -10.701509 0.073512
vt -6.634326 0.640084
vt -2.567141 0.566573
vt -10.701509 0.860619
vt -7.651122 1.779143
vt -10.701509 1.779143
vt -8.159519 0.860619
vt -7.651121 0.860619
vt 0.483246 1.485097
vt -2.567142 1.485097
vt -0.025151 0.566573
vt 0.483247 0.566573
vt -6.634326 0.713596
vt -6.125928 1.705632
vt -6.634326 0.787107
vt -10.701509 0.147023
vt -10.193110 0.220535
vt -10.701509 0.220535
vt -4.600733 0.713596
vt -4.092336 1.705632
vt -4.600733 0.787107
vt -8.667917 0.147023
vt -8.159519 0.220535
vt -8.667917 0.220535
vt -9.684713 0.860619
vt -9.684713 1.779143
vt -8.667917 1.779143
vt -10.193111 0.860619
vt -1.550346 0.566573
vt -1.550346 1.485097
vt -0.533549 1.485097
vt -2.058744 0.566573
vt -5.617529 0.640084
vt -5.617529 0.713596
vt -6.125928 1.558609
vt -9.684712 0.073512
vt -9.684712 0.147023
vt -10.193110 0.073512
vt -3.583938 0.640084
vt -3.583938 0.713596
vt -4.092336 1.558609
vt -7.651121 0.073512
vt -7.651121 0.147023
vt -8.159519 0.073512
s 0
usemtl マテリアル.013
f 2/3/1 39/71/1 28/52/1
f 4/7/2 40/72/2 48/82/2
f 8/17/3 41/73/3 51/88/3
f 6/12/4 42/74/4 54/93/4
f 7/14/5 43/75/5 49/84/5
f 4/8/6 44/76/6 50/86/6
f 2/3/1 47/80/1 39/71/1
f 4/7/2 50/85/2 40/72/2
f 8/17/3 53/91/3 41/73/3
f 6/12/4 56/97/4 42/74/4
f 7/14/5 34/63/5 43/75/5
f 4/8/6 29/53/6 44/76/6
f 26/48/7 63/105/7 62/103/7
f 26/49/8 64/106/8 63/104/8
f 11/22/6 47/80/6 65/107/6
f 25/46/9 66/109/9 61/102/9
f 25/47/10 67/110/10 66/108/10
f 16/32/5 52/90/5 68/111/5
f 24/45/4 69/112/4 60/101/4
f 24/45/4 70/113/4 69/112/4
f 20/41/4 38/69/4 71/114/4
f 23/44/3 72/115/3 59/100/3
f 23/44/3 73/116/3 72/115/3
f 17/33/3 35/64/3 74/117/3
f 22/43/2 75/118/2 58/99/2
f 22/43/2 76/119/2 75/118/2
f 14/27/2 32/59/2 77/120/2
f 21/42/1 78/121/1 57/98/1
f 21/42/1 79/122/1 78/121/1
f 11/22/1 29/53/1 80/123/1
f 14/28/7 81/124/7 32/58/7
f 14/28/7 82/125/7 81/124/7
f 26/48/7 62/103/7 83/127/7
f 13/26/9 84/128/9 31/57/9
f 13/26/9 85/129/9 84/128/9
f 25/46/9 61/102/9 86/131/9
f 18/35/4 87/132/4 36/65/4
f 18/35/4 88/133/4 87/132/4
f 24/45/4 60/101/4 89/134/4
f 15/30/3 90/135/3 33/60/3
f 15/30/3 91/136/3 90/135/3
f 23/44/3 59/100/3 92/137/3
f 12/24/2 93/138/2 30/54/2
f 12/24/2 94/139/2 93/138/2
f 22/43/2 58/99/2 95/140/2
f 10/21/1 96/141/1 46/79/1
f 10/21/1 97/142/1 96/141/1
f 21/42/1 57/98/1 98/143/1
f 98/143/1 45/77/1 9/19/1
f 98/143/1 57/98/1 45/77/1
f 57/98/1 3/6/1 45/77/1
f 96/141/1 98/143/1 9/19/1
f 96/141/1 97/142/1 98/143/1
f 97/142/1 21/42/1 98/143/1
f 46/79/1 27/50/1 1/1/1
f 46/79/1 96/141/1 27/50/1
f 96/141/1 9/19/1 27/50/1
f 95/140/2 49/83/2 13/25/2
f 95/140/2 58/99/2 49/83/2
f 58/99/2 7/16/2 49/83/2
f 93/138/2 95/140/2 13/25/2
f 93/138/2 94/139/2 95/140/2
f 94/139/2 22/43/2 95/140/2
f 30/54/2 31/56/2 3/4/2
f 30/54/2 93/138/2 31/56/2
f 93/138/2 13/25/2 31/56/2
f 92/137/3 52/89/3 16/31/3
f 92/137/3 59/100/3 52/89/3
f 59/100/3 5/10/3 52/89/3
f 90/135/3 92/137/3 16/31/3
f 90/135/3 91/136/3 92/137/3
f 91/136/3 23/44/3 92/137/3
f 33/60/3 34/62/3 7/15/3
f 33/60/3 90/135/3 34/62/3
f 90/135/3 16/31/3 34/62/3
f 89/134/4 55/94/4 19/36/4
f 89/134/4 60/101/4 55/94/4
f 60/101/4 1/1/4 55/94/4
f 87/132/4 89/134/4 19/36/4
f 87/132/4 88/133/4 89/134/4
f 88/133/4 24/45/4 89/134/4
f 36/65/4 37/67/4 5/9/4
f 36/65/4 87/132/4 37/67/4
f 87/132/4 19/36/4 37/67/4
f 86/131/11 27/51/11 9/20/11
f 86/131/11 61/102/11 27/51/11
f 61/102/11 1/2/11 27/51/11
f 84/128/11 86/131/11 9/20/11
f 84/128/9 85/129/9 86/131/9
f 85/129/9 25/46/9 86/131/9
f 31/57/11 45/78/11 3/5/11
f 31/57/11 84/128/11 45/78/11
f 84/128/11 9/20/11 45/78/11
f 83/127/12 35/64/12 17/33/12
f 83/127/12 62/103/12 35/64/12
f 62/103/12 6/13/12 35/64/12
f 81/124/12 83/127/12 17/33/12
f 81/124/7 82/125/7 83/127/7
f 82/125/7 26/48/7 83/127/7
f 32/58/12 53/91/12 8/17/12
f 32/58/12 81/124/12 53/91/12
f 81/124/12 17/33/12 53/91/12
f 80/123/1 48/81/1 12/23/1
f 80/123/1 29/53/1 48/81/1
f 29/53/1 4/8/1 48/81/1
f 78/121/1 80/123/1 12/23/1
f 78/121/1 79/122/1 80/123/1
f 79/122/1 11/22/1 80/123/1
f 57/98/1 30/55/1 3/6/1
f 57/98/1 78/121/1 30/55/1
f 78/121/1 12/23/1 30/55/1
f 77/120/2 51/87/2 15/29/2
f 77/120/2 32/59/2 51/87/2
f 32/59/2 8/18/2 51/87/2
f 75/118/2 77/120/2 15/29/2
f 75/118/2 76/119/2 77/120/2
f 76/119/2 14/27/2 77/120/2
f 58/99/2 33/61/2 7/16/2
f 58/99/2 75/118/2 33/61/2
f 75/118/2 15/29/2 33/61/2
f 74/117/3 54/92/3 18/34/3
f 74/117/3 35/64/3 54/92/3
f 35/64/3 6/13/3 54/92/3
f 72/115/3 74/117/3 18/34/3
f 72/115/3 73/116/3 74/117/3
f 73/116/3 17/33/3 74/117/3
f 59/100/3 36/66/3 5/10/3
f 59/100/3 72/115/3 36/66/3
f 72/115/3 18/34/3 36/66/3
f 71/114/4 28/52/4 10/21/4
f 71/114/4 38/69/4 28/52/4
f 38/69/4 2/3/4 28/52/4
f 69/112/4 71/114/4 10/21/4
f 69/112/4 70/113/4 71/114/4
f 70/113/4 20/41/4 71/114/4
f 60/101/4 46/79/4 1/1/4
f 60/101/4 69/112/4 46/79/4
f 69/112/4 10/21/4 46/79/4
f 68/111/10 37/68/10 19/37/10
f 68/111/5 52/90/5 37/68/5
f 52/90/5 5/11/5 37/68/5
f 66/108/10 68/111/10 19/37/10
f 66/108/10 67/110/10 68/111/10
f 67/110/5 16/32/5 68/111/5
f 61/102/11 55/95/11 1/2/11
f 61/102/9 66/109/9 55/95/9
f 66/109/9 19/38/9 55/95/9
f 65/107/8 38/70/8 20/39/8
f 65/107/6 47/80/6 38/70/6
f 47/80/6 2/3/6 38/70/6
f 63/104/8 65/107/8 20/39/8
f 63/104/8 64/106/8 65/107/8
f 64/106/6 11/22/6 65/107/6
f 62/103/12 56/96/12 6/13/12
f 62/103/7 63/105/7 56/96/7
f 63/105/7 20/40/7 56/96/7
f 44/76/8 64/106/8 26/49/8
f 44/76/6 29/53/6 64/106/6
f 29/53/6 11/22/6 64/106/6
f 43/75/10 67/110/10 25/47/10
f 43/75/5 34/63/5 67/110/5
f 34/63/5 16/32/5 67/110/5
f 42/74/4 70/113/4 24/45/4
f 42/74/4 56/97/4 70/113/4
f 56/97/4 20/41/4 70/113/4
f 41/73/3 73/116/3 23/44/3
f 41/73/3 53/91/3 73/116/3
f 53/91/3 17/33/3 73/116/3
f 40/72/2 76/119/2 22/43/2
f 40/72/2 50/85/2 76/119/2
f 50/85/2 14/27/2 76/119/2
f 39/71/1 79/122/1 21/42/1
f 39/71/1 47/80/1 79/122/1
f 47/80/1 11/22/1 79/122/1
f 50/86/8 82/126/8 14/28/8
f 50/86/8 44/76/8 82/126/8
f 44/76/8 26/49/8 82/126/8
f 49/84/10 85/130/10 13/26/10
f 49/84/10 43/75/10 85/130/10
f 43/75/10 25/47/10 85/130/10
f 54/93/4 88/133/4 18/35/4
f 54/93/4 42/74/4 88/133/4
f 42/74/4 24/45/4 88/133/4
f 51/88/3 91/136/3 15/30/3
f 51/88/3 41/73/3 91/136/3
f 41/73/3 23/44/3 91/136/3
f 48/82/2 94/139/2 12/24/2
f 48/82/2 40/72/2 94/139/2
f 40/72/2 22/43/2 94/139/2
f 28/52/1 97/142/1 10/21/1
f 28/52/1 39/71/1 97/142/1
f 39/71/1 21/42/1 97/142/1
