# Blender 3.5.0
# www.blender.org
mtllib house9.mtl
o 立方体.009
v 37.205097 13.033044 -41.184227
v 37.205097 13.033044 -61.184227
v 57.205097 13.033044 -41.184227
v 57.205097 13.033044 -61.184227
v 37.205097 13.033044 -51.184227
v 47.205097 13.033044 -61.184227
v 57.205097 13.033044 -51.184227
v 47.205097 13.033044 -41.184227
v 47.205097 15.955404 -51.184227
v 37.205097 12.533044 -41.184227
v 37.205097 13.033044 -56.184227
v 52.205097 13.033044 -61.184227
v 57.205097 13.033044 -46.184227
v 42.205097 13.033044 -41.184227
v 37.205097 13.033044 -46.184227
v 37.205097 12.533044 -61.184227
v 42.205097 13.033044 -61.184227
v 57.205097 12.533044 -61.184227
v 57.205097 13.033044 -56.184227
v 57.205097 12.533044 -41.184227
v 52.205097 13.033044 -41.184227
v 47.205097 14.791014 -46.184227
v 47.205097 14.791014 -56.184227
v 52.205097 14.791014 -51.184227
v 42.205097 14.791014 -51.184227
v 47.205097 12.533044 -41.184227
v 57.205097 12.533044 -51.184227
v 47.205097 12.533044 -61.184227
v 37.205097 12.533044 -51.184227
v 37.205097 12.533044 -46.184227
v 42.205097 12.533044 -61.184227
v 57.205097 12.533044 -56.184227
v 52.205097 12.533044 -41.184227
v 42.205097 14.044118 -56.184227
v 52.205097 14.044118 -56.184227
v 52.205097 14.044118 -46.184227
v 42.205097 14.044118 -46.184227
v 42.205097 12.533044 -41.184227
v 57.205097 12.533044 -46.184227
v 52.205097 12.533044 -61.184227
v 37.205097 12.533044 -56.184227
v 37.205097 12.783044 -41.184227
v 37.205097 13.033044 -58.684227
v 54.705097 13.033044 -61.184227
v 57.205097 13.033044 -43.684227
v 39.705097 13.033044 -41.184227
v 37.205097 13.033044 -48.684227
v 44.705097 13.033044 -61.184227
v 57.205097 13.033044 -53.684227
v 49.705097 13.033044 -41.184227
v 47.205097 14.044118 -43.684227
v 47.205097 15.376706 -53.684227
v 54.705097 14.044118 -51.184227
v 44.705097 15.376706 -51.184227
v 37.205097 13.033044 -53.684227
v 49.705097 13.033044 -61.184227
v 57.205097 13.033044 -48.684227
v 44.705097 13.033044 -41.184227
v 37.205097 13.033044 -43.684227
v 37.205097 12.783044 -61.184227
v 39.705097 13.033044 -61.184227
v 57.205097 12.783044 -61.184227
v 57.205097 13.033044 -58.684227
v 57.205097 12.783044 -41.184227
v 54.705097 13.033044 -41.184227
v 47.205097 15.376706 -48.684227
v 47.205097 14.044118 -58.684227
v 49.705097 15.376706 -51.184227
v 39.705097 14.044118 -51.184227
v 47.205097 12.783044 -41.184227
v 57.205097 12.783044 -51.184227
v 47.205097 12.783044 -61.184227
v 37.205097 12.783044 -51.184227
v 37.205097 12.533044 -48.684227
v 37.205097 12.533044 -43.684227
v 37.205097 12.783044 -46.184227
v 44.705097 12.533044 -61.184227
v 39.705097 12.533044 -61.184227
v 42.205097 12.783044 -61.184227
v 57.205097 12.533044 -53.684227
v 57.205097 12.533044 -58.684227
v 57.205097 12.783044 -56.184227
v 49.705097 12.533044 -41.184227
v 54.705097 12.533044 -41.184227
v 52.205097 12.783044 -41.184227
v 42.205097 14.791014 -53.684227
v 42.205097 14.044118 -58.684227
v 44.705097 14.791014 -56.184227
v 39.705097 14.044118 -56.184227
v 52.205097 14.791014 -53.684227
v 52.205097 14.044118 -58.684227
v 54.705097 14.044118 -56.184227
v 49.705097 14.791014 -56.184227
v 52.205097 14.044118 -43.684227
v 52.205097 14.791014 -48.684227
v 54.705097 14.044118 -46.184227
v 49.705097 14.791014 -46.184227
v 42.205097 14.044118 -43.684227
v 42.205097 14.791014 -48.684227
v 44.705097 14.791014 -46.184227
v 39.705097 14.044118 -46.184227
v 39.705097 12.533044 -41.184227
v 44.705097 12.533044 -41.184227
v 42.205097 12.783044 -41.184227
v 57.205097 12.533044 -43.684227
v 57.205097 12.533044 -48.684227
v 57.205097 12.783044 -46.184227
v 54.705097 12.533044 -61.184227
v 49.705097 12.533044 -61.184227
v 52.205097 12.783044 -61.184227
v 37.205097 12.533044 -58.684227
v 37.205097 12.533044 -53.684227
v 37.205097 12.783044 -56.184227
v 37.205097 12.783044 -53.684227
v 49.705097 12.783044 -61.184227
v 57.205097 12.783044 -48.684227
v 44.705097 12.783044 -41.184227
v 39.705097 14.044118 -48.684227
v 44.705097 14.791014 -48.684227
v 44.705097 14.044118 -43.684227
v 49.705097 14.791014 -48.684227
v 54.705097 14.044118 -48.684227
v 54.705097 13.033044 -43.684227
v 49.705097 14.044118 -58.684227
v 54.705097 13.033044 -58.684227
v 54.705097 14.044118 -53.684227
v 39.705097 13.033044 -58.684227
v 44.705097 14.044118 -58.684227
v 44.705097 14.791014 -53.684227
v 54.705097 12.783044 -41.184227
v 57.205097 12.783044 -58.684227
v 39.705097 12.783044 -61.184227
v 37.205097 12.783044 -43.684227
v 37.205097 12.783044 -48.684227
v 44.705097 12.783044 -61.184227
v 57.205097 12.783044 -53.684227
v 49.705097 12.783044 -41.184227
v 39.705097 14.044118 -53.684227
v 49.705097 14.791014 -53.684227
v 49.705097 14.044118 -43.684227
v 39.705097 13.033044 -43.684227
v 39.705097 12.783044 -41.184227
v 57.205097 12.783044 -43.684227
v 54.705097 12.783044 -61.184227
v 37.205097 12.783044 -58.684227
vn -1.0000 -0.0000 -0.0000
vn -0.0000 -0.0000 -1.0000
vn 1.0000 -0.0000 -0.0000
vn -0.0000 -0.0000 1.0000
vn -0.0000 1.0000 -0.0000
vn -0.0000 0.9271 0.3749
vn 0.2224 0.9493 -0.2224
vn -0.3749 0.9271 -0.0000
vn -0.2224 0.9493 -0.2224
vn -0.2752 0.9212 -0.2752
vn -0.3511 0.8680 -0.3511
vn 0.2863 0.9582 -0.0000
vn 0.3511 0.8680 -0.3511
vn -0.0000 0.9582 -0.2863
vn -0.0000 -1.0000 -0.0000
vn -0.2752 0.9212 0.2752
vn -0.2863 0.9582 -0.0000
vn -0.2224 0.9493 0.2224
vn -0.2200 0.9504 0.2200
vn -0.0000 0.9582 0.2863
vn 0.2752 0.9212 0.2752
vn 0.2224 0.9493 0.2224
vn 0.3749 0.9271 -0.0000
vn 0.3511 0.8680 0.3511
vn -0.0000 0.9271 -0.3749
vn -0.2200 0.9504 -0.2200
vn 0.2752 0.9212 -0.2752
vn -0.3511 0.8680 0.3511
vn 0.2200 0.9504 -0.2200
vn 0.2200 0.9504 0.2200
vt -0.174152 0.779817
vt 0.657539 0.731155
vt 0.608616 0.584648
vt 1.000000 0.584648
vt 0.657539 0.829001
vt -0.174152 0.584648
vt 0.608616 0.584648
vt 0.608616 0.829001
vt 0.217232 0.779817
vt 0.608616 0.731155
vt 0.217232 0.584648
vt 0.804308 0.584648
vt 0.021540 0.584648
vt 0.412924 0.584648
vt 0.021540 0.779817
vt 0.804308 0.000000
vt 0.021540 0.000000
vt 0.412924 0.000000
vt 0.608616 0.682232
vt 0.217232 1.073616
vt -0.174152 0.682232
vt 0.902154 0.584648
vt 0.119386 0.584648
vt 0.510770 0.584648
vt 0.608616 0.577501
vt -0.076305 0.779817
vt 0.706462 0.584648
vt -0.174152 0.682232
vt 0.217232 0.682232
vt 1.000000 0.682232
vt 1.000000 0.577501
vt -0.076306 0.584648
vt 0.608616 0.682232
vt 0.217232 0.682232
vt 0.217232 0.577501
vt 0.315078 0.584648
vt 0.217232 0.682232
vt 0.608616 1.073616
vt 0.608616 0.682232
vt 0.608616 0.577501
vt 0.119386 0.779817
vt 0.510770 0.227253
vt 0.706462 0.227253
vt 0.021540 1.130065
vt 0.902154 0.227253
vt 0.021540 0.234400
vt 0.412924 0.234400
vt 0.119386 0.227253
vt 0.804308 0.234400
vt 0.412924 1.073616
vt 0.021540 0.682232
vt 0.608616 0.877924
vt 0.412924 0.682232
vt 0.412924 0.682232
vt 0.021540 0.682232
vt 0.217232 0.877924
vt 0.804308 0.682232
vt 0.217232 0.975770
vt 0.706462 0.682232
vt 0.315078 0.682232
vt -0.076306 0.682232
vt 0.608616 0.780078
vt 0.315078 0.682232
vt 0.510770 1.073616
vt 0.119386 0.682232
vt 0.902154 0.380171
vt 0.119386 0.380171
vt 0.510770 0.380171
vt 0.706462 0.380171
vt 0.315078 1.073616
vt -0.076305 0.682232
vt 0.608616 0.975770
vt 0.510770 0.682232
vt 0.510770 0.682232
vt 0.119386 0.682232
vt 0.217232 0.780078
vt 0.902154 0.682232
vt 0.608616 0.633440
vt -0.174152 0.731025
vt 0.608616 0.829001
vt 0.951077 0.584648
vt 0.657539 0.731155
vt 0.168309 0.584648
vt 0.657539 0.829001
vt 0.559693 0.584648
vt 0.608616 0.731155
vt 0.608616 0.581074
vt -0.125228 0.779817
vt 0.755385 0.584648
vt -0.027383 0.584648
vt 0.364001 0.584648
vt 0.070463 0.779817
vt 0.021540 0.980721
vt 0.853231 0.112944
vt 0.021540 0.116517
vt 0.412924 0.383744
vt 0.804308 0.116517
vt 0.853231 0.584648
vt 0.070463 0.584648
vt 0.461847 0.584648
vt -0.027383 0.779817
vt 0.657539 0.682232
vt 0.657539 0.584648
vt -0.174152 0.633440
vt 1.000000 0.633440
vt 0.657539 0.780078
vt 1.000000 0.581074
vt -0.125228 0.584648
vt 0.217232 0.633440
vt 0.217232 0.581074
vt 0.608616 0.780078
vt 0.266155 0.584648
vt 0.217232 0.731025
vt 0.608616 0.633440
vt 0.608616 0.581074
vt 0.608616 0.877924
vt 0.168309 0.779817
vt 0.755385 0.112944
vt 0.461847 0.112944
vt 0.021540 0.383744
vt 0.412924 0.116517
vt 0.070463 0.112944
vt 0.804308 0.383744
vt 0.021540 0.731025
vt 0.412924 0.633440
vt 0.021540 0.633440
vt 0.804308 0.633440
vt 0.217232 0.926847
vt 0.755385 0.682232
vt 0.217232 1.024693
vt 0.657539 0.682232
vt 0.706462 0.633440
vt 0.364001 0.682232
vt -0.027383 0.682232
vt 0.266155 0.682232
vt -0.125228 0.682232
vt -0.076306 0.633440
vt 0.608616 0.829001
vt 0.364001 0.682232
vt 0.608616 0.731155
vt 0.266155 0.682232
vt 0.315078 0.633440
vt 0.461847 1.073616
vt 0.070463 0.682232
vt 0.559693 1.073616
vt 0.168309 0.682232
vt 0.119386 0.731025
vt 0.853231 0.234400
vt 0.951077 0.380171
vt -0.076306 0.383744
vt -0.027383 0.234400
vt 0.902154 0.230826
vt 0.902154 0.383744
vt 0.364001 0.234400
vt 0.119386 0.230826
vt 0.119386 0.383744
vt 0.168309 0.380171
vt 0.315078 0.383744
vt 0.070463 0.234400
vt 0.119386 0.980721
vt 0.559693 0.380171
vt 0.461847 0.234400
vt 0.510770 0.383744
vt 0.070463 1.130065
vt 0.510770 0.230826
vt -0.076306 0.980721
vt 0.657539 0.380171
vt 0.755385 0.234400
vt 0.706462 0.230826
vt -0.027383 1.130065
vt 0.706462 0.383744
vt 0.266155 1.073616
vt -0.125228 0.682232
vt 0.364001 1.073616
vt -0.027383 0.682232
vt -0.076305 0.731025
vt 0.608616 1.024693
vt 0.559693 0.682232
vt 0.608616 0.926847
vt 0.461847 0.682232
vt 0.510770 0.633440
vt 0.559693 0.682232
vt 0.168309 0.682232
vt 0.461847 0.682232
vt 0.070463 0.682232
vt 0.119386 0.633440
vt 0.217232 0.731155
vt 0.951077 0.682232
vt 0.217232 0.829001
vt 0.853231 0.682232
vt 0.902154 0.633440
vt 0.853231 0.633440
vt 0.070463 0.633440
vt 0.461847 0.633440
vt -0.027383 0.731025
vt 0.755385 0.383744
vt 0.755385 0.230826
vt -0.027383 0.980721
vt 0.657539 0.376598
vt 0.461847 0.230826
vt 0.461847 0.383744
vt 0.657539 0.877924
vt 0.559693 0.581074
vt 0.070463 0.383744
vt 0.657539 0.780078
vt 0.168309 0.581074
vt 0.364001 0.383744
vt 0.168309 0.376598
vt 0.951077 0.581074
vt 0.608616 0.780078
vt 0.951077 0.376598
vt -0.027383 0.383744
vt 0.853231 0.230826
vt 0.168309 0.731025
vt 0.266155 0.633440
vt -0.125228 0.633440
vt 0.657539 0.633440
vt 0.755385 0.633440
vt -0.027383 0.633440
vt 0.364001 0.633440
vt 0.070463 0.731025
vt 0.853231 0.383744
vt 0.070463 0.230826
vt 0.559693 0.376598
vt 0.070463 0.980721
vt 0.608616 0.682232
vt 0.657539 0.581074
vt -0.125228 0.731025
vt 0.559693 0.633440
vt 0.168309 0.633440
vt 0.951077 0.633440
s 0
usemtl マテリアル.077
f 43/81/1 60/105/1 145/231/1
f 44/83/2 62/109/2 144/230/2
f 45/85/3 64/114/3 143/229/3
f 46/88/4 42/79/4 142/228/4
f 59/102/5 46/86/5 141/226/5
f 51/93/6 50/92/6 140/225/6
f 52/95/7 68/122/7 139/223/7
f 55/98/8 69/123/8 138/222/8
f 50/92/4 70/124/4 137/221/4
f 49/91/3 71/125/3 136/220/3
f 48/90/2 72/126/2 135/219/2
f 47/89/1 73/127/1 134/218/1
f 59/103/1 76/132/1 133/217/1
f 61/108/2 79/137/2 132/216/2
f 63/112/3 82/142/3 131/215/3
f 65/117/4 85/147/4 130/214/4
f 129/213/9 25/49/9 54/97/9
f 128/211/10 34/66/10 88/152/10
f 127/209/11 11/22/11 89/153/11
f 90/154/12 53/96/12 126/207/12
f 91/156/13 92/157/13 125/206/13
f 67/120/14 93/159/14 124/204/14
f 123/203/5 21/40/5 65/115/5
f 122/201/5 36/68/5 96/163/5
f 121/200/5 22/42/5 97/165/5
f 98/166/6 58/101/6 120/198/6
f 99/168/5 100/169/5 119/197/5
f 47/89/8 101/171/8 118/196/8
f 58/101/4 104/176/4 117/195/4
f 57/100/3 107/181/3 116/194/3
f 56/99/2 110/186/2 115/193/2
f 105/177/15 84/145/15 33/64/15
f 55/98/1 113/191/1 114/192/1
f 114/192/1 41/77/1 112/190/1
f 73/127/1 112/190/1 29/57/1
f 5/12/1 114/192/1 73/127/1
f 115/193/2 40/75/2 109/185/2
f 72/126/2 109/185/2 28/55/2
f 6/13/2 115/193/2 72/126/2
f 116/194/3 39/73/3 106/180/3
f 71/125/3 106/180/3 27/53/3
f 7/14/3 116/194/3 71/125/3
f 117/195/4 38/71/4 103/175/4
f 70/124/4 103/175/4 26/51/4
f 8/15/4 117/195/4 70/124/4
f 118/196/16 37/69/16 99/168/16
f 69/123/17 99/168/17 25/49/17
f 5/12/8 118/196/8 69/123/8
f 119/197/18 22/43/18 66/118/18
f 54/97/19 66/118/19 9/16/19
f 25/49/18 119/197/18 54/97/18
f 120/198/6 8/15/6 51/93/6
f 100/170/20 51/93/20 22/44/20
f 37/69/16 120/199/16 100/169/16
f 95/162/21 97/165/21 36/68/21
f 24/47/5 121/200/5 95/162/5
f 68/121/22 66/119/22 121/200/22
f 122/201/23 13/24/23 57/100/23
f 53/96/23 57/100/23 7/14/23
f 24/47/12 122/201/12 53/96/12
f 123/202/5 3/8/5 45/84/5
f 13/24/5 123/203/5 45/85/5
f 96/163/24 94/161/24 123/203/24
f 124/204/5 35/67/5 91/156/5
f 56/99/25 91/156/25 12/23/25
f 6/13/25 124/204/25 56/99/25
f 125/206/5 19/35/5 63/110/5
f 44/82/5 63/111/5 4/10/5
f 12/23/5 125/206/5 44/83/5
f 126/207/23 7/14/23 49/91/23
f 92/158/23 49/91/23 19/36/23
f 35/67/5 126/208/5 92/157/5
f 87/149/5 89/153/5 34/66/5
f 17/31/11 127/209/11 87/149/11
f 2/5/5 127/210/5 61/106/5
f 128/212/14 23/46/14 67/120/14
f 48/90/25 67/120/25 6/13/25
f 17/32/25 128/212/25 48/90/25
f 52/94/26 54/97/26 9/16/26
f 23/45/9 129/213/9 52/94/9
f 88/152/5 86/148/5 129/213/5
f 130/214/4 33/65/4 84/146/4
f 64/113/4 84/146/4 20/37/4
f 3/9/4 130/214/4 64/113/4
f 131/215/3 32/63/3 81/141/3
f 62/109/3 81/141/3 18/34/3
f 4/11/3 131/215/3 62/109/3
f 132/216/2 31/61/2 78/136/2
f 60/104/2 78/136/2 16/28/2
f 2/6/2 132/216/2 60/104/2
f 133/217/1 30/59/1 75/131/1
f 42/78/1 75/131/1 10/19/1
f 1/3/1 133/217/1 42/78/1
f 134/218/1 29/57/1 74/129/1
f 76/132/1 74/129/1 30/59/1
f 15/27/1 134/218/1 76/132/1
f 135/219/2 28/55/2 77/134/2
f 79/137/2 77/134/2 31/61/2
f 17/32/2 135/219/2 79/137/2
f 136/220/3 27/53/3 80/139/3
f 82/142/3 80/139/3 32/63/3
f 19/36/3 136/220/3 82/142/3
f 137/221/4 26/51/4 83/144/4
f 85/147/4 83/144/4 33/65/4
f 21/41/4 137/221/4 85/147/4
f 138/222/17 25/49/17 86/148/17
f 34/66/10 138/222/10 86/148/10
f 11/22/8 138/222/8 89/153/8
f 139/223/5 24/48/5 90/155/5
f 93/159/27 90/155/27 35/67/27
f 23/46/5 139/223/5 93/159/5
f 140/225/6 21/41/6 94/160/6
f 36/68/5 140/224/5 94/161/5
f 22/44/20 140/225/20 97/164/20
f 141/227/28 14/25/28 98/167/28
f 101/171/5 98/167/5 37/69/5
f 15/27/28 141/227/28 101/171/28
f 142/228/4 10/21/4 102/173/4
f 104/176/4 102/173/4 38/71/4
f 14/26/4 142/228/4 104/176/4
f 143/229/3 20/39/3 105/178/3
f 107/181/3 105/178/3 39/73/3
f 13/24/3 143/229/3 107/181/3
f 144/230/2 18/34/2 108/183/2
f 110/186/2 108/183/2 40/75/2
f 12/23/2 144/230/2 110/186/2
f 145/231/1 16/30/1 111/188/1
f 113/191/1 111/188/1 41/77/1
f 11/22/1 145/231/1 113/191/1
f 43/81/1 2/4/1 60/105/1
f 44/83/2 4/11/2 62/109/2
f 45/85/3 3/7/3 64/114/3
f 46/88/4 1/1/4 42/79/4
f 59/102/5 1/2/5 46/86/5
f 51/93/6 8/15/6 50/92/6
f 52/95/29 9/17/29 68/122/29
f 55/98/8 5/12/8 69/123/8
f 50/92/4 8/15/4 70/124/4
f 49/91/3 7/14/3 71/125/3
f 48/90/2 6/13/2 72/126/2
f 47/89/1 5/12/1 73/127/1
f 59/103/1 15/27/1 76/132/1
f 61/108/2 17/32/2 79/137/2
f 63/112/3 19/36/3 82/142/3
f 65/117/4 21/41/4 85/147/4
f 129/213/5 86/148/5 25/49/5
f 128/211/5 87/149/5 34/66/5
f 127/209/5 43/81/5 11/22/5
f 90/154/12 24/47/12 53/96/12
f 91/156/5 35/67/5 92/157/5
f 67/120/14 23/46/14 93/159/14
f 123/203/24 94/161/24 21/40/24
f 122/201/21 95/162/21 36/68/21
f 121/200/22 66/119/22 22/42/22
f 98/166/6 14/26/6 58/101/6
f 99/168/16 37/69/16 100/169/16
f 47/89/8 15/27/8 101/171/8
f 58/101/4 14/26/4 104/176/4
f 57/100/3 13/24/3 107/181/3
f 56/99/2 12/23/2 110/186/2
f 111/187/15 16/29/15 78/135/15
f 111/187/15 78/135/15 31/60/15
f 41/76/15 111/187/15 31/60/15
f 41/76/15 31/60/15 77/133/15
f 112/189/15 41/76/15 77/133/15
f 112/189/15 77/133/15 28/54/15
f 29/56/15 112/189/15 28/54/15
f 29/56/15 28/54/15 26/50/15
f 28/54/15 109/184/15 27/52/15
f 26/50/15 28/54/15 27/52/15
f 74/128/15 29/56/15 103/174/15
f 103/174/15 29/56/15 26/50/15
f 109/184/15 40/74/15 80/138/15
f 30/58/15 74/128/15 103/174/15
f 108/182/15 18/33/15 81/140/15
f 40/74/15 108/182/15 32/62/15
f 102/172/15 10/20/15 75/130/15
f 75/130/15 30/58/15 102/172/15
f 102/172/15 30/58/15 38/70/15
f 108/182/15 81/140/15 32/62/15
f 32/62/15 80/138/15 40/74/15
f 38/70/15 30/58/15 103/174/15
f 80/138/15 27/52/15 109/184/15
f 27/52/15 106/179/15 83/143/15
f 27/52/15 83/143/15 26/50/15
f 106/179/15 39/72/15 33/64/15
f 105/177/15 20/38/15 84/145/15
f 106/179/15 33/64/15 83/143/15
f 39/72/15 105/177/15 33/64/15
f 55/98/1 11/22/1 113/191/1
f 114/192/1 113/191/1 41/77/1
f 73/127/1 114/192/1 112/190/1
f 5/12/1 55/98/1 114/192/1
f 115/193/2 110/186/2 40/75/2
f 72/126/2 115/193/2 109/185/2
f 6/13/2 56/99/2 115/193/2
f 116/194/3 107/181/3 39/73/3
f 71/125/3 116/194/3 106/180/3
f 7/14/3 57/100/3 116/194/3
f 117/195/4 104/176/4 38/71/4
f 70/124/4 117/195/4 103/175/4
f 8/15/4 58/101/4 117/195/4
f 118/196/5 101/171/5 37/69/5
f 69/123/17 118/196/17 99/168/17
f 5/12/8 47/89/8 118/196/8
f 119/197/5 100/169/5 22/43/5
f 54/97/18 119/197/18 66/118/18
f 25/49/5 99/168/5 119/197/5
f 120/198/6 58/101/6 8/15/6
f 100/170/20 120/198/20 51/93/20
f 37/69/5 98/167/5 120/199/5
f 95/162/5 121/200/5 97/165/5
f 24/47/22 68/121/22 121/200/22
f 68/121/30 9/18/30 66/119/30
f 122/201/23 96/163/23 13/24/23
f 53/96/23 122/201/23 57/100/23
f 24/47/12 95/162/12 122/201/12
f 123/202/5 65/116/5 3/8/5
f 13/24/24 96/163/24 123/203/24
f 96/163/5 36/68/5 94/161/5
f 124/204/27 93/159/27 35/67/27
f 56/99/25 124/204/25 91/156/25
f 6/13/25 67/120/25 124/204/25
f 125/206/13 92/157/13 19/35/13
f 44/82/5 125/205/5 63/111/5
f 12/23/13 91/156/13 125/206/13
f 126/207/23 53/96/23 7/14/23
f 92/158/23 126/207/23 49/91/23
f 35/67/27 90/155/27 126/208/27
f 87/149/11 127/209/11 89/153/11
f 17/31/5 61/107/5 127/209/5
f 2/5/5 43/80/5 127/210/5
f 128/212/14 88/151/14 23/46/14
f 48/90/25 128/212/25 67/120/25
f 17/32/25 87/150/25 128/212/25
f 52/94/9 129/213/9 54/97/9
f 23/45/5 88/152/5 129/213/5
f 88/152/10 34/66/10 86/148/10
f 130/214/4 85/147/4 33/65/4
f 64/113/4 130/214/4 84/146/4
f 3/9/4 65/117/4 130/214/4
f 131/215/3 82/142/3 32/63/3
f 62/109/3 131/215/3 81/141/3
f 4/11/3 63/112/3 131/215/3
f 132/216/2 79/137/2 31/61/2
f 60/104/2 132/216/2 78/136/2
f 2/6/2 61/108/2 132/216/2
f 133/217/1 76/132/1 30/59/1
f 42/78/1 133/217/1 75/131/1
f 1/3/1 59/103/1 133/217/1
f 134/218/1 73/127/1 29/57/1
f 76/132/1 134/218/1 74/129/1
f 15/27/1 47/89/1 134/218/1
f 135/219/2 72/126/2 28/55/2
f 79/137/2 135/219/2 77/134/2
f 17/32/2 48/90/2 135/219/2
f 136/220/3 71/125/3 27/53/3
f 82/142/3 136/220/3 80/139/3
f 19/36/3 49/91/3 136/220/3
f 137/221/4 70/124/4 26/51/4
f 85/147/4 137/221/4 83/144/4
f 21/41/4 50/92/4 137/221/4
f 138/222/17 69/123/17 25/49/17
f 34/66/5 89/153/5 138/222/5
f 11/22/8 55/98/8 138/222/8
f 139/223/7 68/122/7 24/48/7
f 93/159/5 139/223/5 90/155/5
f 23/46/7 52/95/7 139/223/7
f 140/225/6 50/92/6 21/41/6
f 36/68/21 97/165/21 140/224/21
f 22/44/20 51/93/20 140/225/20
f 141/227/5 46/87/5 14/25/5
f 101/171/28 141/227/28 98/167/28
f 15/27/5 59/103/5 141/227/5
f 142/228/4 42/79/4 10/21/4
f 104/176/4 142/228/4 102/173/4
f 14/26/4 46/88/4 142/228/4
f 143/229/3 64/114/3 20/39/3
f 107/181/3 143/229/3 105/178/3
f 13/24/3 45/85/3 143/229/3
f 144/230/2 62/109/2 18/34/2
f 110/186/2 144/230/2 108/183/2
f 12/23/2 44/83/2 144/230/2
f 145/231/1 60/105/1 16/30/1
f 113/191/1 145/231/1 111/188/1
f 11/22/1 43/81/1 145/231/1
