# Blender 3.5.0
# www.blender.org
mtllib house19.mtl
o 立方体.020
v 102.768005 17.526588 -49.137398
v 102.768005 21.526588 -49.137398
v 102.768005 17.526588 -89.137398
v 102.768005 21.526588 -89.137398
v 158.768005 17.526588 -49.137398
v 158.768005 21.526588 -49.137398
v 158.768005 17.526588 -89.137398
v 158.768005 21.526588 -89.137398
v 102.768005 17.526588 -69.137398
v 102.768005 19.526588 -49.137398
v 102.768005 21.526588 -69.137398
v 102.768005 19.526588 -89.137398
v 158.768005 19.526588 -89.137398
v 158.768005 17.526588 -69.137398
v 158.768005 21.526588 -69.137398
v 158.768005 19.526588 -49.137398
v 130.768005 17.526588 -49.137398
v 130.768005 21.526588 -49.137398
v 130.768005 19.526588 -49.137398
v 158.768005 19.526588 -69.137398
v 102.768005 19.526588 -69.137398
v 102.768005 17.526588 -59.137398
v 102.768005 20.526588 -49.137398
v 102.768005 21.526588 -79.137398
v 102.768005 18.526588 -89.137398
v 103.761368 17.526588 -89.137398
v 157.497604 21.526588 -89.137398
v 158.768005 18.526588 -89.137398
v 158.768005 17.526588 -79.137398
v 158.768005 21.526588 -59.137398
v 158.768005 18.526588 -49.137398
v 144.768005 17.526588 -49.137398
v 116.768005 21.526588 -49.137398
v 102.768005 17.526588 -79.137398
v 102.768005 18.526588 -49.137398
v 102.768005 21.526588 -59.137398
v 102.768005 20.526588 -89.137398
v 157.497604 17.526588 -89.137398
v 103.761368 21.526588 -89.137398
v 158.768005 20.526588 -89.137398
v 158.768005 17.526588 -59.137398
v 158.768005 21.526588 -79.137398
v 158.768005 20.526588 -49.137398
v 116.768005 17.526588 -49.137398
v 144.768005 21.526588 -49.137398
v 130.768005 21.526588 -50.266075
v 157.497604 21.526588 -69.137398
v 103.761368 21.526588 -69.137398
v 130.768005 17.526588 -50.266075
v 103.761368 17.526588 -69.137398
v 157.497604 17.526588 -69.137398
v 116.768005 19.526588 -49.137398
v 144.768005 19.526588 -49.137398
v 130.768005 18.526588 -49.137398
v 130.768005 20.526588 -49.137398
v 158.768005 19.526588 -59.137398
v 158.768005 19.526588 -79.137398
v 158.768005 18.526588 -69.137398
v 158.768005 20.526588 -69.137398
v 157.497604 19.526588 -89.137398
v 103.761368 19.526588 -89.137398
v 102.768005 19.526588 -79.137398
v 102.768005 19.526588 -59.137398
v 102.768005 18.526588 -69.137398
v 102.768005 20.526588 -69.137398
v 102.768005 20.526588 -59.137398
v 102.768005 18.526588 -59.137398
v 102.768005 18.526588 -79.137398
v 103.761368 20.526588 -89.137398
v 103.761368 18.526588 -89.137398
v 157.497604 18.526588 -89.137398
v 158.768005 20.526588 -79.137398
v 158.768005 18.526588 -79.137398
v 158.768005 18.526588 -59.137398
v 144.768005 20.526588 -49.137398
v 144.768005 18.526588 -49.137398
v 116.768005 18.526588 -49.137398
v 157.497604 17.526588 -79.137398
v 103.761368 17.526588 -79.137398
v 103.761368 17.526588 -50.266075
v 103.761368 21.526588 -79.137398
v 157.497604 21.526588 -79.137398
v 157.497604 21.526588 -50.266075
v 103.761368 21.526588 -50.266075
v 157.497604 17.526588 -50.266075
v 116.768005 20.526588 -49.137398
v 158.768005 20.526588 -59.137398
v 157.497604 20.526588 -89.137398
v 102.768005 20.526588 -79.137398
vn -1.0000 -0.0000 -0.0000
vn -0.0000 -0.0000 -1.0000
vn 1.0000 -0.0000 -0.0000
vn -0.0000 -0.0000 1.0000
vn -0.0000 -1.0000 -0.0000
vn -0.0000 1.0000 -0.0000
vt -2.921127 0.000000
vt -2.921126 0.356075
vt -4.886203 1.068224
vt -2.921127 0.712149
vt -2.921127 0.356075
vt 0.988435 0.356075
vt -4.886203 0.712149
vt -4.886203 0.000000
vt -4.886203 0.356075
vt 0.988435 0.712149
vt -2.921127 0.356075
vt -0.956051 0.356075
vt -2.921127 1.068224
vt -2.921126 0.000000
vt -2.921127 0.356075
vt -0.956051 0.712149
vt -4.886203 0.712149
vt -0.956051 0.000000
vt 0.953577 0.000000
vt -2.921127 0.712149
vt -4.886203 0.356075
vt 0.953577 0.356075
vt -0.956051 0.356075
vt -3.903664 0.000000
vt -4.886203 0.890186
vt -2.921127 0.178037
vt -2.921126 0.534112
vt -2.921127 0.534112
vt -3.903665 0.356075
vt 0.988435 0.534112
vt -4.886203 0.178037
vt -0.956051 0.178037
vt 0.953577 0.178037
vt -1.938588 0.000000
vt -2.921127 0.890186
vt -4.886203 0.534112
vt -1.938588 0.356075
vt -0.956051 0.534112
vt -2.921126 0.178037
vt -3.903665 1.068224
vt -1.938588 0.356075
vt -3.903665 0.712149
vt -1.938588 0.712149
vt -1.938588 0.534112
vt -1.938588 0.178037
vt -3.903664 0.178037
vt -3.412395 0.000000
vt -4.886203 0.979205
vt -2.921127 0.267056
vt -2.921126 0.623131
vt -2.921127 0.445093
vt -4.394934 0.356075
vt -4.886203 0.089019
vt 0.988435 0.445093
vt 0.953577 0.356075
vt -4.851345 0.712149
vt 0.953577 0.000000
vt 0.998156 0.356075
vt -4.841623 0.356075
vt -0.956051 0.712149
vt 0.953577 0.089019
vt -0.956051 0.089019
vt -1.447320 0.000000
vt -2.921127 0.801168
vt -4.886203 0.623131
vt -2.429857 0.356075
vt -2.921126 0.089019
vt -0.956051 0.445093
vt -1.447320 0.356075
vt -3.412395 1.068224
vt -3.412395 0.712149
vt -2.429857 0.712149
vt -4.394933 0.000000
vt -4.886203 0.801168
vt -2.921127 0.089019
vt -2.921126 0.445093
vt -3.412395 0.356075
vt -2.921127 0.623131
vt 0.988435 0.623131
vt -4.886203 0.267056
vt 0.998156 0.000000
vt -2.965706 0.712149
vt -0.956051 0.356075
vt -2.955985 0.356075
vt 0.953577 0.712149
vt 0.953577 0.356075
vt -0.956051 0.267056
vt 0.953577 0.267056
vt -2.429857 0.000000
vt -2.921127 0.979205
vt -1.447320 0.356075
vt -4.886203 0.445093
vt -0.956051 0.623131
vt -2.921126 0.267056
vt -2.429857 0.356075
vt -4.394934 1.068224
vt -1.447320 0.712149
vt -4.394934 0.712149
vt -3.903665 0.702102
vt -1.983168 1.068224
vt -4.841623 0.534112
vt 0.026487 0.712149
vt -2.955985 0.534112
vt -0.028961 0.356075
vt -3.903665 1.058177
vt -1.983168 0.712149
vt -4.851345 0.890186
vt -0.028961 0.000000
vt -2.965706 0.890186
vt 0.026488 0.356075
vt -2.429857 0.534112
vt -1.447320 0.534112
vt -1.938588 0.445093
vt -1.938588 0.623131
vt -2.429857 0.178037
vt -1.447320 0.178037
vt -1.938588 0.089019
vt -1.938588 0.267056
vt 0.998156 0.178037
vt -0.956051 0.534112
vt 0.953577 0.534112
vt 0.953577 0.178037
vt -4.394934 0.178037
vt -3.412395 0.178037
vt -3.903664 0.089019
vt -3.903664 0.267056
vt -3.412395 0.267056
vt -3.412395 0.089019
vt -4.394934 0.089019
vt 0.953577 0.623131
vt 0.953577 0.267056
vt 0.953577 0.445093
vt 0.953577 0.089019
vt 0.998156 0.089019
vt -0.956051 0.445093
vt -1.447320 0.267056
vt -1.447320 0.089019
vt -2.429857 0.089019
vt -1.447320 0.623131
vt -1.447320 0.445093
vt -2.429857 0.445093
vt -2.965706 0.801168
vt -0.464782 0.356075
vt -4.851345 0.801168
vt 0.462308 0.000000
vt -4.851345 1.058176
vt -1.035488 0.712149
vt -0.956051 0.000000
vt -2.955985 0.445093
vt 0.462308 0.356075
vt -4.841623 0.445093
vt -0.464782 0.712149
vt -4.841623 0.702102
vt 0.953577 0.712149
vt -2.921127 1.068224
vt -2.955985 0.702102
vt -1.035488 1.068224
vt -0.956051 0.356075
vt -2.965706 1.058177
vt 0.953577 0.356075
vt -2.921127 0.712149
vt -2.429857 0.623131
vt -2.429857 0.267056
vt 0.998156 0.267056
vt -0.956051 0.623131
vt -4.394934 0.267056
s 0
usemtl マテリアル.021
f 24/52/1 37/80/1 89/166/1
f 27/58/2 40/88/2 88/164/2
f 30/66/3 43/94/3 87/163/3
f 33/72/4 23/50/4 86/162/4
f 85/159/5 5/13/5 32/70/5
f 84/156/6 2/4/6 33/71/6
f 46/99/6 45/98/6 83/153/6
f 24/51/6 48/103/6 81/149/6
f 49/105/5 44/96/5 80/146/5
f 29/64/5 51/109/5 78/142/5
f 52/111/4 35/76/4 77/141/4
f 53/112/4 54/113/4 76/140/4
f 45/97/4 55/114/4 75/139/4
f 56/115/3 31/67/3 74/138/3
f 57/116/3 58/117/3 73/137/3
f 42/91/3 59/118/3 72/136/3
f 60/119/2 28/61/2 71/134/2
f 62/123/1 25/53/1 68/129/1
f 63/124/1 64/125/1 67/128/1
f 36/77/1 65/126/1 66/127/1
f 66/127/1 21/46/1 63/124/1
f 23/49/1 63/124/1 10/26/1
f 2/5/1 66/127/1 23/49/1
f 67/128/1 9/24/1 22/47/1
f 35/75/1 22/47/1 1/1/1
f 10/26/1 67/128/1 35/75/1
f 68/129/1 3/8/1 34/73/1
f 64/125/1 34/73/1 9/24/1
f 21/46/1 68/129/1 64/125/1
f 37/79/2 61/121/2 12/30/2
f 4/10/2 69/130/2 37/79/2
f 25/54/2 26/55/2 3/6/2
f 12/30/2 70/132/2 25/54/2
f 71/134/2 7/19/2 38/81/2
f 72/136/3 20/45/3 57/116/3
f 40/87/3 57/116/3 13/32/3
f 8/23/3 72/136/3 40/87/3
f 73/137/3 14/34/3 29/63/3
f 28/62/3 29/63/3 7/18/3
f 13/32/3 73/137/3 28/62/3
f 74/138/3 5/14/3 41/89/3
f 58/117/3 41/89/3 14/34/3
f 20/45/3 74/138/3 58/117/3
f 75/139/4 19/44/4 53/112/4
f 43/93/4 53/112/4 16/38/4
f 6/16/4 75/139/4 43/93/4
f 76/140/4 17/41/4 32/69/4
f 31/68/4 32/69/4 5/12/4
f 16/38/4 76/140/4 31/68/4
f 77/141/4 1/2/4 44/95/4
f 54/113/4 44/95/4 17/41/4
f 19/44/4 77/141/4 54/113/4
f 7/20/5 78/142/5 38/82/5
f 79/144/5 9/25/5 34/74/5
f 26/56/5 34/74/5 3/7/5
f 80/146/5 1/3/5 22/48/5
f 50/107/5 22/48/5 9/25/5
f 4/11/6 81/149/6 39/84/6
f 82/151/6 15/36/6 42/92/6
f 27/59/6 42/92/6 8/21/6
f 83/153/6 6/17/6 30/65/6
f 47/101/6 30/65/6 15/36/6
f 46/99/6 33/71/6 18/42/6
f 48/103/6 36/78/6 84/156/6
f 49/105/5 32/70/5 17/40/5
f 51/109/5 41/90/5 85/159/5
f 86/162/4 10/27/4 52/111/4
f 55/114/4 52/111/4 19/44/4
f 18/43/4 86/162/4 55/114/4
f 87/163/3 16/39/3 56/115/3
f 59/118/3 56/115/3 20/45/3
f 15/37/3 87/163/3 59/118/3
f 88/164/2 13/33/2 60/119/2
f 89/166/1 12/31/1 62/123/1
f 65/126/1 62/123/1 21/46/1
f 11/29/1 89/166/1 65/126/1
f 88/165/1 60/120/1 82/152/1
f 49/106/2 46/100/2 85/161/2
f 70/133/3 61/122/3 79/145/3
f 24/52/1 4/9/1 37/80/1
f 27/58/2 8/22/2 40/88/2
f 30/66/3 6/15/3 43/94/3
f 33/72/4 2/4/4 23/50/4
f 85/159/5 41/90/5 5/13/5
f 84/156/6 36/78/6 2/4/6
f 46/99/6 18/42/6 45/98/6
f 24/51/6 11/28/6 48/103/6
f 49/105/5 17/40/5 44/96/5
f 29/64/5 14/35/5 51/109/5
f 52/111/4 10/27/4 35/76/4
f 53/112/4 19/44/4 54/113/4
f 45/97/4 18/43/4 55/114/4
f 56/115/3 16/39/3 31/67/3
f 57/116/3 20/45/3 58/117/3
f 42/91/3 15/37/3 59/118/3
f 60/119/2 13/33/2 28/61/2
f 62/123/1 12/31/1 25/53/1
f 63/124/1 21/46/1 64/125/1
f 36/77/1 11/29/1 65/126/1
f 66/127/1 65/126/1 21/46/1
f 23/49/1 66/127/1 63/124/1
f 2/5/1 36/77/1 66/127/1
f 67/128/1 64/125/1 9/24/1
f 35/75/1 67/128/1 22/47/1
f 10/26/1 63/124/1 67/128/1
f 68/129/1 25/53/1 3/8/1
f 64/125/1 68/129/1 34/73/1
f 21/46/1 62/123/1 68/129/1
f 37/79/2 69/130/2 61/121/2
f 4/10/2 39/85/2 69/130/2
f 25/54/2 70/132/2 26/55/2
f 12/30/2 61/121/2 70/132/2
f 71/134/2 28/61/2 7/19/2
f 72/136/3 59/118/3 20/45/3
f 40/87/3 72/136/3 57/116/3
f 8/23/3 42/91/3 72/136/3
f 73/137/3 58/117/3 14/34/3
f 28/62/3 73/137/3 29/63/3
f 13/32/3 57/116/3 73/137/3
f 74/138/3 31/67/3 5/14/3
f 58/117/3 74/138/3 41/89/3
f 20/45/3 56/115/3 74/138/3
f 75/139/4 55/114/4 19/44/4
f 43/93/4 75/139/4 53/112/4
f 6/16/4 45/97/4 75/139/4
f 76/140/4 54/113/4 17/41/4
f 31/68/4 76/140/4 32/69/4
f 16/38/4 53/112/4 76/140/4
f 77/141/4 35/76/4 1/2/4
f 54/113/4 77/141/4 44/95/4
f 19/44/4 52/111/4 77/141/4
f 7/20/5 29/64/5 78/142/5
f 79/144/5 50/107/5 9/25/5
f 26/56/5 79/144/5 34/74/5
f 80/146/5 44/96/5 1/3/5
f 50/107/5 80/146/5 22/48/5
f 4/11/6 24/51/6 81/149/6
f 82/151/6 47/101/6 15/36/6
f 27/59/6 82/151/6 42/92/6
f 83/153/6 45/98/6 6/17/6
f 47/101/6 83/153/6 30/65/6
f 46/99/6 84/156/6 33/71/6
f 48/103/6 11/28/6 36/78/6
f 49/105/5 85/159/5 32/70/5
f 51/109/5 14/35/5 41/90/5
f 86/162/4 23/50/4 10/27/4
f 55/114/4 86/162/4 52/111/4
f 18/43/4 33/72/4 86/162/4
f 87/163/3 43/94/3 16/39/3
f 59/118/3 87/163/3 56/115/3
f 15/37/3 30/66/3 87/163/3
f 88/164/2 40/88/2 13/33/2
f 89/166/1 37/80/1 12/31/1
f 65/126/1 89/166/1 62/123/1
f 11/29/1 24/52/1 89/166/1
f 71/135/1 38/83/1 78/143/1
f 51/110/1 85/160/1 83/154/1
f 71/135/1 78/143/1 60/120/1
f 78/143/1 51/110/1 60/120/1
f 51/110/1 83/154/1 47/102/1
f 82/152/1 27/60/1 88/165/1
f 51/110/1 47/102/1 60/120/1
f 47/102/1 82/152/1 60/120/1
f 49/106/2 80/147/2 84/157/2
f 46/100/2 83/155/2 85/161/2
f 49/106/2 84/157/2 46/100/2
f 69/131/3 39/86/3 81/150/3
f 48/104/3 84/158/3 80/148/3
f 69/131/3 81/150/3 61/122/3
f 81/150/3 48/104/3 61/122/3
f 48/104/3 80/148/3 50/108/3
f 79/145/3 26/57/3 70/133/3
f 48/104/3 50/108/3 61/122/3
f 50/108/3 79/145/3 61/122/3
