# Blender 3.5.0
# www.blender.org
mtllib axe.mtl
o Cube
v -0.052066 1.105404 0.490128
v -0.053836 1.105408 0.489995
v -0.049158 2.774677 0.496887
v -0.050929 2.774680 0.496754
v 0.222721 1.406689 -0.868752
v -0.121602 1.407393 -0.894580
v 0.224597 2.483451 -0.864392
v -0.119727 2.484155 -0.890220
vn 0.9803 -0.0025 0.1977
vn 0.0174 0.9784 -0.2058
vn 0.0748 0.0039 -0.9972
vn -0.9988 0.0015 0.0492
vn -0.0748 -0.0039 0.9972
vn 0.0140 -0.9768 -0.2137
vt 0.008193 0.008193
vt 0.832406 0.334798
vt 0.844018 0.613373
vt 0.553831 0.008193
vt 0.833419 0.334798
vt 0.845031 0.613373
vt 0.008193 0.334798
vt 0.631602 0.613373
vt 0.832406 0.008193
vt 0.630589 0.613373
vt 0.553831 0.334798
vt 0.833419 0.008193
vt 0.272819 0.066157
vt 0.991807 0.561859
vt 0.746002 0.865920
vt 0.794763 0.561859
vt 0.289204 0.066157
vt 0.943046 0.865920
vt 0.272819 0.276833
vt 0.729617 0.865920
vt 0.991807 0.351183
vt 0.532573 0.865920
vt 0.794763 0.351183
vt 0.289204 0.276833
s 0
usemtl マテリアル.001
f 1/1/1 5/13/1 7/19/1 3/7/1
f 4/10/2 3/8/2 7/20/2 8/22/2
f 8/23/3 7/21/3 5/14/3 6/16/3
f 6/17/4 2/4/4 4/11/4 8/24/4
f 2/5/5 1/2/5 3/9/5 4/12/5
f 6/18/6 5/15/6 1/3/6 2/6/6
o 立方体
v -0.022614 -0.733783 -0.640020
v -0.022614 2.684590 -0.640020
v -0.022614 -0.733783 -0.787513
v -0.022614 2.684590 -0.787513
v 0.096720 -0.733783 -0.640020
v 0.096720 2.684590 -0.640020
v 0.096720 -0.733783 -0.787513
v 0.096720 2.684590 -0.787513
vn -1.0000 -0.0000 -0.0000
vn -0.0000 -0.0000 -1.0000
vn 1.0000 -0.0000 -0.0000
vn -0.0000 -0.0000 1.0000
vn -0.0000 -1.0000 -0.0000
vn -0.0000 1.0000 -0.0000
vt 0.253998 0.613373
vt 0.008193 0.351183
vt 0.270383 0.596988
vt 0.253998 0.859178
vt 0.008193 0.596988
vt 0.516188 0.859178
vt 0.008193 0.613373
vt 0.816021 0.008193
vt 0.270383 0.351183
vt 0.008193 0.859178
vt 0.816021 0.253998
vt 0.516188 0.613373
vt 0.532573 0.351183
vt 0.253998 0.351183
vt 0.516188 0.596988
vt 0.532573 0.596988
vt 0.253998 0.596988
vt 0.270383 0.859178
vt 0.570216 0.008193
vt 0.778378 0.351183
vt 0.516188 0.351183
vt 0.570216 0.253998
vt 0.778378 0.596988
vt 0.270383 0.613373
s 0
usemtl マテリアル.002
f 9/25/7 10/28/7 12/34/7 11/31/7
f 11/32/8 12/35/8 16/46/8 15/43/8
f 15/44/9 16/47/9 14/40/9 13/37/9
f 13/38/10 14/41/10 10/29/10 9/26/10
f 11/33/11 15/45/11 13/39/11 9/27/11
f 16/48/12 12/36/12 10/30/12 14/42/12
