# Blender 3.5.0
# www.blender.org
mtllib house38.mtl
o 立方体.053
v -33.393860 5.230171 -88.187172
v -33.393860 11.430170 -88.187172
v -42.793869 5.230171 -88.187172
v -42.793869 11.430170 -88.187172
v -33.393860 5.230171 -96.187172
v -38.165462 5.330171 -94.260628
v -33.506493 5.330171 -94.260628
v -38.165462 11.330171 -94.260628
v -42.665462 5.330171 -94.260628
v -33.393860 11.430170 -96.187172
v -33.506493 11.330171 -94.260628
v -42.665462 11.330171 -94.260628
v -42.793869 5.230171 -96.187172
v -38.006493 5.330171 -94.260628
v -42.793869 11.430170 -96.187172
v -38.006493 11.330171 -94.260628
v -33.506493 5.330171 -88.187172
v -33.506493 6.775079 -88.187172
v -33.506493 11.330171 -88.187172
v -38.006493 8.387798 -88.187172
v -38.006493 5.330171 -88.187172
v -34.590172 5.330171 -88.187172
v -33.545471 11.330171 -88.187172
v -36.922810 11.330171 -88.187172
v -38.006493 11.330171 -88.187172
v -38.006493 9.885262 -88.187172
v -38.165462 5.330171 -88.187172
v -38.165462 6.775079 -88.187172
v -42.642254 5.330171 -88.187172
v -39.249142 5.330171 -88.187172
v -38.165462 8.282947 -88.187172
v -42.665462 9.885262 -88.187172
v -42.665462 5.330171 -88.187172
v -42.665462 11.330171 -88.187172
v -41.581779 11.330171 -88.187172
v -38.165462 11.330171 -88.187172
vn -0.0000 -0.0000 1.0000
vn -1.0000 -0.0000 -0.0000
vn -0.0000 -0.0000 -1.0000
vn 1.0000 -0.0000 -0.0000
vn -0.0000 -1.0000 -0.0000
vn -0.0000 1.0000 -0.0000
vt 0.333333 0.000000
vt 0.333333 0.666667
vt 1.000000 0.000000
vt 0.333333 0.333333
vt 0.333333 1.000000
vt 1.000000 0.333333
vt 0.333333 0.000000
vt 0.333333 0.333333
vt 0.666667 0.000000
vt 0.333333 0.333333
vt 0.333333 0.666667
vt 0.666667 0.333333
vt 0.666667 0.000000
vt 0.000000 0.333333
vt 0.666667 0.666667
vt 0.375000 0.750000
vt 0.375000 0.750000
vt 0.625000 0.750000
vt 0.375000 0.500000
vt 0.000000 0.666667
vt 0.666667 0.333333
vt 0.000000 1.000000
vt 0.625000 0.750000
vt 0.625000 0.500000
vt 0.333333 0.333333
vt 0.000000 0.000000
vt 0.666667 0.333333
vt 0.375000 0.500000
vt 0.000000 0.666667
vt 0.000000 0.333333
vt 0.333333 0.666667
vt 0.625000 0.500000
vt 0.375000 0.939795
vt 0.185205 0.750000
vt 0.996006 0.005376
vt 0.996006 0.083060
vt 0.435205 0.939795
vt 0.625000 0.939795
vt 0.996006 0.327957
vt 0.814795 0.750000
vt 0.836432 0.169765
vt 0.502401 0.310205
vt 0.375000 0.310205
vt 0.185205 0.500000
vt 0.836432 0.005376
vt 0.957577 0.005376
vt 0.185205 0.689795
vt 0.994624 0.327957
vt 0.814795 0.747835
vt 0.874860 0.327957
vt 0.814795 0.560205
vt 0.814795 0.500000
vt 0.836432 0.327957
vt 0.625000 0.310205
vt 0.836432 0.250274
vt 0.564795 0.310205
vt 0.375000 0.939795
vt 0.185205 0.750000
vt 0.830794 0.005376
vt 0.830794 0.083060
vt 0.435205 0.939795
vt 0.672043 0.005376
vt 0.185205 0.501289
vt 0.792366 0.005376
vt 0.185205 0.689795
vt 0.830794 0.164128
vt 0.498032 0.939796
vt 0.671220 0.250274
vt 0.564795 0.310205
vt 0.375000 0.310205
vt 0.671220 0.005376
vt 0.185205 0.500000
vt 0.814795 0.500000
vt 0.671220 0.327957
vt 0.625000 0.310205
vt 0.709648 0.327957
vt 0.814795 0.560205
vt 0.625000 0.939795
vt 0.814795 0.750000
vt 0.830794 0.327957
s 0
usemtl マテリアル.049
f 1/3/1 21/45/1 27/59/1
f 4/10/2 13/26/2 3/7/2
f 15/31/3 5/14/3 13/25/3
f 10/21/4 1/1/4 5/13/4
f 13/27/5 1/2/5 3/8/5
f 4/11/6 10/22/6 15/29/6
f 4/12/1 34/74/1 35/76/1
f 4/10/2 15/30/2 13/26/2
f 15/31/3 10/20/3 5/14/3
f 10/21/4 2/4/4 1/1/4
f 13/27/5 5/15/5 1/2/5
f 4/11/6 2/5/6 10/22/6
f 29/62/1 3/9/1 1/3/1
f 2/6/1 23/48/1 19/39/1
f 2/6/1 19/39/1 18/36/1
f 30/64/1 29/62/1 1/3/1
f 27/59/1 30/64/1 1/3/1
f 1/3/1 2/6/1 18/36/1
f 1/3/1 18/36/1 17/35/1
f 20/41/1 31/66/1 28/60/1
f 21/45/1 20/41/1 28/60/1
f 1/3/1 17/35/1 22/46/1
f 21/45/1 28/60/1 27/59/1
f 1/3/1 22/46/1 21/45/1
f 31/66/1 20/41/1 26/55/1
f 31/66/1 26/55/1 25/53/1
f 36/80/1 31/66/1 25/53/1
f 24/50/1 23/48/1 2/6/1
f 25/53/1 24/50/1 2/6/1
f 3/9/1 29/62/1 33/71/1
f 3/9/1 33/71/1 32/68/1
f 25/53/1 2/6/1 4/12/1
f 36/80/1 25/53/1 4/12/1
f 4/12/1 3/9/1 32/68/1
f 4/12/1 32/68/1 34/74/1
f 35/76/1 36/80/1 4/12/1
usemtl 
f 14/28/4 20/42/4 21/43/4
f 16/32/1 14/28/1 7/17/1
f 18/37/2 7/17/2 17/33/2
f 21/44/6 22/47/6 14/28/6
f 16/32/5 24/51/5 25/52/5
f 16/32/4 26/56/4 14/28/4
f 16/32/1 7/17/1 11/23/1
f 19/38/2 11/23/2 18/37/2
f 7/17/6 22/47/6 17/34/6
f 11/23/5 23/49/5 24/51/5
f 32/69/4 33/70/4 9/19/4
f 12/24/1 9/19/1 6/16/1
f 28/61/2 6/16/2 27/57/2
f 9/19/6 29/63/6 30/65/6
f 12/24/5 35/77/5 34/73/5
f 12/24/4 32/69/4 9/19/4
f 12/24/1 6/16/1 8/18/1
f 8/18/2 31/67/2 36/78/2
f 6/16/6 30/65/6 27/58/6
f 35/77/5 8/18/5 36/79/5
f 14/28/4 26/56/4 20/42/4
f 18/37/2 11/23/2 7/17/2
f 16/32/5 11/23/5 24/51/5
f 16/32/4 25/54/4 26/56/4
f 7/17/6 14/28/6 22/47/6
f 11/23/5 19/40/5 23/49/5
f 28/61/2 8/18/2 6/16/2
f 9/19/6 33/72/6 29/63/6
f 12/24/5 8/18/5 35/77/5
f 12/24/4 34/75/4 32/69/4
f 8/18/2 28/61/2 31/67/2
f 6/16/6 9/19/6 30/65/6
