# Blender 3.5.0
# www.blender.org
mtllib house29.mtl
o 立方体.033
v 71.256546 3.800000 -134.795837
v 71.256546 8.800000 -134.795837
v 61.656544 3.800000 -134.795822
v 61.656544 8.800000 -134.795822
v 71.256546 3.800000 -140.795837
v 71.139389 4.000000 -140.570053
v 71.139389 8.600000 -140.570053
v 66.382545 4.000000 -140.570068
v 71.256546 8.800000 -140.795837
v 66.539383 4.000000 -140.570053
v 66.382545 8.600000 -140.570068
v 66.539383 8.600000 -140.570053
v 61.656544 3.800000 -140.795822
v 61.782547 4.000000 -140.570053
v 61.656544 8.800000 -140.795822
v 61.782547 8.600000 -140.570053
v 66.382545 4.000000 -134.795837
v 66.382545 4.173090 -134.795837
v 62.040543 4.000000 -134.795822
v 66.209457 4.000000 -134.795837
v 66.382545 6.261461 -134.795837
v 66.382545 8.600000 -134.795837
v 61.782547 8.426910 -134.795822
v 61.782547 4.000000 -134.795822
v 61.782547 8.600000 -134.795822
v 61.955639 8.600000 -134.795822
v 71.139389 4.000000 -134.795837
v 71.139389 4.173099 -134.795837
v 71.139389 8.600000 -134.795837
v 66.539383 6.343148 -134.795837
v 70.966286 4.000000 -134.795837
v 70.872543 8.600000 -134.795837
v 66.539383 4.000000 -134.795837
v 66.712486 8.600000 -134.795837
v 66.539383 8.426902 -134.795837
v 66.539383 8.600000 -134.795837
vn -0.0000 -0.0000 1.0000
vn -1.0000 -0.0000 -0.0000
vn -0.0000 -0.0000 -1.0000
vn 1.0000 -0.0000 -0.0000
vn -0.0000 -1.0000 -0.0000
vn -0.0000 1.0000 -0.0000
vt 0.333333 0.000000
vt 0.333333 0.666667
vt 1.000000 0.000000
vt 0.333333 0.333333
vt 0.333333 1.000000
vt 1.000000 0.333333
vt 0.333333 0.000000
vt 0.333333 0.333333
vt 0.666667 0.000000
vt 0.333333 0.333333
vt 0.333333 0.666667
vt 0.666667 0.333333
vt 0.666667 0.000000
vt 0.000000 0.333333
vt 0.666667 0.666667
vt 0.375000 0.750000
vt 0.625000 0.750000
vt 0.375000 0.750000
vt 0.000000 0.666667
vt 0.666667 0.333333
vt 0.000000 1.000000
vt 0.375000 0.500000
vt 0.625000 0.750000
vt 0.625000 0.500000
vt 0.333333 0.333333
vt 0.000000 0.000000
vt 0.666667 0.333333
vt 0.375000 0.500000
vt 0.000000 0.666667
vt 0.000000 0.333333
vt 0.333333 0.666667
vt 0.625000 0.500000
vt 0.375000 0.990593
vt 0.134407 0.750000
vt 0.830764 0.013333
vt 0.830764 0.024873
vt 0.384407 0.990593
vt 0.680000 0.013333
vt 0.134407 0.514021
vt 0.824754 0.013333
vt 0.134407 0.740593
vt 0.830764 0.164097
vt 0.497906 0.990593
vt 0.625000 0.990593
vt 0.865593 0.750000
vt 0.830764 0.320000
vt 0.671042 0.308461
vt 0.615593 0.259407
vt 0.375000 0.259407
vt 0.671042 0.013333
vt 0.134407 0.500000
vt 0.865593 0.500000
vt 0.671042 0.320000
vt 0.625000 0.259407
vt 0.677052 0.320000
vt 0.865593 0.509407
vt 0.375000 0.990592
vt 0.134408 0.750000
vt 0.995932 0.013333
vt 0.995932 0.024873
vt 0.384408 0.990592
vt 0.625000 0.990592
vt 0.995932 0.320000
vt 0.865592 0.750000
vt 0.836210 0.169543
vt 0.502345 0.259408
vt 0.989922 0.013333
vt 0.134408 0.740592
vt 0.986667 0.320000
vt 0.865592 0.735498
vt 0.375000 0.259408
vt 0.134408 0.500000
vt 0.836210 0.013333
vt 0.842220 0.320000
vt 0.865592 0.509408
vt 0.836210 0.308460
vt 0.615592 0.259408
vt 0.865592 0.500000
vt 0.836210 0.320000
vt 0.625000 0.259408
s 0
usemtl マテリアル.068
f 1/3/1 27/59/1 31/67/1
f 4/10/2 13/26/2 3/7/2
f 15/31/3 5/14/3 13/25/3
f 9/20/4 1/1/4 5/13/4
f 13/27/5 1/2/5 3/8/5
f 4/11/6 9/21/6 15/29/6
f 4/12/1 22/46/1 36/79/1
f 4/10/2 15/30/2 13/26/2
f 15/31/3 9/19/3 5/14/3
f 9/20/4 2/4/4 1/1/4
f 13/27/5 5/15/5 1/2/5
f 4/11/6 2/5/6 9/21/6
f 33/73/1 30/65/1 21/42/1
f 33/73/1 21/42/1 18/36/1
f 33/73/1 18/36/1 17/35/1
f 20/40/1 19/38/1 3/9/1
f 17/35/1 20/40/1 3/9/1
f 2/6/1 32/69/1 29/63/1
f 2/6/1 29/63/1 28/60/1
f 17/35/1 3/9/1 1/3/1
f 33/73/1 17/35/1 1/3/1
f 1/3/1 2/6/1 28/60/1
f 1/3/1 28/60/1 27/59/1
f 31/67/1 33/73/1 1/3/1
f 32/69/1 2/6/1 4/12/1
f 3/9/1 19/38/1 24/50/1
f 3/9/1 24/50/1 23/47/1
f 34/74/1 32/69/1 4/12/1
f 36/79/1 34/74/1 4/12/1
f 4/12/1 3/9/1 23/47/1
f 4/12/1 23/47/1 25/53/1
f 21/42/1 30/65/1 35/76/1
f 22/46/1 21/42/1 35/76/1
f 4/12/1 25/53/1 26/55/1
f 22/46/1 35/76/1 36/79/1
f 4/12/1 26/55/1 22/46/1
usemtl 
f 23/48/4 24/49/4 14/28/4
f 16/32/1 14/28/1 8/18/1
f 18/37/2 8/18/2 17/33/2
f 14/28/6 19/39/6 20/41/6
f 16/32/5 26/56/5 25/52/5
f 16/32/4 23/48/4 14/28/4
f 16/32/1 8/18/1 11/23/1
f 11/23/2 21/43/2 22/44/2
f 8/18/6 20/41/6 17/34/6
f 26/56/5 11/23/5 22/45/5
f 10/22/4 30/66/4 33/71/4
f 12/24/1 10/22/1 6/16/1
f 28/61/2 6/16/2 27/57/2
f 10/22/6 33/72/6 31/68/6
f 12/24/5 34/75/5 36/78/5
f 12/24/4 35/77/4 10/22/4
f 12/24/1 6/16/1 7/17/1
f 29/62/2 7/17/2 28/61/2
f 6/16/6 31/68/6 27/58/6
f 7/17/5 32/70/5 34/75/5
f 18/37/2 11/23/2 8/18/2
f 14/28/6 24/51/6 19/39/6
f 16/32/5 11/23/5 26/56/5
f 16/32/4 25/54/4 23/48/4
f 11/23/2 18/37/2 21/43/2
f 8/18/6 14/28/6 20/41/6
f 10/22/4 35/77/4 30/66/4
f 28/61/2 7/17/2 6/16/2
f 12/24/5 7/17/5 34/75/5
f 12/24/4 36/80/4 35/77/4
f 6/16/6 10/22/6 31/68/6
f 7/17/5 29/64/5 32/70/5
