# Blender 3.5.0
# www.blender.org
mtllib float_R_leg.mtl
o R_leg
v -0.500000 0.000000 -0.500000
v -0.500000 -2.000000 -0.500000
v -0.500000 0.000000 0.500000
v -0.500000 -2.000000 0.500000
v -1.500000 0.000000 -0.500000
v -1.500000 -2.000000 -0.500000
v -1.500000 0.000000 0.500000
v -1.500000 -2.000000 0.500000
vn -0.0000 1.0000 -0.0000
vn -0.0000 -0.0000 1.0000
vn -1.0000 -0.0000 -0.0000
vn -0.0000 -1.0000 -0.0000
vn 1.0000 -0.0000 -0.0000
vn -0.0000 -0.0000 -1.0000
vt 0.501171 0.624995
vt 0.000000 1.000000
vt 1.000000 0.453000
vt 0.000000 0.000000
vt 1.000000 1.000000
vt 1.000000 0.000000
vt 0.000000 1.000000
vt 1.000000 1.000000
vt 0.000000 0.000000
vt 0.000000 0.453000
vt 1.000000 0.000000
vt 0.000000 1.000000
vt 1.000000 1.000000
vt 1.000000 0.000000
vt 0.000000 0.000000
s 0
usemtl Material
f 1/1/1 5/8/1 7/12/1 3/5/1
f 4/6/2 3/5/2 7/12/2 8/15/2
f 8/14/3 7/13/3 5/7/3 6/9/3
f 6/10/4 2/3/4 4/6/4 8/15/4
f 2/4/5 1/2/5 3/5/5 4/6/5
f 6/11/6 5/8/6 1/2/6 2/4/6
