# Blender 3.5.0
# www.blender.org
mtllib ladder1.mtl
o 立方体.109
v -161.300735 -2.051088 189.187439
v -161.300735 31.508909 189.187439
v -161.300735 -2.051088 188.387451
v -161.300735 31.508909 188.387451
v -162.100723 -2.051088 189.187439
v -162.100723 31.508909 189.187439
v -162.100723 -2.051088 188.387451
v -162.100723 31.508909 188.387451
vn 1.0000 -0.0000 -0.0000
vn -0.0000 -0.0000 -1.0000
vn -1.0000 -0.0000 -0.0000
vn -0.0000 -0.0000 1.0000
vn -0.0000 -1.0000 -0.0000
vn -0.0000 1.0000 -0.0000
vt 1.000000 0.000000
vt 0.333333 0.000000
vt 0.333333 0.666667
vt 1.000000 0.333333
vt 0.333333 0.333333
vt 0.333333 1.000000
vt 0.333333 0.000000
vt 0.333333 0.333333
vt 0.666667 0.000000
vt 0.666667 0.333333
vt 0.333333 0.333333
vt 0.333333 0.666667
vt 0.666667 0.000000
vt 0.000000 0.333333
vt 0.666667 0.666667
vt 0.000000 0.666667
vt 0.666667 0.333333
vt 0.000000 1.000000
vt 0.333333 0.333333
vt 0.000000 0.000000
vt 0.666667 0.333333
vt 0.000000 0.666667
vt 0.000000 0.333333
vt 0.333333 0.666667
s 0
usemtl マテリアル.093
f 2/4/1 1/1/1 3/9/1
f 4/11/2 3/7/2 7/20/2
f 8/24/3 7/19/3 5/14/3
f 6/17/4 5/13/4 1/2/4
f 7/21/5 3/8/5 1/3/5
f 4/12/6 8/22/6 6/18/6
f 2/4/1 3/9/1 4/10/1
f 4/11/2 7/20/2 8/23/2
f 8/24/3 5/14/3 6/16/3
f 6/17/4 1/2/4 2/5/4
f 7/21/5 1/3/5 5/15/5
f 4/12/6 6/18/6 2/6/6
