# Blender 4.1.1
# www.blender.org
mtllib ResultEarth13.mtl
o ICO球.002
v -0.225906 0.904489 -0.316581
v -0.154345 0.928307 -0.368505
v -0.106504 0.908375 -0.286704
v -0.207583 0.920058 -0.234936
v -0.305930 0.947210 -0.272886
v -0.267035 0.923832 -0.349496
v -0.123114 0.958598 -0.349997
v -0.144055 0.953499 -0.255589
v -0.255343 0.977500 -0.235190
v -0.285229 0.968956 -0.299194
v -0.190136 0.985750 -0.356895
v -0.203139 1.001319 -0.306302
v -0.149743 0.898273 -0.292013
v -0.177863 0.909989 -0.340094
v -0.119058 0.912273 -0.333811
v -0.200623 0.938096 -0.358038
v -0.262633 0.924096 -0.347291
v -0.217135 0.905140 -0.269494
v -0.158330 0.907424 -0.263211
v -0.274941 0.921099 -0.291800
v -0.264172 0.930251 -0.243810
v -0.309670 0.949207 -0.321608
v -0.163282 0.957753 -0.370178
v -0.242066 0.943384 -0.371442
v -0.089323 0.930077 -0.311654
v -0.117443 0.941793 -0.359736
v -0.169024 0.933947 -0.233643
v -0.120988 0.927081 -0.275350
v -0.292245 0.964014 -0.243959
v -0.234437 0.948055 -0.221653
v -0.290102 0.950251 -0.329735
v -0.320365 0.975730 -0.292041
v -0.133548 0.975557 -0.348021
v -0.119374 0.956601 -0.301274
v -0.197096 0.967711 -0.233793
v -0.290630 0.993534 -0.269884
v -0.252760 0.969907 -0.341875
v -0.154103 0.984708 -0.331083
v -0.180585 1.000668 -0.322338
v -0.166412 0.981712 -0.275591
v -0.231825 0.995819 -0.263601
v -0.241990 0.979059 -0.293885
vn -0.0036 -0.9721 -0.2347
vn -0.2957 -0.6726 -0.6784
vn -0.0911 -0.9954 0.0307
vn -0.2895 -0.9548 0.0671
vn -0.3777 -0.9163 -0.1333
vn -0.2446 -0.1288 -0.9610
vn 0.6193 -0.7515 -0.2272
vn 0.2231 -0.6841 0.6944
vn -0.6209 -0.5136 0.5922
vn -0.3779 0.3199 -0.8688
vn 0.2265 0.0134 -0.9739
vn 0.7354 0.1715 0.6556
vn 0.0951 -0.3508 0.9316
vn -0.8694 -0.1178 0.4798
vn -0.6563 -0.0087 -0.7545
vn 0.6836 0.3457 0.6428
vn 0.5858 0.7234 0.3655
vn 0.1178 0.7873 0.6052
vn -0.0963 0.7539 -0.6499
vn -0.3019 0.9028 -0.3063
vn -0.5019 0.4716 -0.7251
vn -0.3688 0.9248 -0.0936
vn -0.2093 0.9681 -0.1376
vn -0.5413 0.7994 -0.2607
vn 0.0183 0.8722 -0.4889
vn -0.0859 0.8682 0.4887
vn 0.2521 0.9238 0.2883
vn 0.2680 0.8370 0.4771
vn 0.4195 0.7223 0.5499
vn 0.3777 0.9163 0.1333
vn 0.5324 0.8307 0.1630
vn 0.6380 0.7698 -0.0174
vn 0.5198 0.4724 0.7118
vn 0.5592 0.7899 0.2519
vn 0.2254 0.8703 -0.4380
vn -0.3285 0.6409 -0.6938
vn -0.5044 0.5441 -0.6705
vn -0.5247 0.7607 -0.3822
vn 0.0176 0.7677 -0.6405
vn -0.6897 0.4987 0.5249
vn -0.3885 0.6199 0.6817
vn 0.0540 0.4485 0.8922
vn 0.2153 0.1833 0.9592
vn 0.4359 0.3661 0.8222
vn 0.8098 0.3615 0.4620
vn 0.6372 0.4886 0.5961
vn 0.6578 0.7530 -0.0196
vn 0.7394 0.5066 -0.4435
vn 0.3444 0.4501 -0.8239
vn 0.2276 0.5869 -0.7770
vn 0.0559 0.8474 -0.5279
vn -0.3226 0.6436 -0.6940
vn -0.9047 -0.4229 0.0521
vn -0.2994 0.2148 0.9296
vn -0.4193 -0.3449 0.8398
vn -0.2276 -0.5869 0.7770
vn 0.6563 0.0087 0.7545
vn 0.5044 -0.5441 0.6705
vn 0.4058 -0.2237 0.8862
vn 0.8044 0.4768 -0.3543
vn 0.6897 -0.4987 -0.5249
vn 0.3885 -0.6199 -0.6817
vn -0.0553 0.3842 -0.9216
vn 0.1385 -0.6973 -0.7032
vn 0.0931 -0.7937 -0.6011
vn -0.1914 -0.8538 0.4842
vn -0.5324 -0.8307 -0.1630
vn -0.6380 -0.7698 0.0174
vn -0.5181 -0.8112 0.2710
vn -0.3462 -0.9042 0.2501
vn -0.2254 -0.8703 0.4380
vn -0.0069 -0.9174 0.3979
vn 0.0045 -0.9527 0.3040
vn 0.1732 -0.9226 0.3448
vn 0.1751 -0.9560 -0.2352
vn -0.0206 -0.5498 -0.8350
vn -0.1115 -0.8927 -0.4366
vn 0.2419 -0.9596 -0.1439
vn 0.0664 -0.9598 -0.2727
vn 0.0859 -0.8682 -0.4887
vt 0.181819 0.000000
vt 0.227273 0.078731
vt 0.136365 0.078731
vt 0.272728 0.157461
vt 0.318182 0.078731
vt 0.363637 0.157461
vt 0.909091 0.000000
vt 0.954545 0.078731
vt 0.863636 0.078731
vt 0.727273 0.000000
vt 0.772727 0.078731
vt 0.681818 0.078731
vt 0.545455 0.000000
vt 0.590909 0.078731
vt 0.500000 0.078731
vt 0.318182 0.236191
vt 0.090910 0.157461
vt 0.181819 0.157461
vt 0.136365 0.236191
vt 0.818182 0.157461
vt 0.909091 0.157461
vt 0.863636 0.236191
vt 0.636364 0.157461
vt 0.727273 0.157461
vt 0.681818 0.236191
vt 0.454546 0.157461
vt 0.545455 0.157461
vt 0.500000 0.236191
vt 0.227273 0.236191
vt 0.045455 0.236191
vt 0.772727 0.236191
vt 0.590909 0.236191
vt 0.409092 0.236191
vt 0.181819 0.314921
vt 0.272728 0.314921
vt 0.227273 0.393651
vt 0.000000 0.314921
vt 0.090910 0.314921
vt 0.045455 0.393651
vt 0.727273 0.314921
vt 0.818182 0.314921
vt 0.772727 0.393651
vt 0.545455 0.314921
vt 0.636364 0.314921
vt 0.590909 0.393651
vt 0.363637 0.314921
vt 0.454546 0.314921
vt 0.409092 0.393651
vt 0.500000 0.393651
vt 0.454546 0.472382
vt 0.681818 0.393651
vt 0.636364 0.472382
vt 0.863636 0.393651
vt 0.818182 0.472382
vt 0.909091 0.314921
vt 0.136365 0.393651
vt 0.090910 0.472382
vt 0.318182 0.393651
vt 0.272728 0.472382
vt 0.954545 0.236191
vt 1.000000 0.157461
vt 0.409092 0.078731
vt 0.363637 0.000000
s 0
usemtl マテリアル.007
f 1/1/1 14/2/1 13/3/1
f 2/4/2 14/5/2 16/6/2
f 1/7/3 13/8/3 18/9/3
f 1/10/4 18/11/4 20/12/4
f 1/13/5 20/14/5 17/15/5
f 2/4/6 16/6/6 23/16/6
f 3/17/7 15/18/7 25/19/7
f 4/20/8 19/21/8 27/22/8
f 5/23/9 21/24/9 29/25/9
f 6/26/10 22/27/10 31/28/10
f 2/4/11 23/16/11 26/29/11
f 3/17/12 25/19/12 28/30/12
f 4/20/13 27/22/13 30/31/13
f 5/23/14 29/25/14 32/32/14
f 6/26/15 31/28/15 24/33/15
f 7/34/16 33/35/16 38/36/16
f 8/37/17 34/38/17 40/39/17
f 9/40/18 35/41/18 41/42/18
f 10/43/19 36/44/19 42/45/19
f 11/46/20 37/47/20 39/48/20
f 39/48/21 42/49/21 12/50/21
f 39/48/22 37/47/22 42/49/22
f 37/47/23 10/43/23 42/49/23
f 42/45/24 41/51/24 12/52/24
f 42/45/25 36/44/25 41/51/25
f 36/44/26 9/40/26 41/51/26
f 41/42/27 40/53/27 12/54/27
f 41/42/28 35/41/28 40/53/28
f 35/41/29 8/55/29 40/53/29
f 40/39/30 38/56/30 12/57/30
f 40/39/31 34/38/31 38/56/31
f 34/38/32 7/34/32 38/56/32
f 38/36/33 39/58/33 12/59/33
f 38/36/34 33/35/34 39/58/34
f 33/35/35 11/46/35 39/58/35
f 24/33/36 37/47/36 11/46/36
f 24/33/37 31/28/37 37/47/37
f 31/28/38 10/43/38 37/47/38
f 32/32/39 36/44/39 10/43/39
f 32/32/40 29/25/40 36/44/40
f 29/25/41 9/40/41 36/44/41
f 30/31/42 35/41/42 9/40/42
f 30/31/43 27/22/43 35/41/43
f 27/22/44 8/55/44 35/41/44
f 28/30/45 34/38/45 8/37/45
f 28/30/46 25/19/46 34/38/46
f 25/19/47 7/34/47 34/38/47
f 26/29/48 33/35/48 7/34/48
f 26/29/49 23/16/49 33/35/49
f 23/16/50 11/46/50 33/35/50
f 31/28/51 32/32/51 10/43/51
f 31/28/52 22/27/52 32/32/52
f 22/27/53 5/23/53 32/32/53
f 29/25/54 30/31/54 9/40/54
f 29/25/55 21/24/55 30/31/55
f 21/24/56 4/20/56 30/31/56
f 27/22/57 28/60/57 8/55/57
f 27/22/58 19/21/58 28/60/58
f 19/21/59 3/61/59 28/60/59
f 25/19/60 26/29/60 7/34/60
f 25/19/61 15/18/61 26/29/61
f 15/18/62 2/4/62 26/29/62
f 23/16/63 24/33/63 11/46/63
f 23/16/64 16/6/64 24/33/64
f 16/6/65 6/26/65 24/33/65
f 17/15/66 22/27/66 6/26/66
f 17/15/67 20/14/67 22/27/67
f 20/14/68 5/23/68 22/27/68
f 20/12/69 21/24/69 5/23/69
f 20/12/70 18/11/70 21/24/70
f 18/11/71 4/20/71 21/24/71
f 18/9/72 19/21/72 4/20/72
f 18/9/73 13/8/73 19/21/73
f 13/8/74 3/61/74 19/21/74
f 16/6/75 17/62/75 6/26/75
f 16/6/76 14/5/76 17/62/76
f 14/5/77 1/63/77 17/62/77
f 13/3/78 15/18/78 3/17/78
f 13/3/79 14/2/79 15/18/79
f 14/2/80 2/4/80 15/18/80
