# Blender 3.5.0
# www.blender.org
mtllib house50.mtl
o 立方体.074
v -127.047607 30.819748 -30.874582
v -126.358368 30.919748 -31.016109
v -126.358368 36.719749 -31.016109
v -126.358368 30.919748 -36.152035
v -127.047607 36.819748 -30.874582
v -126.358368 30.919748 -36.016117
v -126.358368 36.719749 -36.016117
v -126.358368 36.719749 -36.152035
v -127.047607 30.819748 -41.274586
v -126.358368 30.919748 -41.152042
v -127.047607 36.819748 -41.274586
v -126.358368 36.719749 -41.152042
v -119.047607 30.819748 -30.874582
v -119.047607 36.819748 -30.874582
v -119.047607 30.819748 -41.274586
v -119.047607 36.819748 -41.274586
v -119.047607 30.919748 -36.152035
v -119.047607 33.864429 -36.152035
v -119.047607 31.419447 -41.152042
v -119.047607 30.919748 -41.152042
v -119.047607 36.719749 -41.152042
v -119.047607 30.919748 -40.721268
v -119.047607 36.719749 -41.101254
v -119.047607 36.220051 -36.152035
v -119.047607 36.719749 -36.582809
v -119.047607 36.719749 -36.152035
v -119.047607 30.919748 -36.016117
v -119.047607 30.919748 -35.585342
v -119.047607 30.919748 -31.047916
v -119.047607 31.419447 -36.016117
v -119.047607 33.786018 -36.016117
v -119.047607 30.919748 -31.016109
v -119.047607 36.220051 -31.016109
v -119.047607 36.719749 -31.016109
v -119.047607 36.719749 -31.446886
v -119.047607 36.719749 -36.016117
vn -1.0000 -0.0000 -0.0000
vn -0.0000 -0.0000 -1.0000
vn 1.0000 -0.0000 -0.0000
vn -0.0000 -0.0000 1.0000
vn -0.0000 -1.0000 -0.0000
vn -0.0000 1.0000 -0.0000
vt 1.000000 0.000000
vt 0.333333 0.000000
vt 0.333333 0.666667
vt 0.375000 0.000000
vt 0.375000 1.000000
vt 0.125000 0.750000
vt 0.625000 0.000000
vt 0.625000 1.000000
vt 0.875000 0.750000
vt 0.375000 0.000000
vt 0.125000 0.750000
vt 0.375000 1.000000
vt 1.000000 0.333333
vt 0.333333 0.333333
vt 0.333333 1.000000
vt 0.375000 0.250000
vt 0.125000 0.500000
vt 0.625000 0.250000
vt 0.875000 0.500000
vt 0.625000 0.000000
vt 0.625000 1.000000
vt 0.875000 0.750000
vt 0.333333 0.000000
vt 0.333333 0.333333
vt 0.666667 0.000000
vt 0.375000 0.250000
vt 0.125000 0.500000
vt 0.666667 0.333333
vt 0.333333 0.333333
vt 0.333333 0.666667
vt 0.625000 0.250000
vt 0.875000 0.500000
vt 0.666667 0.000000
vt 0.666667 0.666667
vt 0.000000 0.333333
vt 0.666667 0.333333
vt 0.000000 1.000000
vt 0.000000 0.666667
vt 0.000000 0.000000
vt 0.666667 0.333333
vt 0.333333 0.333333
vt 0.000000 0.666667
vt 0.000000 0.333333
vt 0.333333 0.666667
vt 0.375000 0.771539
vt 0.353461 0.750000
vt 0.169149 0.338889
vt 0.169149 0.502482
vt 0.501926 0.771539
vt 0.329406 0.366650
vt 0.396539 0.478461
vt 0.329406 0.338889
vt 0.375000 0.478461
vt 0.353461 0.500000
vt 0.625000 0.478461
vt 0.329406 0.661111
vt 0.646539 0.500000
vt 0.315599 0.338889
vt 0.353461 0.521539
vt 0.327778 0.661111
vt 0.646539 0.502539
vt 0.169149 0.633350
vt 0.603461 0.771539
vt 0.182956 0.661111
vt 0.646539 0.728461
vt 0.646539 0.750000
vt 0.169149 0.661111
vt 0.625000 0.771539
vt 0.164793 0.338889
vt 0.375000 0.478461
vt 0.353461 0.500000
vt 0.150986 0.338889
vt 0.353461 0.521539
vt 0.005556 0.338889
vt 0.353461 0.748410
vt 0.164793 0.366650
vt 0.396539 0.478461
vt 0.164793 0.498126
vt 0.498546 0.478461
vt 0.375000 0.771539
vt 0.004536 0.338889
vt 0.353461 0.750000
vt 0.004536 0.633350
vt 0.603461 0.771539
vt 0.646539 0.750000
vt 0.004536 0.661111
vt 0.625000 0.771539
vt 0.018343 0.661111
vt 0.646539 0.728461
vt 0.646539 0.500000
vt 0.625000 0.478461
vt 0.164793 0.661111
s 0
usemtl マテリアル.044
f 5/13/1 9/25/1 1/1/1
f 11/29/2 15/39/2 9/23/2
f 15/41/3 17/47/3 27/69/3
f 14/36/4 1/2/4 13/33/4
f 15/40/5 1/3/5 9/24/5
f 11/30/6 14/37/6 16/42/6
f 5/13/1 11/28/1 9/25/1
f 11/29/2 16/43/2 15/39/2
f 14/38/3 34/86/3 35/88/3
f 14/36/4 5/14/4 1/2/4
f 15/40/5 13/34/5 1/3/5
f 11/30/6 5/15/6 14/37/6
f 28/72/3 29/74/3 13/35/3
f 16/44/3 23/60/3 21/56/3
f 16/44/3 21/56/3 19/50/3
f 28/72/3 13/35/3 15/41/3
f 27/69/3 28/72/3 15/41/3
f 15/41/3 16/44/3 19/50/3
f 15/41/3 19/50/3 20/52/3
f 18/48/3 31/78/3 30/76/3
f 17/47/3 18/48/3 30/76/3
f 15/41/3 20/52/3 22/58/3
f 17/47/3 30/76/3 27/69/3
f 15/41/3 22/58/3 17/47/3
f 36/92/3 31/78/3 18/48/3
f 36/92/3 18/48/3 24/62/3
f 36/92/3 24/62/3 26/67/3
f 25/64/3 23/60/3 16/44/3
f 26/67/3 25/64/3 16/44/3
f 13/35/3 29/74/3 32/81/3
f 13/35/3 32/81/3 33/83/3
f 26/67/3 16/44/3 14/38/3
f 36/92/3 26/67/3 14/38/3
f 14/38/3 13/35/3 33/83/3
f 14/38/3 33/83/3 34/86/3
f 35/88/3 36/92/3 14/38/3
usemtl 
f 8/20/3 4/10/3 10/26/3
f 10/26/4 19/51/4 12/31/4
f 4/12/2 18/49/2 17/45/2
f 22/59/6 10/27/6 4/11/6
f 12/32/5 23/61/5 25/65/5
f 8/20/3 10/26/3 12/31/3
f 12/31/4 19/51/4 21/55/4
f 8/21/2 24/63/2 4/12/2
f 4/11/6 17/46/6 22/59/6
f 8/22/5 25/65/5 26/66/5
f 3/7/3 2/4/3 6/16/3
f 6/16/4 30/77/4 7/18/4
f 2/5/2 33/84/2 32/80/2
f 28/73/6 6/17/6 2/6/6
f 7/19/5 36/90/5 35/89/5
f 3/7/3 6/16/3 7/18/3
f 7/18/4 31/79/4 36/91/4
f 3/8/2 33/84/2 2/5/2
f 2/6/6 29/75/6 28/73/6
f 3/9/5 35/89/5 34/85/5
f 10/26/4 20/53/4 19/51/4
f 4/12/2 24/63/2 18/49/2
f 22/59/6 20/54/6 10/27/6
f 12/32/5 21/57/5 23/61/5
f 8/21/2 26/68/2 24/63/2
f 8/22/5 12/32/5 25/65/5
f 6/16/4 27/70/4 30/77/4
f 28/73/6 27/71/6 6/17/6
f 7/18/4 30/77/4 31/79/4
f 3/8/2 34/87/2 33/84/2
f 2/6/6 32/82/6 29/75/6
f 3/9/5 7/19/5 35/89/5
